<svg width="128" height="128" viewBox="0 0 128 128" fill="none" xmlns="http://www.w3.org/2000/svg">
<path d="M63.6 118.8C35.7 118.8 5.60001 101.3 5.60001 62.9C5.60001 24.5 35.7 7 63.6 7C79.1 7 93.4 12.1 104 21.4C115.5 31.6 121.6 46 121.6 62.9C121.6 79.8 115.5 94.1 104 104.3C93.4 113.6 79 118.8 63.6 118.8Z" fill="url(#paint0_radial_1772_1260)"/>
<path d="M111.49 29.67C116.82 38.27 119.6 48.51 119.6 59.9C119.6 76.8 113.5 91.1 102 101.3C91.4 110.6 77 115.8 61.6 115.8C43.54 115.8 24.6 108.45 13.42 92.86C24.18 110.52 44.42 118.8 63.6 118.8C79 118.8 93.4 113.6 104 104.3C115.5 94.1001 121.6 79.8 121.6 62.9C121.6 50.16 118.13 38.84 111.49 29.67Z" fill="#EB8F00"/>
<path d="M64 87.1499C74.82 87.1499 81.83 95.0699 83.65 98.7199C84.35 100.13 84.39 101.3 83.79 101.85C83.16 102.26 82.34 102.26 81.71 101.85C81.4 101.7 81.09 101.53 80.81 101.33C75.9101 97.8183 70.0332 95.9299 64.005 95.9299C57.9767 95.9299 52.0999 97.8183 47.2 101.33C46.92 101.53 46.62 101.7 46.3 101.85C45.67 102.27 44.85 102.27 44.22 101.85C43.62 101.3 43.66 100.13 44.36 98.7199C46.17 95.0799 53.18 87.1499 64 87.1499Z" fill="#422B0D"/>
<path d="M27.39 39.77C25.19 40.16 25.08 43.36 27.48 43.47C32.78 43.55 37.9 41.59 41.8 38C43.2824 36.7245 44.5369 35.2062 45.51 33.51C46.09 32.68 45.89 31.54 45.07 30.95C44.25 30.36 43.1 30.57 42.51 31.39L42.41 31.49C38.48 35.88 33.19 38.79 27.39 39.77Z" fill="#422B0D"/>
<path d="M86.12 31.5199L86.02 31.4199C85.7397 31.0215 85.3128 30.7503 84.833 30.666C84.3531 30.5816 83.8594 30.6909 83.46 30.9699C83.2623 31.1086 83.094 31.2849 82.9648 31.4889C82.8355 31.6929 82.7479 31.9204 82.707 32.1583C82.6661 32.3963 82.6727 32.64 82.7265 32.8754C82.7802 33.1108 82.8799 33.3333 83.02 33.5299C84 35.2199 85.26 36.7299 86.75 37.9999C90.65 41.5899 95.77 43.5399 101.07 43.4499C103.47 43.3399 103.36 40.1399 101.15 39.7499C95.35 38.7799 90.06 35.8799 86.12 31.5199Z" fill="#422B0D"/>
<path d="M19.52 107C11.06 107 4.51999 98.79 4.51999 91.76C4.51999 86.82 6.72999 81.09 9.85999 73.15C10.25 71.98 10.77 70.8 11.29 69.5C12.78 65.78 14.09 61.75 16.09 58.26C16.395 57.7136 16.8404 57.2585 17.3801 56.9417C17.9197 56.6249 18.5342 56.4579 19.16 56.4579C19.7858 56.4579 20.4002 56.6249 20.9399 56.9417C21.4796 57.2585 21.9249 57.7136 22.23 58.26C24.09 61.69 25.37 65.4 27.3 69.73C32.77 81.97 34.3 86.92 34.3 91.86C34.49 98.83 27.85 107 19.52 107Z" fill="url(#paint1_radial_1772_1260)"/>
<path d="M28.67 97.6499C26.76 100.65 22.42 100.05 22.42 95.1399C22.42 91.9999 23.06 75.8799 25.76 78.1399C30.14 81.8099 31.39 93.4699 28.67 97.6499Z" fill="#81D4FA"/>
<path d="M44.67 54.9399C40.48 54.9399 36.67 58.4799 36.67 64.3599C36.67 70.2399 40.48 73.7699 44.67 73.7699C48.86 73.7699 52.67 70.2299 52.67 64.3599C52.67 58.4899 48.86 54.9399 44.67 54.9399Z" fill="#422B0D"/>
<path d="M44.28 58.87C43.5952 58.5443 42.8095 58.5023 42.094 58.7533C41.3785 59.0043 40.7912 59.5279 40.46 60.21C39.93 61.32 40.17 62.65 41.06 63.51C42.48 64.19 44.19 63.59 44.88 62.17C45.41 61.06 45.17 59.73 44.28 58.87Z" fill="#896024"/>
<path d="M83 54.9399C78.81 54.9399 75 58.4799 75 64.3599C75 70.2399 78.81 73.7699 83 73.7699C87.19 73.7699 91 70.2299 91 64.3599C91 58.4899 87.21 54.9399 83 54.9399Z" fill="#422B0D"/>
<path d="M82.63 58.87C81.9453 58.5443 81.1595 58.5023 80.444 58.7533C79.7285 59.0043 79.1412 59.5279 78.81 60.21C78.28 61.32 78.52 62.65 79.41 63.51C80.83 64.19 82.54 63.59 83.23 62.17C83.76 61.06 83.52 59.73 82.63 58.87Z" fill="#896024"/>
<defs>
<radialGradient id="paint0_radial_1772_1260" cx="0" cy="0" r="1" gradientUnits="userSpaceOnUse" gradientTransform="translate(63.6 62.9) scale(56.96)">
<stop offset="0.5" stop-color="#FDE030"/>
<stop offset="0.92" stop-color="#F7C02B"/>
<stop offset="1" stop-color="#F4A223"/>
</radialGradient>
<radialGradient id="paint1_radial_1772_1260" cx="0" cy="0" r="1" gradientUnits="userSpaceOnUse" gradientTransform="translate(20.59 62.9403) scale(33.4 51.436)">
<stop offset="0.46" stop-color="#29B6F6"/>
<stop offset="1" stop-color="#1E88E5"/>
</radialGradient>
</defs>
</svg>
