<svg width="250" height="30" viewBox="0 0 250 30" fill="none" xmlns="http://www.w3.org/2000/svg">
<path d="M3.26758 29.3662C4.43945 29.3662 5.12793 28.9561 5.86035 27.9014L9.53711 22.6279H9.66895L13.5215 27.8281C14.3271 28.9121 15.0889 29.3662 16.2168 29.3662C17.9307 29.3662 19.1172 28.2236 19.1172 26.583C19.1172 25.7188 18.8682 25.0156 18.2236 24.1953L13.6973 18.4385V18.3213L18.3555 12.4473C18.9854 11.6562 19.2197 10.9824 19.2197 10.1328C19.2197 8.65332 17.8135 7.49609 16.2021 7.49609C15.001 7.49609 14.3857 7.93555 13.7266 8.94629L10.0205 14.6006H9.90332L6.37305 9.16602C5.65527 8.05273 4.76172 7.49609 3.60449 7.49609C1.78809 7.49609 0.484375 8.71191 0.484375 10.4258C0.484375 11.2754 0.71875 11.9785 1.46582 12.9453L5.58203 18.292V18.4092L1.26074 24.2979C0.601562 25.1914 0.367188 25.8652 0.367188 26.6562C0.367188 28.1797 1.62695 29.3662 3.26758 29.3662ZM25.416 29.3662C27.3936 29.3662 28.5215 28.1943 28.5215 26.1143V10.748C28.5215 8.66797 27.3936 7.49609 25.416 7.49609C23.4385 7.49609 22.3105 8.66797 22.3105 10.748V26.1143C22.3105 28.1943 23.4385 29.3662 25.416 29.3662ZM34.3809 29.3662C36.2266 29.3662 37.3105 28.2822 37.3105 26.29V17.8672H37.4277L44.6494 27.667C45.5283 28.8682 46.3633 29.3662 47.5498 29.3662C49.3955 29.3662 50.4062 28.3555 50.4062 26.4951V10.5723C50.4062 8.58008 49.3369 7.49609 47.4766 7.49609C45.6309 7.49609 44.5469 8.58008 44.5469 10.5723V18.8193H44.4297L37.2666 9.19531C36.373 8.00879 35.5088 7.49609 34.3809 7.49609C32.4766 7.49609 31.4512 8.49219 31.4512 10.3672V26.29C31.4512 28.2822 32.5205 29.3662 34.3809 29.3662ZM69.1855 29.3662C73.3018 29.3662 76.8613 27.3301 78.0918 24.2686C78.3115 23.7266 78.4287 23.1699 78.4287 22.6426C78.4287 20.9873 77.2715 19.9033 75.499 19.9033C74.1953 19.9033 73.4482 20.416 72.8184 21.749C71.9248 23.624 70.7383 24.4883 69.0391 24.4883C66.4609 24.4883 64.8643 22.2324 64.8643 18.4092C64.8643 14.6299 66.4756 12.374 69.0244 12.374C70.6504 12.374 71.8223 13.209 72.7598 15.0107C73.4336 16.3145 74.2539 16.8418 75.6016 16.8418C77.2275 16.8418 78.2969 15.8164 78.2969 14.2344C78.2969 13.4873 78.0771 12.7109 77.6523 11.9785C75.9824 9.03418 72.9941 7.49609 68.9512 7.49609C62.5645 7.49609 58.5361 11.4512 58.5361 18.4238C58.5361 25.3965 62.4766 29.3662 69.1855 29.3662ZM84.332 29.3662C86.3096 29.3662 87.4375 28.1943 87.4375 26.1143V20.8262H94.8789V26.1143C94.8789 28.1943 96.0068 29.3662 97.9844 29.3662C99.9619 29.3662 101.09 28.1943 101.09 26.1143V10.748C101.09 8.66797 99.9619 7.49609 97.9844 7.49609C96.0068 7.49609 94.8789 8.66797 94.8789 10.748V15.8896H87.4375V10.748C87.4375 8.66797 86.3096 7.49609 84.332 7.49609C82.3545 7.49609 81.2266 8.66797 81.2266 10.748V26.1143C81.2266 28.1943 82.3545 29.3662 84.332 29.3662ZM114.244 6.51465C114.918 6.51465 115.299 6.32422 115.914 5.60645L117.145 4.1709C117.569 3.6875 117.789 3.18945 117.789 2.75C117.789 1.69531 116.939 0.933594 115.812 0.933594C114.977 0.933594 114.552 1.18262 113.966 1.98828L112.691 3.74609C112.428 4.09766 112.296 4.47852 112.296 4.88867C112.296 5.82617 113.131 6.51465 114.244 6.51465ZM113.336 29.3662C118.917 29.3662 122.652 26.29 122.652 21.4707V10.748C122.652 8.66797 121.524 7.49609 119.547 7.49609C117.569 7.49609 116.441 8.66797 116.441 10.748V20.7822C116.441 23.0088 115.343 24.2246 113.336 24.2246C111.329 24.2246 110.23 23.0088 110.23 20.7822V10.748C110.23 8.66797 109.103 7.49609 107.125 7.49609C105.147 7.49609 104.02 8.66797 104.02 10.748V21.4707C104.02 26.29 107.755 29.3662 113.336 29.3662ZM135.719 29.3662C139.835 29.3662 143.395 27.3301 144.625 24.2686C144.845 23.7266 144.962 23.1699 144.962 22.6426C144.962 20.9873 143.805 19.9033 142.032 19.9033C140.729 19.9033 139.981 20.416 139.352 21.749C138.458 23.624 137.271 24.4883 135.572 24.4883C132.994 24.4883 131.397 22.2324 131.397 18.4092C131.397 14.6299 133.009 12.374 135.558 12.374C137.184 12.374 138.355 13.209 139.293 15.0107C139.967 16.3145 140.787 16.8418 142.135 16.8418C143.761 16.8418 144.83 15.8164 144.83 14.2344C144.83 13.4873 144.61 12.7109 144.186 11.9785C142.516 9.03418 139.527 7.49609 135.484 7.49609C129.098 7.49609 125.069 11.4512 125.069 18.4238C125.069 25.3965 129.01 29.3662 135.719 29.3662ZM156.183 29.3662C157.911 29.3662 158.893 28.3262 158.893 26.4951V16.7539H159.01L163.214 27.3447C163.624 28.3994 164.342 28.8975 165.455 28.8975C166.554 28.8975 167.228 28.4141 167.652 27.3447L171.856 16.7539H171.974V26.4951C171.974 28.3262 172.955 29.3662 174.684 29.3662C176.412 29.3662 177.394 28.3262 177.394 26.4951V11.5684C177.394 8.96094 175.958 7.49609 173.365 7.49609C171.183 7.49609 170.025 8.36035 169.146 10.6602L165.499 20.1963H165.382L161.72 10.6602C160.841 8.36035 159.684 7.49609 157.501 7.49609C154.908 7.49609 153.473 8.96094 153.473 11.5684V26.4951C153.473 28.3262 154.454 29.3662 156.183 29.3662ZM188.658 6.38281C189.771 6.38281 190.606 5.69434 190.606 4.75684C190.606 4.34668 190.475 3.96582 190.211 3.61426L188.937 1.85645C188.351 1.05078 187.926 0.801758 187.091 0.801758C185.963 0.801758 185.113 1.56348 185.113 2.61816C185.113 3.05762 185.333 3.55566 185.758 4.03906L186.988 5.47461C187.604 6.19238 187.984 6.38281 188.658 6.38281ZM189.654 29.3662C195.235 29.3662 198.971 26.29 198.971 21.4707V11.6562H201.007C203.307 11.6562 204.698 10.3818 204.698 8.14062V5.92871C204.698 4.44922 203.893 3.59961 202.472 3.59961C201.065 3.59961 200.245 4.44922 200.245 5.92871V6.5293C200.245 7.15918 199.864 7.49609 199.264 7.49609H195.865C193.888 7.49609 192.76 8.66797 192.76 10.748V20.7822C192.76 23.0088 191.661 24.2246 189.654 24.2246C187.647 24.2246 186.549 23.0088 186.549 20.7822V10.748C186.549 8.66797 185.421 7.49609 183.443 7.49609C181.466 7.49609 180.338 8.66797 180.338 10.748V21.4707C180.338 26.29 184.073 29.3662 189.654 29.3662ZM210.133 29.3662C211.979 29.3662 213.062 28.2822 213.062 26.29V17.8672H213.18L220.401 27.667C221.28 28.8682 222.115 29.3662 223.302 29.3662C225.147 29.3662 226.158 28.3555 226.158 26.4951V10.5723C226.158 8.58008 225.089 7.49609 223.229 7.49609C221.383 7.49609 220.299 8.58008 220.299 10.5723V18.8193H220.182L213.019 9.19531C212.125 8.00879 211.261 7.49609 210.133 7.49609C208.229 7.49609 207.203 8.49219 207.203 10.3672V26.29C207.203 28.2822 208.272 29.3662 210.133 29.3662ZM239.254 29.3662C245.553 29.3662 249.039 25.499 249.039 20.4746C249.039 18.3945 247.911 17.2227 245.934 17.2227H241.847C240.44 17.2227 239.547 17.9551 239.547 19.2881C239.547 20.6211 240.455 21.3535 241.847 21.3535H243.062L243.033 21.6465C242.857 23.3457 241.422 24.4736 239.4 24.4736C236.676 24.4736 234.903 22.1738 234.903 18.3213C234.903 14.5566 236.456 12.3887 239.093 12.3887C240.587 12.3887 241.598 12.9453 242.594 14.2783C243.355 15.2891 244.278 15.7578 245.494 15.7578C247.076 15.7578 248.16 14.6885 248.16 13.1357C248.16 12.6084 248.043 12.1104 247.735 11.5391C246.49 9.3125 243.297 7.49609 239.063 7.49609C232.545 7.49609 228.575 11.4805 228.575 18.4092C228.575 25.4258 232.545 29.3662 239.254 29.3662Z" fill="#00459B"/>
<path d="M5.86035 27.9014L5.04005 27.3294L5.03898 27.331L5.86035 27.9014ZM9.53711 22.6279V21.6279H9.01527L8.71681 22.056L9.53711 22.6279ZM9.66895 22.6279L10.4725 22.0326L10.1726 21.6279H9.66895V22.6279ZM13.5215 27.8281L12.718 28.4234L12.7189 28.4246L13.5215 27.8281ZM18.2236 24.1953L19.01 23.5775L19.0097 23.5772L18.2236 24.1953ZM13.6973 18.4385H12.6973V18.7845L12.9112 19.0566L13.6973 18.4385ZM13.6973 18.3213L12.9137 17.6999L12.6973 17.9729V18.3213H13.6973ZM18.3555 12.4473L17.5732 11.8243L17.5719 11.8259L18.3555 12.4473ZM13.7266 8.94629L14.5629 9.49447L14.5642 9.49256L13.7266 8.94629ZM10.0205 14.6006V15.6006H10.5607L10.8569 15.1488L10.0205 14.6006ZM9.90332 14.6006L9.06472 15.1453L9.36045 15.6006H9.90332V14.6006ZM6.37305 9.16602L5.53258 9.70789L5.53445 9.71077L6.37305 9.16602ZM1.46582 12.9453L2.2582 12.3353L2.25711 12.3339L1.46582 12.9453ZM5.58203 18.292H6.58203V17.9516L6.37441 17.682L5.58203 18.292ZM5.58203 18.4092L6.38825 19.0008L6.58203 18.7367V18.4092H5.58203ZM1.26074 24.2979L2.06547 24.8915L2.06696 24.8895L1.26074 24.2979ZM3.26758 30.3662C3.97566 30.3662 4.62421 30.2408 5.2249 29.8975C5.81366 29.5611 6.27047 29.064 6.68172 28.4718L5.03898 27.331C4.71781 27.7935 4.46417 28.0287 4.23262 28.1611C4.013 28.2866 3.73137 28.3662 3.26758 28.3662V30.3662ZM6.68065 28.4733L10.3574 23.1999L8.71681 22.056L5.04005 27.3294L6.68065 28.4733ZM9.53711 23.6279H9.66895V21.6279H9.53711V23.6279ZM8.86543 23.2232L12.718 28.4234L14.325 27.2328L10.4725 22.0326L8.86543 23.2232ZM12.7189 28.4246C13.1679 29.0288 13.656 29.5284 14.249 29.8701C14.8569 30.2204 15.5075 30.3662 16.2168 30.3662V28.3662C15.7982 28.3662 15.5039 28.2849 15.2476 28.1372C14.9763 27.9809 14.6807 27.7114 14.3241 27.2316L12.7189 28.4246ZM16.2168 30.3662C17.2991 30.3662 18.2829 30.0022 19.0024 29.311C19.7249 28.617 20.1172 27.6535 20.1172 26.583H18.1172C18.1172 27.1531 17.9162 27.5812 17.6169 27.8687C17.3147 28.159 16.8483 28.3662 16.2168 28.3662V30.3662ZM20.1172 26.583C20.1172 25.4658 19.774 24.5499 19.01 23.5775L17.4373 24.8131C17.9624 25.4814 18.1172 25.9717 18.1172 26.583H20.1172ZM19.0097 23.5772L14.4834 17.8204L12.9112 19.0566L17.4375 24.8134L19.0097 23.5772ZM14.6973 18.4385V18.3213H12.6973V18.4385H14.6973ZM14.4808 18.9426L19.139 13.0686L17.5719 11.8259L12.9137 17.6999L14.4808 18.9426ZM19.1377 13.0702C19.8941 12.1203 20.2197 11.2309 20.2197 10.1328H18.2197C18.2197 10.734 18.0766 11.1922 17.5732 11.8243L19.1377 13.0702ZM20.2197 10.1328C20.2197 7.96244 18.2161 6.49609 16.2021 6.49609V8.49609C17.4108 8.49609 18.2197 9.3442 18.2197 10.1328H20.2197ZM16.2021 6.49609C15.4741 6.49609 14.825 6.63099 14.2395 6.98898C13.6702 7.33705 13.2539 7.84048 12.889 8.40002L14.5642 9.49256C14.8584 9.04136 15.0793 8.81968 15.2827 8.69534C15.4699 8.58092 15.729 8.49609 16.2021 8.49609V6.49609ZM12.8902 8.39811L9.18415 14.0524L10.8569 15.1488L14.5629 9.49447L12.8902 8.39811ZM10.0205 13.6006H9.90332V15.6006H10.0205V13.6006ZM10.7419 14.0558L7.21165 8.62127L5.53445 9.71077L9.06472 15.1453L10.7419 14.0558ZM7.21351 8.62414C6.35213 7.28813 5.17008 6.49609 3.60449 6.49609V8.49609C4.35336 8.49609 4.95842 8.81734 5.53259 9.70789L7.21351 8.62414ZM3.60449 6.49609C1.298 6.49609 -0.515625 8.09941 -0.515625 10.4258H1.48438C1.48438 9.32442 2.27817 8.49609 3.60449 8.49609V6.49609ZM-0.515625 10.4258C-0.515625 11.5394 -0.179164 12.452 0.674535 13.5568L2.25711 12.3339C1.61666 11.5051 1.48438 11.0114 1.48438 10.4258H-0.515625ZM0.673439 13.5553L4.78965 18.902L6.37441 17.682L2.2582 12.3353L0.673439 13.5553ZM4.58203 18.292V18.4092H6.58203V18.292H4.58203ZM4.77582 17.8176L0.454529 23.7062L2.06696 24.8895L6.38825 19.0008L4.77582 17.8176ZM0.456018 23.7042C-0.296213 24.7239 -0.632812 25.6009 -0.632812 26.6562H1.36719C1.36719 26.1295 1.49934 25.6589 2.06547 24.8915L0.456018 23.7042ZM-0.632812 26.6562C-0.632812 28.7926 1.13736 30.3662 3.26758 30.3662V28.3662C2.11655 28.3662 1.36719 27.5667 1.36719 26.6562H-0.632812ZM25.416 30.3662C26.6033 30.3662 27.6691 30.0097 28.4328 29.2116C29.1904 28.42 29.5215 27.3286 29.5215 26.1143H27.5215C27.5215 26.98 27.2886 27.5146 26.9878 27.8289C26.6932 28.1368 26.2063 28.3662 25.416 28.3662V30.3662ZM29.5215 26.1143V10.748H27.5215V26.1143H29.5215ZM29.5215 10.748C29.5215 9.53371 29.1904 8.4423 28.4328 7.65066C27.6691 6.85263 26.6033 6.49609 25.416 6.49609V8.49609C26.2063 8.49609 26.6932 8.7255 26.9878 9.03343C27.2886 9.34774 27.5215 9.88231 27.5215 10.748H29.5215ZM25.416 6.49609C24.2287 6.49609 23.1629 6.85263 22.3992 7.65066C21.6416 8.4423 21.3105 9.53371 21.3105 10.748H23.3105C23.3105 9.88231 23.5434 9.34774 23.8442 9.03343C24.1389 8.7255 24.6258 8.49609 25.416 8.49609V6.49609ZM21.3105 10.748V26.1143H23.3105V10.748H21.3105ZM21.3105 26.1143C21.3105 27.3286 21.6416 28.42 22.3992 29.2116C23.1629 30.0097 24.2287 30.3662 25.416 30.3662V28.3662C24.6258 28.3662 24.1389 28.1368 23.8442 27.8289C23.5434 27.5146 23.3105 26.98 23.3105 26.1143H21.3105ZM37.3105 17.8672V16.8672H36.3105V17.8672H37.3105ZM37.4277 17.8672L38.2328 17.2739L37.933 16.8672H37.4277V17.8672ZM44.6494 27.667L45.4564 27.0765L45.4544 27.0738L44.6494 27.667ZM44.5469 18.8193V19.8193H45.5469V18.8193H44.5469ZM44.4297 18.8193L43.6275 19.4164L43.9274 19.8193H44.4297V18.8193ZM37.2666 9.19531L38.0688 8.59824L38.0654 8.59374L37.2666 9.19531ZM34.3809 30.3662C35.4994 30.3662 36.5205 30.0334 37.2575 29.2695C37.9897 28.5106 38.3105 27.4616 38.3105 26.29H36.3105C36.3105 27.1107 36.0894 27.5998 35.8182 27.8809C35.5517 28.157 35.108 28.3662 34.3809 28.3662V30.3662ZM38.3105 26.29V17.8672H36.3105V26.29H38.3105ZM37.3105 18.8672H37.4277V16.8672H37.3105V18.8672ZM36.6227 18.4604L43.8444 28.2602L45.4544 27.0738L38.2328 17.2739L36.6227 18.4604ZM43.8424 28.2575C44.328 28.9212 44.8515 29.4609 45.4772 29.829C46.1188 30.2063 46.8042 30.3662 47.5498 30.3662V28.3662C47.1089 28.3662 46.7836 28.2771 46.4913 28.1051C46.1832 27.9239 45.8497 27.6139 45.4564 27.0765L43.8424 28.2575ZM47.5498 30.3662C48.6499 30.3662 49.6531 30.0623 50.3786 29.3341C51.1035 28.6064 51.4062 27.6005 51.4062 26.4951H49.4062C49.4062 27.2501 49.2036 27.6797 48.9617 27.9225C48.7204 28.1648 48.2954 28.3662 47.5498 28.3662V30.3662ZM51.4062 26.4951V10.5723H49.4062V26.4951H51.4062ZM51.4062 10.5723C51.4062 9.40421 51.091 8.35456 50.36 7.5941C49.6235 6.82791 48.6006 6.49609 47.4766 6.49609V8.49609C48.2129 8.49609 48.6549 8.70627 48.9181 8.98012C49.1869 9.25969 49.4062 9.74813 49.4062 10.5723H51.4062ZM47.4766 6.49609C46.358 6.49609 45.3369 6.82891 44.5999 7.59279C43.8677 8.35173 43.5469 9.4007 43.5469 10.5723H45.5469C45.5469 9.75164 45.768 9.26253 46.0392 8.98143C46.3057 8.70527 46.7494 8.49609 47.4766 8.49609V6.49609ZM43.5469 10.5723V18.8193H45.5469V10.5723H43.5469ZM44.5469 17.8193H44.4297V19.8193H44.5469V17.8193ZM45.2319 18.2223L38.0688 8.59825L36.4644 9.79238L43.6275 19.4164L45.2319 18.2223ZM38.0654 8.59374C37.5708 7.93689 37.0387 7.40458 36.4197 7.03943C35.7857 6.66551 35.11 6.49609 34.3809 6.49609V8.49609C34.7797 8.49609 35.1 8.58302 35.4036 8.76208C35.722 8.94991 36.0689 9.26721 36.4678 9.79689L38.0654 8.59374ZM34.3809 6.49609C33.2633 6.49609 32.2429 6.78984 31.5028 7.51351C30.759 8.24081 30.4512 9.25245 30.4512 10.3672H32.4512C32.4512 9.60693 32.6561 9.18302 32.901 8.94352C33.1497 8.7004 33.5941 8.49609 34.3809 8.49609V6.49609ZM30.4512 10.3672V26.29H32.4512V10.3672H30.4512ZM30.4512 26.29C30.4512 27.4581 30.7664 28.5077 31.4975 29.2682C32.234 30.0344 33.2569 30.3662 34.3809 30.3662V28.3662C33.6445 28.3662 33.2026 28.156 32.9393 27.8822C32.6706 27.6026 32.4512 27.1142 32.4512 26.29H30.4512ZM78.0918 24.2686L77.1651 23.8928L77.1639 23.8956L78.0918 24.2686ZM72.8184 21.749L73.7211 22.1792L73.7225 22.1763L72.8184 21.749ZM72.7598 15.0107L73.6481 14.5516L73.6469 14.5492L72.7598 15.0107ZM77.6523 11.9785L76.7825 12.4719L76.7873 12.4802L77.6523 11.9785ZM69.1855 30.3662C73.5836 30.3662 77.5947 28.1869 79.0197 24.6415L77.1639 23.8956C76.128 26.4732 73.0199 28.3662 69.1855 28.3662V30.3662ZM79.0185 24.6443C79.28 23.9992 79.4287 23.3152 79.4287 22.6426H77.4287C77.4287 23.0246 77.343 23.4539 77.1651 23.8928L79.0185 24.6443ZM79.4287 22.6426C79.4287 21.5719 79.0481 20.6108 78.3117 19.9219C77.5818 19.2391 76.5886 18.9033 75.499 18.9033V20.9033C76.1819 20.9033 76.6535 21.1095 76.9454 21.3825C77.2307 21.6494 77.4287 22.058 77.4287 22.6426H79.4287ZM75.499 18.9033C74.7126 18.9033 73.9827 19.0597 73.3392 19.5025C72.7091 19.936 72.2689 20.5712 71.9142 21.3218L73.7225 22.1763C73.9977 21.5939 74.246 21.3062 74.4728 21.1501C74.6862 21.0033 74.9817 20.9033 75.499 20.9033V18.9033ZM71.9156 21.3188C71.5143 22.161 71.0868 22.6907 70.6435 23.0124C70.2152 23.3232 69.7062 23.4883 69.0391 23.4883V25.4883C70.0712 25.4883 71.005 25.2212 71.8182 24.6311C72.6163 24.052 73.2289 23.212 73.7211 22.1792L71.9156 21.3188ZM69.0391 23.4883C68.0847 23.4883 67.3454 23.0907 66.807 22.3132C66.2409 21.4956 65.8643 20.2 65.8643 18.4092H63.8643C63.8643 20.4416 64.286 22.1855 65.1627 23.4517C66.0672 24.7579 67.4153 25.4883 69.0391 25.4883V23.4883ZM65.8643 18.4092C65.8643 16.6442 66.243 15.3592 66.8092 14.5457C67.3496 13.7694 68.0874 13.374 69.0244 13.374V11.374C67.4126 11.374 66.0703 12.1065 65.1678 13.403C64.2912 14.6623 63.8643 16.3948 63.8643 18.4092H65.8643ZM69.0244 13.374C69.6522 13.374 70.1451 13.5306 70.5727 13.8331C71.0156 14.1464 71.4504 14.6608 71.8727 15.4723L73.6469 14.5492C73.1316 13.5589 72.5117 12.7549 71.7278 12.2004C70.9286 11.635 70.0226 11.374 69.0244 11.374V13.374ZM71.8714 15.4699C72.2567 16.2154 72.7327 16.8348 73.3865 17.2559C74.0484 17.6822 74.7937 17.8418 75.6016 17.8418V15.8418C75.0617 15.8418 74.723 15.7378 74.4694 15.5744C74.2077 15.4059 73.9366 15.1098 73.6481 14.5516L71.8714 15.4699ZM75.6016 17.8418C76.6263 17.8418 77.5649 17.5153 78.2534 16.8509C78.9454 16.1831 79.2969 15.2581 79.2969 14.2344H77.2969C77.2969 14.7927 77.1136 15.1714 76.8646 15.4118C76.6119 15.6556 76.2028 15.8418 75.6016 15.8418V17.8418ZM79.2969 14.2344C79.2969 13.2911 79.02 12.3434 78.5174 11.4768L76.7873 12.4802C77.1343 13.0785 77.2969 13.6835 77.2969 14.2344H79.2969ZM78.5222 11.4852C76.637 8.16125 73.2707 6.49609 68.9512 6.49609V8.49609C72.7176 8.49609 75.3279 9.90711 76.7825 12.4719L78.5222 11.4852ZM68.9512 6.49609C65.5489 6.49609 62.6636 7.55431 60.631 9.64878C58.6014 11.7401 57.5361 14.7467 57.5361 18.4238H59.5361C59.5361 15.1283 60.485 12.671 62.0663 11.0416C63.6445 9.41542 65.9668 8.49609 68.9512 8.49609V6.49609ZM57.5361 18.4238C57.5361 22.0952 58.5763 25.1099 60.6302 27.2091C62.6868 29.3112 65.6337 30.3662 69.1855 30.3662V28.3662C66.0285 28.3662 63.6506 27.4364 62.0598 25.8104C60.4661 24.1816 59.5361 21.7252 59.5361 18.4238H57.5361ZM87.4375 20.8262V19.8262H86.4375V20.8262H87.4375ZM94.8789 20.8262H95.8789V19.8262H94.8789V20.8262ZM94.8789 15.8896V16.8896H95.8789V15.8896H94.8789ZM87.4375 15.8896H86.4375V16.8896H87.4375V15.8896ZM84.332 30.3662C85.5193 30.3662 86.5852 30.0097 87.3488 29.2116C88.1064 28.42 88.4375 27.3286 88.4375 26.1143H86.4375C86.4375 26.98 86.2046 27.5146 85.9039 27.8289C85.6092 28.1368 85.1223 28.3662 84.332 28.3662V30.3662ZM88.4375 26.1143V20.8262H86.4375V26.1143H88.4375ZM87.4375 21.8262H94.8789V19.8262H87.4375V21.8262ZM93.8789 20.8262V26.1143H95.8789V20.8262H93.8789ZM93.8789 26.1143C93.8789 27.3286 94.21 28.42 94.9676 29.2116C95.7313 30.0097 96.7971 30.3662 97.9844 30.3662V28.3662C97.1941 28.3662 96.7072 28.1368 96.4126 27.8289C96.1118 27.5146 95.8789 26.98 95.8789 26.1143H93.8789ZM97.9844 30.3662C99.1717 30.3662 100.237 30.0097 101.001 29.2116C101.759 28.42 102.09 27.3286 102.09 26.1143H100.09C100.09 26.98 99.857 27.5146 99.5562 27.8289C99.2615 28.1368 98.7746 28.3662 97.9844 28.3662V30.3662ZM102.09 26.1143V10.748H100.09V26.1143H102.09ZM102.09 10.748C102.09 9.53371 101.759 8.4423 101.001 7.65066C100.237 6.85263 99.1717 6.49609 97.9844 6.49609V8.49609C98.7746 8.49609 99.2615 8.7255 99.5562 9.03343C99.857 9.34774 100.09 9.88231 100.09 10.748H102.09ZM97.9844 6.49609C96.7971 6.49609 95.7313 6.85263 94.9676 7.65066C94.21 8.4423 93.8789 9.53371 93.8789 10.748H95.8789C95.8789 9.88231 96.1118 9.34774 96.4126 9.03343C96.7072 8.7255 97.1941 8.49609 97.9844 8.49609V6.49609ZM93.8789 10.748V15.8896H95.8789V10.748H93.8789ZM94.8789 14.8896H87.4375V16.8896H94.8789V14.8896ZM88.4375 15.8896V10.748H86.4375V15.8896H88.4375ZM88.4375 10.748C88.4375 9.53371 88.1064 8.4423 87.3488 7.65066C86.5852 6.85263 85.5193 6.49609 84.332 6.49609V8.49609C85.1223 8.49609 85.6092 8.7255 85.9039 9.03343C86.2046 9.34774 86.4375 9.88231 86.4375 10.748H88.4375ZM84.332 6.49609C83.1447 6.49609 82.0789 6.85263 81.3152 7.65066C80.5577 8.4423 80.2266 9.53371 80.2266 10.748H82.2266C82.2266 9.88231 82.4594 9.34774 82.7602 9.03343C83.0549 8.7255 83.5418 8.49609 84.332 8.49609V6.49609ZM80.2266 10.748V26.1143H82.2266V10.748H80.2266ZM80.2266 26.1143C80.2266 27.3286 80.5577 28.42 81.3152 29.2116C82.0789 30.0097 83.1447 30.3662 84.332 30.3662V28.3662C83.5418 28.3662 83.0549 28.1368 82.7602 27.8289C82.4594 27.5146 82.2266 26.98 82.2266 26.1143H80.2266ZM117.145 4.1709L116.393 3.51073L116.385 3.52011L117.145 4.1709ZM113.966 1.98828L113.157 1.40011L113.156 1.40131L113.966 1.98828ZM112.691 3.74609L113.491 4.34609L113.496 4.33962L113.501 4.33306L112.691 3.74609ZM114.244 7.51465C114.684 7.51465 115.126 7.45092 115.573 7.21119C115.993 6.98628 116.338 6.6479 116.673 6.25724L115.155 4.95565C114.874 5.28277 114.722 5.39848 114.629 5.44823C114.564 5.48316 114.478 5.51465 114.244 5.51465V7.51465ZM116.673 6.25724L117.904 4.82169L116.385 3.52011L115.155 4.95565L116.673 6.25724ZM117.896 4.83101C118.417 4.23774 118.789 3.51425 118.789 2.75H116.789C116.789 2.86465 116.722 3.13726 116.393 3.51078L117.896 4.83101ZM118.789 2.75C118.789 1.05825 117.403 -0.0664062 115.812 -0.0664062V1.93359C116.476 1.93359 116.789 2.33238 116.789 2.75H118.789ZM115.812 -0.0664062C115.291 -0.0664062 114.785 0.0116746 114.297 0.291605C113.832 0.559087 113.479 0.957195 113.157 1.40011L114.775 2.57645C115.038 2.2137 115.191 2.08447 115.293 2.02602C115.373 1.98002 115.497 1.93359 115.812 1.93359V-0.0664062ZM113.156 1.40131L111.882 3.15913L113.501 4.33306L114.775 2.57525L113.156 1.40131ZM111.891 3.14609C111.508 3.65761 111.296 4.24627 111.296 4.88867H113.296C113.296 4.71076 113.348 4.53771 113.491 4.34609L111.891 3.14609ZM111.296 4.88867C111.296 6.5432 112.759 7.51465 114.244 7.51465V5.51465C113.89 5.51465 113.637 5.40531 113.492 5.28434C113.355 5.17087 113.296 5.03884 113.296 4.88867H111.296ZM113.336 30.3662C116.303 30.3662 118.878 29.5482 120.731 27.9912C122.6 26.4196 123.652 24.1596 123.652 21.4707H121.652C121.652 23.6011 120.837 25.2888 119.444 26.4602C118.033 27.6462 115.95 28.3662 113.336 28.3662V30.3662ZM123.652 21.4707V10.748H121.652V21.4707H123.652ZM123.652 10.748C123.652 9.53371 123.321 8.4423 122.564 7.65066C121.8 6.85263 120.734 6.49609 119.547 6.49609V8.49609C120.337 8.49609 120.824 8.7255 121.119 9.03343C121.419 9.34774 121.652 9.88231 121.652 10.748H123.652ZM119.547 6.49609C118.36 6.49609 117.294 6.85263 116.53 7.65066C115.773 8.4423 115.441 9.53371 115.441 10.748H117.441C117.441 9.88231 117.674 9.34774 117.975 9.03343C118.27 8.7255 118.757 8.49609 119.547 8.49609V6.49609ZM115.441 10.748V20.7822H117.441V10.748H115.441ZM115.441 20.7822C115.441 21.7442 115.204 22.3306 114.899 22.6684C114.609 22.9897 114.133 23.2246 113.336 23.2246V25.2246C114.546 25.2246 115.623 24.8516 116.384 24.0084C117.13 23.1817 117.441 22.0468 117.441 20.7822H115.441ZM113.336 23.2246C112.539 23.2246 112.063 22.9897 111.773 22.6684C111.468 22.3306 111.23 21.7442 111.23 20.7822H109.23C109.23 22.0468 109.542 23.1817 110.288 24.0084C111.049 24.8516 112.126 25.2246 113.336 25.2246V23.2246ZM111.23 20.7822V10.748H109.23V20.7822H111.23ZM111.23 10.748C111.23 9.53371 110.899 8.4423 110.142 7.65066C109.378 6.85263 108.312 6.49609 107.125 6.49609V8.49609C107.915 8.49609 108.402 8.7255 108.697 9.03343C108.998 9.34774 109.23 9.88231 109.23 10.748H111.23ZM107.125 6.49609C105.938 6.49609 104.872 6.85263 104.108 7.65066C103.351 8.4423 103.02 9.53371 103.02 10.748H105.02C105.02 9.88231 105.252 9.34774 105.553 9.03343C105.848 8.7255 106.335 8.49609 107.125 8.49609V6.49609ZM103.02 10.748V21.4707H105.02V10.748H103.02ZM103.02 21.4707C103.02 24.1596 104.072 26.4196 105.941 27.9912C107.794 29.5482 110.369 30.3662 113.336 30.3662V28.3662C110.722 28.3662 108.639 27.6462 107.228 26.4602C105.835 25.2888 105.02 23.6011 105.02 21.4707H103.02ZM144.625 24.2686L143.698 23.8928L143.697 23.8956L144.625 24.2686ZM139.352 21.749L140.254 22.1792L140.256 22.1763L139.352 21.749ZM139.293 15.0107L140.181 14.5516L140.18 14.5492L139.293 15.0107ZM144.186 11.9785L143.316 12.4719L143.321 12.4802L144.186 11.9785ZM135.719 30.3662C140.117 30.3662 144.128 28.1869 145.553 24.6415L143.697 23.8956C142.661 26.4732 139.553 28.3662 135.719 28.3662V30.3662ZM145.552 24.6443C145.813 23.9992 145.962 23.3152 145.962 22.6426H143.962C143.962 23.0246 143.876 23.4539 143.698 23.8928L145.552 24.6443ZM145.962 22.6426C145.962 21.5719 145.581 20.6108 144.845 19.9219C144.115 19.2391 143.122 18.9033 142.032 18.9033V20.9033C142.715 20.9033 143.187 21.1095 143.479 21.3825C143.764 21.6494 143.962 22.058 143.962 22.6426H145.962ZM142.032 18.9033C141.246 18.9033 140.516 19.0597 139.872 19.5025C139.242 19.936 138.802 20.5712 138.447 21.3218L140.256 22.1763C140.531 21.5939 140.779 21.3062 141.006 21.1501C141.219 21.0033 141.515 20.9033 142.032 20.9033V18.9033ZM138.449 21.3188C138.047 22.161 137.62 22.6907 137.177 23.0124C136.748 23.3232 136.239 23.4883 135.572 23.4883V25.4883C136.604 25.4883 137.538 25.2212 138.351 24.6311C139.149 24.052 139.762 23.212 140.254 22.1792L138.449 21.3188ZM135.572 23.4883C134.618 23.4883 133.879 23.0907 133.34 22.3132C132.774 21.4956 132.397 20.2 132.397 18.4092H130.397C130.397 20.4416 130.819 22.1855 131.696 23.4517C132.6 24.7579 133.949 25.4883 135.572 25.4883V23.4883ZM132.397 18.4092C132.397 16.6442 132.776 15.3592 133.342 14.5457C133.883 13.7694 134.621 13.374 135.558 13.374V11.374C133.946 11.374 132.604 12.1065 131.701 13.403C130.824 14.6623 130.397 16.3948 130.397 18.4092H132.397ZM135.558 13.374C136.185 13.374 136.678 13.5306 137.106 13.8331C137.549 14.1464 137.984 14.6608 138.406 15.4723L140.18 14.5492C139.665 13.5589 139.045 12.7549 138.261 12.2004C137.462 11.635 136.556 11.374 135.558 11.374V13.374ZM138.405 15.4699C138.79 16.2154 139.266 16.8348 139.92 17.2559C140.582 17.6822 141.327 17.8418 142.135 17.8418V15.8418C141.595 15.8418 141.256 15.7378 141.003 15.5744C140.741 15.4059 140.47 15.1098 140.181 14.5516L138.405 15.4699ZM142.135 17.8418C143.159 17.8418 144.098 17.5153 144.787 16.8509C145.479 16.1831 145.83 15.2581 145.83 14.2344H143.83C143.83 14.7927 143.647 15.1714 143.398 15.4118C143.145 15.6556 142.736 15.8418 142.135 15.8418V17.8418ZM145.83 14.2344C145.83 13.2911 145.553 12.3434 145.051 11.4768L143.321 12.4802C143.667 13.0785 143.83 13.6835 143.83 14.2344H145.83ZM145.055 11.4852C143.17 8.16125 139.804 6.49609 135.484 6.49609V8.49609C139.251 8.49609 141.861 9.90711 143.316 12.4719L145.055 11.4852ZM135.484 6.49609C132.082 6.49609 129.197 7.55431 127.164 9.64878C125.135 11.7401 124.069 14.7467 124.069 18.4238H126.069C126.069 15.1283 127.018 12.671 128.599 11.0416C130.178 9.41542 132.5 8.49609 135.484 8.49609V6.49609ZM124.069 18.4238C124.069 22.0952 125.11 25.1099 127.163 27.2091C129.22 29.3112 132.167 30.3662 135.719 30.3662V28.3662C132.562 28.3662 130.184 27.4364 128.593 25.8104C126.999 24.1816 126.069 21.7252 126.069 18.4238H124.069ZM158.893 16.7539V15.7539H157.893V16.7539H158.893ZM159.01 16.7539L159.939 16.385L159.689 15.7539H159.01V16.7539ZM163.214 27.3447L164.146 26.9823L164.143 26.9758L163.214 27.3447ZM167.652 27.3447L168.582 27.7139L168.582 27.7137L167.652 27.3447ZM171.856 16.7539V15.7539H171.177L170.927 16.385L171.856 16.7539ZM171.974 16.7539H172.974V15.7539H171.974V16.7539ZM169.146 10.6602L170.08 11.0174L170.081 11.0171L169.146 10.6602ZM165.499 20.1963V21.1963H166.187L166.433 20.5535L165.499 20.1963ZM165.382 20.1963L164.448 20.5548L164.695 21.1963H165.382V20.1963ZM161.72 10.6602L160.786 11.0171L160.786 11.0187L161.72 10.6602ZM156.183 30.3662C157.25 30.3662 158.218 30.0398 158.913 29.3037C159.6 28.576 159.893 27.5819 159.893 26.4951H157.893C157.893 27.2394 157.695 27.6808 157.459 27.9309C157.23 28.1726 156.844 28.3662 156.183 28.3662V30.3662ZM159.893 26.4951V16.7539H157.893V26.4951H159.893ZM158.893 17.7539H159.01V15.7539H158.893V17.7539ZM158.08 17.1229L162.284 27.7137L164.143 26.9758L159.939 16.385L158.08 17.1229ZM162.282 27.7072C162.539 28.3691 162.927 28.9408 163.501 29.3385C164.077 29.7373 164.747 29.8975 165.455 29.8975V27.8975C165.05 27.8975 164.805 27.8086 164.64 27.6947C164.475 27.5797 164.299 27.375 164.146 26.9823L162.282 27.7072ZM165.455 29.8975C166.154 29.8975 166.816 29.7416 167.385 29.3378C167.948 28.9382 168.323 28.366 168.582 27.7139L166.723 26.9755C166.557 27.3928 166.382 27.597 166.228 27.7064C166.08 27.8116 165.854 27.8975 165.455 27.8975V29.8975ZM168.582 27.7137L172.786 17.1229L170.927 16.385L166.723 26.9758L168.582 27.7137ZM171.856 17.7539H171.974V15.7539H171.856V17.7539ZM170.974 16.7539V26.4951H172.974V16.7539H170.974ZM170.974 26.4951C170.974 27.5819 171.266 28.576 171.953 29.3037C172.648 30.0398 173.616 30.3662 174.684 30.3662V28.3662C174.022 28.3662 173.636 28.1726 173.408 27.9309C173.172 27.6808 172.974 27.2394 172.974 26.4951H170.974ZM174.684 30.3662C175.751 30.3662 176.719 30.0398 177.414 29.3037C178.101 28.576 178.394 27.5819 178.394 26.4951H176.394C176.394 27.2394 176.196 27.6808 175.96 27.9309C175.731 28.1726 175.345 28.3662 174.684 28.3662V30.3662ZM178.394 26.4951V11.5684H176.394V26.4951H178.394ZM178.394 11.5684C178.394 10.0863 177.983 8.78395 177.063 7.85206C176.142 6.91812 174.847 6.49609 173.365 6.49609V8.49609C174.476 8.49609 175.196 8.80649 175.64 9.25683C176.086 9.70921 176.394 10.443 176.394 11.5684H178.394ZM173.365 6.49609C172.142 6.49609 171.07 6.73942 170.167 7.41544C169.281 8.07971 168.684 9.06944 168.212 10.3032L170.081 11.0171C170.488 9.95106 170.909 9.35876 171.367 9.01596C171.808 8.6849 172.406 8.49609 173.365 8.49609V6.49609ZM168.212 10.3029L164.565 19.839L166.433 20.5535L170.08 11.0174L168.212 10.3029ZM165.499 19.1963H165.382V21.1963H165.499V19.1963ZM166.315 19.8378L162.653 10.3017L160.786 11.0187L164.448 20.5548L166.315 19.8378ZM162.654 10.3032C162.182 9.06944 161.585 8.07971 160.699 7.41544C159.797 6.73942 158.724 6.49609 157.501 6.49609V8.49609C158.46 8.49609 159.058 8.6849 159.5 9.01596C159.957 9.35876 160.378 9.95106 160.786 11.0171L162.654 10.3032ZM157.501 6.49609C156.019 6.49609 154.724 6.91812 153.803 7.85206C152.883 8.78395 152.473 10.0863 152.473 11.5684H154.473C154.473 10.443 154.78 9.70921 155.226 9.25683C155.671 8.80649 156.39 8.49609 157.501 8.49609V6.49609ZM152.473 11.5684V26.4951H154.473V11.5684H152.473ZM152.473 26.4951C152.473 27.5819 152.765 28.576 153.452 29.3037C154.147 30.0398 155.115 30.3662 156.183 30.3662V28.3662C155.521 28.3662 155.135 28.1726 154.907 27.9309C154.671 27.6808 154.473 27.2394 154.473 26.4951H152.473ZM190.211 3.61426L189.401 4.20123L189.406 4.20778L189.411 4.21426L190.211 3.61426ZM188.937 1.85645L189.746 1.26948L189.745 1.26827L188.937 1.85645ZM185.758 4.03906L186.517 3.38822L186.509 3.37895L185.758 4.03906ZM198.971 11.6562V10.6562H197.971V11.6562H198.971ZM188.658 7.38281C190.143 7.38281 191.606 6.41136 191.606 4.75684H189.606C189.606 4.907 189.547 5.03904 189.41 5.1525C189.265 5.27347 189.013 5.38281 188.658 5.38281V7.38281ZM191.606 4.75684C191.606 4.11443 191.395 3.52577 191.011 3.01426L189.411 4.21426C189.555 4.40587 189.606 4.57893 189.606 4.75684H191.606ZM191.021 3.02729L189.746 1.26948L188.127 2.44341L189.401 4.20123L191.021 3.02729ZM189.745 1.26827C189.423 0.825359 189.071 0.427251 188.605 0.159769C188.117 -0.120161 187.611 -0.198242 187.091 -0.198242V1.80176C187.406 1.80176 187.529 1.84819 187.609 1.89419C187.711 1.95263 187.864 2.08187 188.128 2.44462L189.745 1.26827ZM187.091 -0.198242C185.499 -0.198242 184.113 0.92641 184.113 2.61816H186.113C186.113 2.20054 186.426 1.80176 187.091 1.80176V-0.198242ZM184.113 2.61816C184.113 3.38242 184.485 4.1059 185.007 4.69918L186.509 3.37895C186.181 3.00542 186.113 2.73282 186.113 2.61816H184.113ZM184.999 4.68985L186.229 6.1254L187.748 4.82382L186.517 3.38827L184.999 4.68985ZM186.229 6.1254C186.564 6.51606 186.909 6.85445 187.329 7.07936C187.777 7.31908 188.218 7.38281 188.658 7.38281V5.38281C188.425 5.38281 188.339 5.35133 188.273 5.3164C188.181 5.26665 188.028 5.15093 187.748 4.82382L186.229 6.1254ZM189.654 30.3662C192.621 30.3662 195.197 29.5482 197.049 27.9912C198.918 26.4196 199.971 24.1596 199.971 21.4707H197.971C197.971 23.6011 197.155 25.2888 195.762 26.4602C194.351 27.6462 192.268 28.3662 189.654 28.3662V30.3662ZM199.971 21.4707V11.6562H197.971V21.4707H199.971ZM198.971 12.6562H201.007V10.6562H198.971V12.6562ZM201.007 12.6562C202.336 12.6562 203.531 12.2861 204.401 11.4667C205.279 10.6392 205.698 9.47294 205.698 8.14062H203.698C203.698 9.04952 203.422 9.64103 203.029 10.0111C202.628 10.3891 201.978 10.6562 201.007 10.6562V12.6562ZM205.698 8.14062V5.92871H203.698V8.14062H205.698ZM205.698 5.92871C205.698 5.01375 205.447 4.15426 204.841 3.51911C204.229 2.8771 203.383 2.59961 202.472 2.59961V4.59961C202.981 4.59961 203.249 4.74692 203.394 4.89959C203.546 5.05912 203.698 5.36418 203.698 5.92871H205.698ZM202.472 2.59961C201.565 2.59961 200.722 2.87844 200.109 3.51737C199.502 4.15049 199.245 5.00911 199.245 5.92871H201.245C201.245 5.36881 201.398 5.06289 201.553 4.90133C201.702 4.74558 201.972 4.59961 202.472 4.59961V2.59961ZM199.245 5.92871V6.5293H201.245V5.92871H199.245ZM199.245 6.5293C199.245 6.58689 199.236 6.60434 199.24 6.59477C199.242 6.58985 199.246 6.57966 199.255 6.56643C199.264 6.55308 199.275 6.53928 199.288 6.52643C199.302 6.51362 199.315 6.50411 199.326 6.49753C199.337 6.49105 199.344 6.48854 199.344 6.48822C199.346 6.48783 199.322 6.49609 199.264 6.49609V8.49609C199.746 8.49609 200.266 8.35875 200.671 7.97137C201.083 7.57731 201.245 7.04889 201.245 6.5293H199.245ZM199.264 6.49609H195.865V8.49609H199.264V6.49609ZM195.865 6.49609C194.678 6.49609 193.612 6.85263 192.848 7.65066C192.091 8.4423 191.76 9.53371 191.76 10.748H193.76C193.76 9.88231 193.993 9.34774 194.293 9.03343C194.588 8.7255 195.075 8.49609 195.865 8.49609V6.49609ZM191.76 10.748V20.7822H193.76V10.748H191.76ZM191.76 20.7822C191.76 21.7442 191.522 22.3306 191.217 22.6684C190.927 22.9897 190.451 23.2246 189.654 23.2246V25.2246C190.864 25.2246 191.941 24.8516 192.702 24.0084C193.448 23.1817 193.76 22.0468 193.76 20.7822H191.76ZM189.654 23.2246C188.857 23.2246 188.381 22.9897 188.091 22.6684C187.786 22.3306 187.549 21.7442 187.549 20.7822H185.549C185.549 22.0468 185.861 23.1817 186.607 24.0084C187.368 24.8516 188.444 25.2246 189.654 25.2246V23.2246ZM187.549 20.7822V10.748H185.549V20.7822H187.549ZM187.549 10.748C187.549 9.53371 187.218 8.4423 186.46 7.65066C185.696 6.85263 184.631 6.49609 183.443 6.49609V8.49609C184.234 8.49609 184.721 8.7255 185.015 9.03343C185.316 9.34774 185.549 9.88231 185.549 10.748H187.549ZM183.443 6.49609C182.256 6.49609 181.19 6.85263 180.427 7.65066C179.669 8.4423 179.338 9.53371 179.338 10.748H181.338C181.338 9.88231 181.571 9.34774 181.872 9.03343C182.166 8.7255 182.653 8.49609 183.443 8.49609V6.49609ZM179.338 10.748V21.4707H181.338V10.748H179.338ZM179.338 21.4707C179.338 24.1596 180.39 26.4196 182.26 27.9912C184.112 29.5482 186.687 30.3662 189.654 30.3662V28.3662C187.04 28.3662 184.957 27.6462 183.547 26.4602C182.153 25.2888 181.338 23.6011 181.338 21.4707H179.338ZM213.062 17.8672V16.8672H212.062V17.8672H213.062ZM213.18 17.8672L213.985 17.2739L213.685 16.8672H213.18V17.8672ZM220.401 27.667L221.208 27.0765L221.206 27.0738L220.401 27.667ZM220.299 18.8193V19.8193H221.299V18.8193H220.299ZM220.182 18.8193L219.379 19.4164L219.679 19.8193H220.182V18.8193ZM213.019 9.19531L213.821 8.59824L213.817 8.59374L213.019 9.19531ZM210.133 30.3662C211.251 30.3662 212.272 30.0334 213.009 29.2695C213.742 28.5106 214.062 27.4616 214.062 26.29H212.062C212.062 27.1107 211.841 27.5998 211.57 27.8809C211.304 28.157 210.86 28.3662 210.133 28.3662V30.3662ZM214.062 26.29V17.8672H212.062V26.29H214.062ZM213.062 18.8672H213.18V16.8672H213.062V18.8672ZM212.375 18.4604L219.596 28.2602L221.206 27.0738L213.985 17.2739L212.375 18.4604ZM219.594 28.2575C220.08 28.9212 220.603 29.4609 221.229 29.829C221.871 30.2063 222.556 30.3662 223.302 30.3662V28.3662C222.861 28.3662 222.536 28.2771 222.243 28.1051C221.935 27.9239 221.602 27.6139 221.208 27.0765L219.594 28.2575ZM223.302 30.3662C224.402 30.3662 225.405 30.0623 226.131 29.3341C226.855 28.6064 227.158 27.6005 227.158 26.4951H225.158C225.158 27.2501 224.956 27.6797 224.714 27.9225C224.472 28.1648 224.047 28.3662 223.302 28.3662V30.3662ZM227.158 26.4951V10.5723H225.158V26.4951H227.158ZM227.158 10.5723C227.158 9.40421 226.843 8.35456 226.112 7.5941C225.375 6.82791 224.353 6.49609 223.229 6.49609V8.49609C223.965 8.49609 224.407 8.70627 224.67 8.98012C224.939 9.25969 225.158 9.74813 225.158 10.5723H227.158ZM223.229 6.49609C222.11 6.49609 221.089 6.82891 220.352 7.59279C219.62 8.35173 219.299 9.4007 219.299 10.5723H221.299C221.299 9.75164 221.52 9.26253 221.791 8.98143C222.058 8.70527 222.501 8.49609 223.229 8.49609V6.49609ZM219.299 10.5723V18.8193H221.299V10.5723H219.299ZM220.299 17.8193H220.182V19.8193H220.299V17.8193ZM220.984 18.2223L213.821 8.59825L212.216 9.79238L219.379 19.4164L220.984 18.2223ZM213.817 8.59374C213.323 7.93689 212.791 7.40458 212.172 7.03943C211.538 6.66551 210.862 6.49609 210.133 6.49609V8.49609C210.532 8.49609 210.852 8.58302 211.156 8.76208C211.474 8.94991 211.821 9.26721 212.22 9.79689L213.817 8.59374ZM210.133 6.49609C209.015 6.49609 207.995 6.78984 207.255 7.51351C206.511 8.24081 206.203 9.25245 206.203 10.3672H208.203C208.203 9.60693 208.408 9.18302 208.653 8.94352C208.902 8.7004 209.346 8.49609 210.133 8.49609V6.49609ZM206.203 10.3672V26.29H208.203V10.3672H206.203ZM206.203 26.29C206.203 27.4581 206.518 28.5077 207.249 29.2682C207.986 30.0344 209.009 30.3662 210.133 30.3662V28.3662C209.396 28.3662 208.955 28.156 208.691 27.8822C208.423 27.6026 208.203 27.1142 208.203 26.29H206.203ZM243.062 21.3535L244.058 21.453L244.167 20.3535H243.062V21.3535ZM243.033 21.6465L244.028 21.7494L244.028 21.746L243.033 21.6465ZM242.594 14.2783L241.793 14.8769L241.795 14.8802L242.594 14.2783ZM247.735 11.5391L248.616 11.065L248.612 11.0579L248.608 11.051L247.735 11.5391ZM239.254 30.3662C242.611 30.3662 245.323 29.3318 247.202 27.5255C249.081 25.7187 250.039 23.2232 250.039 20.4746H248.039C248.039 22.7505 247.254 24.7007 245.816 26.0837C244.377 27.467 242.196 28.3662 239.254 28.3662V30.3662ZM250.039 20.4746C250.039 19.2603 249.708 18.1689 248.95 17.3772C248.187 16.5792 247.121 16.2227 245.934 16.2227V18.2227C246.724 18.2227 247.211 18.4521 247.505 18.76C247.806 19.0743 248.039 19.6089 248.039 20.4746H250.039ZM245.934 16.2227H241.847V18.2227H245.934V16.2227ZM241.847 16.2227C240.98 16.2227 240.144 16.4485 239.51 17.0033C238.858 17.5746 238.547 18.3852 238.547 19.2881H240.547C240.547 18.8579 240.682 18.6358 240.828 18.5076C240.993 18.3631 241.307 18.2227 241.847 18.2227V16.2227ZM238.547 19.2881C238.547 20.1959 238.865 21.0055 239.518 21.5743C240.151 22.1266 240.985 22.3535 241.847 22.3535V20.3535C241.316 20.3535 241.001 20.2142 240.832 20.067C240.682 19.9364 240.547 19.7133 240.547 19.2881H238.547ZM241.847 22.3535H243.062V20.3535H241.847V22.3535ZM242.067 21.254L242.038 21.547L244.028 21.746L244.058 21.453L242.067 21.254ZM242.039 21.5436C241.928 22.611 241.042 23.4736 239.4 23.4736V25.4736C241.802 25.4736 243.787 24.0804 244.028 21.7494L242.039 21.5436ZM239.4 23.4736C238.353 23.4736 237.527 23.0475 236.933 22.2464C236.316 21.4145 235.903 20.1088 235.903 18.3213H233.903C233.903 20.3864 234.377 22.1568 235.327 23.4379C236.3 24.7499 237.723 25.4736 239.4 25.4736V23.4736ZM235.903 18.3213C235.903 16.5565 236.27 15.3043 236.825 14.5215C237.349 13.7825 238.087 13.3887 239.093 13.3887V11.3887C237.461 11.3887 236.105 12.0788 235.193 13.3649C234.313 14.6074 233.903 16.3215 233.903 18.3213H235.903ZM239.093 13.3887C239.709 13.3887 240.164 13.5015 240.553 13.7127C240.951 13.9285 241.35 14.2847 241.793 14.8769L243.395 13.6797C242.841 12.939 242.237 12.3503 241.507 11.9545C240.768 11.5542 239.971 11.3887 239.093 11.3887V13.3887ZM241.795 14.8802C242.738 16.1311 243.951 16.7578 245.494 16.7578V14.7578C244.605 14.7578 243.973 14.447 243.392 13.6765L241.795 14.8802ZM245.494 16.7578C246.515 16.7578 247.444 16.4089 248.122 15.7417C248.801 15.0734 249.16 14.1518 249.16 13.1357H247.16C247.16 13.6724 246.977 14.0619 246.719 14.3164C246.459 14.5721 246.055 14.7578 245.494 14.7578V16.7578ZM249.16 13.1357C249.16 12.4345 248.998 11.7743 248.616 11.065L246.855 12.0132C247.088 12.4464 247.16 12.7823 247.16 13.1357H249.16ZM248.608 11.051C247.135 8.41751 243.541 6.49609 239.063 6.49609V8.49609C243.052 8.49609 245.845 10.2075 246.863 12.0271L248.608 11.051ZM239.063 6.49609C235.598 6.49609 232.693 7.55983 230.657 9.65793C228.625 11.7525 227.575 14.7564 227.575 18.4092H229.575C229.575 15.1333 230.511 12.6807 232.092 11.0508C233.671 9.42455 236.01 8.49609 239.063 8.49609V6.49609ZM227.575 18.4092C227.575 22.1029 228.623 25.1224 230.686 27.22C232.75 29.3198 235.704 30.3662 239.254 30.3662V28.3662C236.095 28.3662 233.709 27.4424 232.112 25.8178C230.512 24.1911 229.575 21.732 229.575 18.4092H227.575Z" fill="url(#paint0_linear_2626_2398)"/>
<defs>
<linearGradient id="paint0_linear_2626_2398" x1="33.994" y1="-19.6363" x2="249.677" y2="-3.0824" gradientUnits="userSpaceOnUse">
<stop stop-color="#D3E7FF"/>
<stop offset="1" stop-color="white"/>
</linearGradient>
</defs>
</svg>
