<svg width="151" height="42" viewBox="0 0 151 42" fill="none" xmlns="http://www.w3.org/2000/svg">
<path d="M3.80859 34.3662C5.78613 34.3662 6.91406 33.1943 6.91406 31.1143V25.8262H14.3555V31.1143C14.3555 33.1943 15.4834 34.3662 17.4609 34.3662C19.4385 34.3662 20.5664 33.1943 20.5664 31.1143V15.748C20.5664 13.668 19.4385 12.4961 17.4609 12.4961C15.4834 12.4961 14.3555 13.668 14.3555 15.748V20.8896H6.91406V15.748C6.91406 13.668 5.78613 12.4961 3.80859 12.4961C1.83105 12.4961 0.703125 13.668 0.703125 15.748V31.1143C0.703125 33.1943 1.83105 34.3662 3.80859 34.3662ZM34.4971 5.93359C35.2002 5.93359 35.5518 5.75781 36.0938 5.11328L37.1191 3.89746C37.5 3.44336 37.6904 3.01855 37.6904 2.6084C37.6904 1.6416 36.9434 0.967773 35.8594 0.967773C35.127 0.967773 34.6143 1.27539 34.0283 2.08105L33.0762 3.41406C32.8418 3.75098 32.7393 4.05859 32.7393 4.46875C32.7393 5.28906 33.5156 5.93359 34.4971 5.93359ZM27.5684 11.9541C28.1982 11.9541 28.667 11.6025 29.0625 11.1191L30.8789 8.92188H30.9961L32.8125 11.1191C33.208 11.6025 33.6768 11.9541 34.3066 11.9541C35.1855 11.9541 35.874 11.3682 35.874 10.4893C35.874 10.0352 35.6836 9.625 35.376 9.28809L33.7793 7.55957C33.0469 6.76855 32.2119 6.25586 30.9375 6.25586C29.6631 6.25586 28.8281 6.76855 28.0957 7.55957L26.499 9.28809C26.1914 9.625 26.001 10.0352 26.001 10.4893C26.001 11.3682 26.6895 11.9541 27.5684 11.9541ZM26.6016 34H35.9619C37.6318 34 38.7012 33.1064 38.7012 31.5244C38.7012 29.9424 37.6025 29.0488 35.9619 29.0488H29.707V25.665H35.7129C37.2217 25.665 38.1592 24.8594 38.1592 23.4385C38.1592 22.0176 37.1924 21.2119 35.7129 21.2119H29.707V17.8135H35.9619C37.6025 17.8135 38.7012 16.9199 38.7012 15.3379C38.7012 13.7559 37.6318 12.8623 35.9619 12.8623H26.6016C24.624 12.8623 23.4961 14.0342 23.4961 16.1143V30.748C23.4961 32.8281 24.624 34 26.6016 34ZM49.1748 34.3662C51.1523 34.3662 52.2803 33.1943 52.2803 31.1143V17.8135H55.4004C57.041 17.8135 58.1396 16.9199 58.1396 15.3379C58.1396 13.7559 57.0703 12.8623 55.4004 12.8623H42.9492C41.2793 12.8623 40.21 13.7559 40.21 15.3379C40.21 16.9199 41.3086 17.8135 42.9492 17.8135H46.0693V31.1143C46.0693 33.1943 47.1973 34.3662 49.1748 34.3662ZM68.7891 34H77.7393C79.4092 34 80.4785 33.1064 80.4785 31.5244C80.4785 29.9424 79.3799 29.0488 77.7393 29.0488H71.8945V15.748C71.8945 13.668 70.7666 12.4961 68.7891 12.4961C66.8115 12.4961 65.6836 13.668 65.6836 15.748V30.748C65.6836 32.8281 66.8115 34 68.7891 34ZM91.5527 34.3662C97.1338 34.3662 100.869 31.29 100.869 26.4707V16.6562H102.905C105.205 16.6562 106.597 15.3818 106.597 13.1406V10.9287C106.597 9.44922 105.791 8.59961 104.37 8.59961C102.964 8.59961 102.144 9.44922 102.144 10.9287V11.5293C102.144 12.1592 101.763 12.4961 101.162 12.4961H97.7637C95.7861 12.4961 94.6582 13.668 94.6582 15.748V25.7822C94.6582 28.0088 93.5596 29.2246 91.5527 29.2246C89.5459 29.2246 88.4473 28.0088 88.4473 25.7822V15.748C88.4473 13.668 87.3193 12.4961 85.3418 12.4961C83.3643 12.4961 82.2363 13.668 82.2363 15.748V26.4707C82.2363 31.29 85.9717 34.3662 91.5527 34.3662ZM117.48 34.3662C124.043 34.3662 128.13 30.1621 128.13 23.4385C128.13 21.0361 127.09 18.1504 125.728 16.9932V16.876H126.665C128.892 16.876 130.063 15.6748 130.063 13.3604V10.9287C130.063 9.44922 129.258 8.59961 127.837 8.59961C126.431 8.59961 125.61 9.44922 125.61 10.9287V12.1152C125.61 12.9209 125.039 13.375 124.028 13.375C121.538 13.375 120.381 12.4961 117.48 12.4961C110.933 12.4961 106.831 16.7002 106.831 23.4385C106.831 30.1768 110.918 34.3662 117.48 34.3662ZM117.48 29.415C114.858 29.415 113.159 27.0713 113.159 23.4385C113.159 19.8057 114.858 17.4473 117.48 17.4473C120.103 17.4473 121.802 19.8057 121.802 23.4385C121.802 27.0713 120.103 29.415 117.48 29.415ZM117.48 41.6465C118.945 41.6465 120.073 40.4746 120.073 39.0537C120.073 37.6328 118.945 36.4609 117.48 36.4609C116.016 36.4609 114.888 37.6328 114.888 39.0537C114.888 40.4746 116.016 41.6465 117.48 41.6465ZM141.431 34.3662C143.408 34.3662 144.536 33.1943 144.536 31.1143V17.8135H147.656C149.297 17.8135 150.396 16.9199 150.396 15.3379C150.396 13.7559 149.326 12.8623 147.656 12.8623H135.205C133.535 12.8623 132.466 13.7559 132.466 15.3379C132.466 16.9199 133.564 17.8135 135.205 17.8135H138.325V31.1143C138.325 33.1943 139.453 34.3662 141.431 34.3662Z" fill="#00459B"/>
<path d="M6.91406 25.8262V24.8262H5.91406V25.8262H6.91406ZM14.3555 25.8262H15.3555V24.8262H14.3555V25.8262ZM14.3555 20.8896V21.8896H15.3555V20.8896H14.3555ZM6.91406 20.8896H5.91406V21.8896H6.91406V20.8896ZM3.80859 35.3662C4.99589 35.3662 6.06171 35.0097 6.82539 34.2116C7.58296 33.42 7.91406 32.3286 7.91406 31.1143H5.91406C5.91406 31.98 5.6812 32.5146 5.38042 32.8289C5.08575 33.1368 4.59884 33.3662 3.80859 33.3662V35.3662ZM7.91406 31.1143V25.8262H5.91406V31.1143H7.91406ZM6.91406 26.8262H14.3555V24.8262H6.91406V26.8262ZM13.3555 25.8262V31.1143H15.3555V25.8262H13.3555ZM13.3555 31.1143C13.3555 32.3286 13.6866 33.42 14.4441 34.2116C15.2078 35.0097 16.2736 35.3662 17.4609 35.3662V33.3662C16.6707 33.3662 16.1838 33.1368 15.8891 32.8289C15.5883 32.5146 15.3555 31.98 15.3555 31.1143H13.3555ZM17.4609 35.3662C18.6482 35.3662 19.7141 35.0097 20.4777 34.2116C21.2353 33.42 21.5664 32.3286 21.5664 31.1143H19.5664C19.5664 31.98 19.3335 32.5146 19.0328 32.8289C18.7381 33.1368 18.2512 33.3662 17.4609 33.3662V35.3662ZM21.5664 31.1143V15.748H19.5664V31.1143H21.5664ZM21.5664 15.748C21.5664 14.5337 21.2353 13.4423 20.4777 12.6507C19.7141 11.8526 18.6482 11.4961 17.4609 11.4961V13.4961C18.2512 13.4961 18.7381 13.7255 19.0328 14.0334C19.3335 14.3477 19.5664 14.8823 19.5664 15.748H21.5664ZM17.4609 11.4961C16.2736 11.4961 15.2078 11.8526 14.4441 12.6507C13.6866 13.4423 13.3555 14.5337 13.3555 15.748H15.3555C15.3555 14.8823 15.5883 14.3477 15.8891 14.0334C16.1838 13.7255 16.6707 13.4961 17.4609 13.4961V11.4961ZM13.3555 15.748V20.8896H15.3555V15.748H13.3555ZM14.3555 19.8896H6.91406V21.8896H14.3555V19.8896ZM7.91406 20.8896V15.748H5.91406V20.8896H7.91406ZM7.91406 15.748C7.91406 14.5337 7.58296 13.4423 6.82539 12.6507C6.06171 11.8526 4.99589 11.4961 3.80859 11.4961V13.4961C4.59884 13.4961 5.08575 13.7255 5.38042 14.0334C5.6812 14.3477 5.91406 14.8823 5.91406 15.748H7.91406ZM3.80859 11.4961C2.6213 11.4961 1.55547 11.8526 0.791796 12.6507C0.0342271 13.4423 -0.296875 14.5337 -0.296875 15.748H1.70312C1.70312 14.8823 1.93599 14.3477 2.23677 14.0334C2.53144 13.7255 3.01835 13.4961 3.80859 13.4961V11.4961ZM-0.296875 15.748V31.1143H1.70312V15.748H-0.296875ZM-0.296875 31.1143C-0.296875 32.3286 0.0342271 33.42 0.791796 34.2116C1.55547 35.0097 2.6213 35.3662 3.80859 35.3662V33.3662C3.01835 33.3662 2.53144 33.1368 2.23677 32.8289C1.93599 32.5146 1.70312 31.98 1.70312 31.1143H-0.296875ZM36.0938 5.11328L35.3293 4.46858L35.3284 4.46968L36.0938 5.11328ZM37.1191 3.89746L37.8836 4.54217L37.8853 4.54007L37.1191 3.89746ZM34.0283 2.08105L33.2196 1.49286L33.2146 1.49982L34.0283 2.08105ZM33.0762 3.41406L32.2624 2.83278L32.2553 2.843L33.0762 3.41406ZM29.0625 11.1191L28.2917 10.482L28.2885 10.4859L29.0625 11.1191ZM30.8789 8.92188V7.92188H30.4081L30.1082 8.28473L30.8789 8.92188ZM30.9961 8.92188L31.7668 8.28473L31.4669 7.92188H30.9961V8.92188ZM32.8125 11.1191L33.5865 10.4859L33.5832 10.482L32.8125 11.1191ZM35.376 9.28809L36.1145 8.61381L36.1105 8.60955L35.376 9.28809ZM33.7793 7.55957L34.5139 6.88103L34.5131 6.88016L33.7793 7.55957ZM28.0957 7.55957L27.3619 6.88016L27.3611 6.88103L28.0957 7.55957ZM26.499 9.28809L25.7644 8.60954L25.7605 8.61382L26.499 9.28809ZM29.707 29.0488H28.707V30.0488H29.707V29.0488ZM29.707 25.665V24.665H28.707V25.665H29.707ZM29.707 21.2119H28.707V22.2119H29.707V21.2119ZM29.707 17.8135V16.8135H28.707V17.8135H29.707ZM34.4971 6.93359C34.9324 6.93359 35.3726 6.87969 35.8111 6.65551C36.2318 6.44042 36.558 6.115 36.8591 5.75688L35.3284 4.46968C35.0875 4.75609 34.967 4.84083 34.9006 4.87476C34.852 4.89961 34.7648 4.93359 34.4971 4.93359V6.93359ZM36.8582 5.75798L37.8836 4.54216L36.3547 3.25276L35.3293 4.46858L36.8582 5.75798ZM37.8853 4.54007C38.3481 3.98831 38.6904 3.34243 38.6904 2.6084H36.6904C36.6904 2.69467 36.6519 2.89841 36.3529 3.25485L37.8853 4.54007ZM38.6904 2.6084C38.6904 1.85258 38.3914 1.16793 37.8494 0.681403C37.3155 0.202109 36.6074 -0.0322266 35.8594 -0.0322266V1.96777C36.1954 1.96777 36.4027 2.07035 36.5134 2.16967C36.6159 2.26176 36.6904 2.39742 36.6904 2.6084H38.6904ZM35.8594 -0.0322266C35.3383 -0.0322266 34.842 0.0812969 34.3705 0.367164C33.9196 0.64051 33.5529 1.03462 33.2196 1.49288L34.8371 2.66923C35.0897 2.32183 35.2723 2.15929 35.4073 2.07742C35.5217 2.00806 35.6481 1.96777 35.8594 1.96777V-0.0322266ZM33.2146 1.49982L32.2624 2.83282L33.8899 3.9953L34.8421 2.66229L33.2146 1.49982ZM32.2553 2.843C31.9109 3.33806 31.7393 3.84319 31.7393 4.46875H33.7393C33.7393 4.274 33.7727 4.16389 33.8971 3.98513L32.2553 2.843ZM31.7393 4.46875C31.7393 6.00529 33.143 6.93359 34.4971 6.93359V4.93359C34.2218 4.93359 34.0134 4.84304 33.8899 4.7402C33.7707 4.64098 33.7393 4.54419 33.7393 4.46875H31.7393ZM27.5684 12.9541C28.6313 12.9541 29.3555 12.3403 29.8365 11.7524L28.2885 10.4859C27.9785 10.8648 27.7652 10.9541 27.5684 10.9541V12.9541ZM29.8332 11.7563L31.6496 9.55902L30.1082 8.28473L28.2918 10.482L29.8332 11.7563ZM30.8789 9.92188H30.9961V7.92188H30.8789V9.92188ZM30.2254 9.55902L32.0418 11.7563L33.5832 10.482L31.7668 8.28473L30.2254 9.55902ZM32.0385 11.7524C32.5195 12.3403 33.2437 12.9541 34.3066 12.9541V10.9541C34.1098 10.9541 33.8965 10.8648 33.5865 10.4859L32.0385 11.7524ZM34.3066 12.9541C35.646 12.9541 36.874 12.008 36.874 10.4893H34.874C34.874 10.6518 34.8172 10.7477 34.7472 10.8113C34.6689 10.8826 34.5251 10.9541 34.3066 10.9541V12.9541ZM36.874 10.4893C36.874 9.73941 36.5563 9.09774 36.1145 8.61382L34.6375 9.96236C34.8109 10.1523 34.874 10.3309 34.874 10.4893H36.874ZM36.1105 8.60955L34.5139 6.88103L33.0447 8.23811L34.6414 9.96662L36.1105 8.60955ZM34.5131 6.88016C33.6403 5.93753 32.5551 5.25586 30.9375 5.25586V7.25586C31.8688 7.25586 32.4535 7.59958 33.0455 8.23898L34.5131 6.88016ZM30.9375 5.25586C29.3199 5.25586 28.2347 5.93753 27.3619 6.88016L28.8295 8.23898C29.4215 7.59958 30.0062 7.25586 30.9375 7.25586V5.25586ZM27.3611 6.88103L25.7645 8.60955L27.2336 9.96662L28.8303 8.23811L27.3611 6.88103ZM25.7605 8.61382C25.3187 9.09774 25.001 9.73941 25.001 10.4893H27.001C27.001 10.3309 27.0641 10.1523 27.2375 9.96236L25.7605 8.61382ZM25.001 10.4893C25.001 12.008 26.229 12.9541 27.5684 12.9541V10.9541C27.3499 10.9541 27.2061 10.8826 27.1278 10.8113C27.0578 10.7477 27.001 10.6518 27.001 10.4893H25.001ZM26.6016 35H35.9619V33H26.6016V35ZM35.9619 35C36.9666 35 37.9125 34.7306 38.6203 34.1045C39.3448 33.4636 39.7012 32.5535 39.7012 31.5244H37.7012C37.7012 32.0774 37.5229 32.405 37.2952 32.6065C37.0509 32.8226 36.6271 33 35.9619 33V35ZM39.7012 31.5244C39.7012 30.4871 39.3319 29.5786 38.6065 28.9419C37.8982 28.32 36.9557 28.0488 35.9619 28.0488V30.0488C36.6088 30.0488 37.0359 30.2244 37.2871 30.4449C37.5212 30.6504 37.7012 30.9797 37.7012 31.5244H39.7012ZM35.9619 28.0488H29.707V30.0488H35.9619V28.0488ZM30.707 29.0488V25.665H28.707V29.0488H30.707ZM29.707 26.665H35.7129V24.665H29.707V26.665ZM35.7129 26.665C36.6368 26.665 37.5127 26.4176 38.1692 25.8293C38.8408 25.2275 39.1592 24.3794 39.1592 23.4385H37.1592C37.1592 23.9184 37.0088 24.1837 36.8345 24.3399C36.645 24.5096 36.2977 24.665 35.7129 24.665V26.665ZM39.1592 23.4385C39.1592 22.4883 38.8274 21.6421 38.155 21.0448C37.4984 20.4614 36.6264 20.2119 35.7129 20.2119V22.2119C36.2789 22.2119 36.63 22.3652 36.8267 22.5399C37.0076 22.7007 37.1592 22.9678 37.1592 23.4385H39.1592ZM35.7129 20.2119H29.707V22.2119H35.7129V20.2119ZM30.707 21.2119V17.8135H28.707V21.2119H30.707ZM29.707 18.8135H35.9619V16.8135H29.707V18.8135ZM35.9619 18.8135C36.9557 18.8135 37.8982 18.5423 38.6065 17.9205C39.3319 17.2837 39.7012 16.3752 39.7012 15.3379H37.7012C37.7012 15.8826 37.5212 16.2119 37.2871 16.4174C37.0359 16.6379 36.6088 16.8135 35.9619 16.8135V18.8135ZM39.7012 15.3379C39.7012 14.3088 39.3448 13.3987 38.6203 12.7578C37.9125 12.1317 36.9666 11.8623 35.9619 11.8623V13.8623C36.6271 13.8623 37.0509 14.0397 37.2952 14.2558C37.5229 14.4573 37.7012 14.7849 37.7012 15.3379H39.7012ZM35.9619 11.8623H26.6016V13.8623H35.9619V11.8623ZM26.6016 11.8623C25.4143 11.8623 24.3484 12.2188 23.5848 13.0169C22.8272 13.8085 22.4961 14.8999 22.4961 16.1143H24.4961C24.4961 15.2485 24.729 14.7139 25.0297 14.3996C25.3244 14.0917 25.8113 13.8623 26.6016 13.8623V11.8623ZM22.4961 16.1143V30.748H24.4961V16.1143H22.4961ZM22.4961 30.748C22.4961 31.9624 22.8272 33.0538 23.5848 33.8454C24.3484 34.6435 25.4143 35 26.6016 35V33C25.8113 33 25.3244 32.7706 25.0297 32.4627C24.729 32.1484 24.4961 31.6138 24.4961 30.748H22.4961ZM52.2803 17.8135V16.8135H51.2803V17.8135H52.2803ZM46.0693 17.8135H47.0693V16.8135H46.0693V17.8135ZM49.1748 35.3662C50.3621 35.3662 51.4279 35.0097 52.1916 34.2116C52.9492 33.42 53.2803 32.3286 53.2803 31.1143H51.2803C51.2803 31.98 51.0474 32.5146 50.7466 32.8289C50.452 33.1368 49.965 33.3662 49.1748 33.3662V35.3662ZM53.2803 31.1143V17.8135H51.2803V31.1143H53.2803ZM52.2803 18.8135H55.4004V16.8135H52.2803V18.8135ZM55.4004 18.8135C56.3941 18.8135 57.3367 18.5423 58.045 17.9205C58.7703 17.2837 59.1396 16.3752 59.1396 15.3379H57.1396C57.1396 15.8826 56.9596 16.2119 56.7255 16.4174C56.4744 16.6379 56.0473 16.8135 55.4004 16.8135V18.8135ZM59.1396 15.3379C59.1396 14.3088 58.7832 13.3987 58.0588 12.7578C57.351 12.1317 56.4051 11.8623 55.4004 11.8623V13.8623C56.0656 13.8623 56.4893 14.0397 56.7337 14.2558C56.9614 14.4573 57.1396 14.7849 57.1396 15.3379H59.1396ZM55.4004 11.8623H42.9492V13.8623H55.4004V11.8623ZM42.9492 11.8623C41.9445 11.8623 40.9986 12.1317 40.2908 12.7578C39.5664 13.3987 39.21 14.3088 39.21 15.3379H41.21C41.21 14.7849 41.3882 14.4573 41.6159 14.2558C41.8603 14.0397 42.284 13.8623 42.9492 13.8623V11.8623ZM39.21 15.3379C39.21 16.3752 39.5793 17.2837 40.3046 17.9205C41.013 18.5423 41.9555 18.8135 42.9492 18.8135V16.8135C42.3023 16.8135 41.8752 16.6379 41.6241 16.4174C41.39 16.2119 41.21 15.8826 41.21 15.3379H39.21ZM42.9492 18.8135H46.0693V16.8135H42.9492V18.8135ZM45.0693 17.8135V31.1143H47.0693V17.8135H45.0693ZM45.0693 31.1143C45.0693 32.3286 45.4004 33.42 46.158 34.2116C46.9217 35.0097 47.9875 35.3662 49.1748 35.3662V33.3662C48.3846 33.3662 47.8977 33.1368 47.603 32.8289C47.3022 32.5146 47.0693 31.98 47.0693 31.1143H45.0693ZM71.8945 29.0488H70.8945V30.0488H71.8945V29.0488ZM68.7891 35H77.7393V33H68.7891V35ZM77.7393 35C78.7439 35 79.6899 34.7306 80.3977 34.1045C81.1221 33.4636 81.4785 32.5535 81.4785 31.5244H79.4785C79.4785 32.0774 79.3003 32.405 79.0725 32.6065C78.8282 32.8226 78.4045 33 77.7393 33V35ZM81.4785 31.5244C81.4785 30.4871 81.1092 29.5786 80.3838 28.9419C79.6755 28.32 78.733 28.0488 77.7393 28.0488V30.0488C78.3861 30.0488 78.8132 30.2244 79.0644 30.4449C79.2985 30.6504 79.4785 30.9797 79.4785 31.5244H81.4785ZM77.7393 28.0488H71.8945V30.0488H77.7393V28.0488ZM72.8945 29.0488V15.748H70.8945V29.0488H72.8945ZM72.8945 15.748C72.8945 14.5337 72.5634 13.4423 71.8059 12.6507C71.0422 11.8526 69.9764 11.4961 68.7891 11.4961V13.4961C69.5793 13.4961 70.0662 13.7255 70.3609 14.0334C70.6617 14.3477 70.8945 14.8823 70.8945 15.748H72.8945ZM68.7891 11.4961C67.6018 11.4961 66.5359 11.8526 65.7723 12.6507C65.0147 13.4423 64.6836 14.5337 64.6836 15.748H66.6836C66.6836 14.8823 66.9165 14.3477 67.2172 14.0334C67.5119 13.7255 67.9988 13.4961 68.7891 13.4961V11.4961ZM64.6836 15.748V30.748H66.6836V15.748H64.6836ZM64.6836 30.748C64.6836 31.9624 65.0147 33.0538 65.7723 33.8454C66.5359 34.6435 67.6018 35 68.7891 35V33C67.9988 33 67.5119 32.7706 67.2172 32.4627C66.9165 32.1484 66.6836 31.6138 66.6836 30.748H64.6836ZM100.869 16.6562V15.6562H99.8691V16.6562H100.869ZM91.5527 35.3662C94.5197 35.3662 97.0951 34.5482 98.9473 32.9912C100.817 31.4196 101.869 29.1596 101.869 26.4707H99.8691C99.8691 28.6011 99.0538 30.2888 97.6604 31.4602C96.2496 32.6462 94.1668 33.3662 91.5527 33.3662V35.3662ZM101.869 26.4707V16.6562H99.8691V26.4707H101.869ZM100.869 17.6562H102.905V15.6562H100.869V17.6562ZM102.905 17.6562C104.234 17.6562 105.43 17.2861 106.299 16.4667C107.177 15.6392 107.597 14.4729 107.597 13.1406H105.597C105.597 14.0495 105.32 14.641 104.928 15.0111C104.526 15.3891 103.876 15.6562 102.905 15.6562V17.6562ZM107.597 13.1406V10.9287H105.597V13.1406H107.597ZM107.597 10.9287C107.597 10.0138 107.346 9.15426 106.74 8.51911C106.127 7.8771 105.282 7.59961 104.37 7.59961V9.59961C104.879 9.59961 105.147 9.74692 105.293 9.89959C105.445 10.0591 105.597 10.3642 105.597 10.9287H107.597ZM104.37 7.59961C103.463 7.59961 102.62 7.87844 102.008 8.51737C101.401 9.15049 101.144 10.0091 101.144 10.9287H103.144C103.144 10.3688 103.297 10.0629 103.451 9.90133C103.601 9.74558 103.871 9.59961 104.37 9.59961V7.59961ZM101.144 10.9287V11.5293H103.144V10.9287H101.144ZM101.144 11.5293C101.144 11.5869 101.135 11.6043 101.138 11.5948C101.14 11.5899 101.145 11.5797 101.153 11.5664C101.162 11.5531 101.173 11.5393 101.187 11.5264C101.2 11.5136 101.213 11.5041 101.224 11.4975C101.235 11.491 101.242 11.4885 101.243 11.4882C101.244 11.4878 101.22 11.4961 101.162 11.4961V13.4961C101.644 13.4961 102.165 13.3588 102.569 12.9714C102.981 12.5773 103.144 12.0489 103.144 11.5293H101.144ZM101.162 11.4961H97.7637V13.4961H101.162V11.4961ZM97.7637 11.4961C96.5764 11.4961 95.5106 11.8526 94.7469 12.6507C93.9893 13.4423 93.6582 14.5337 93.6582 15.748H95.6582C95.6582 14.8823 95.8911 14.3477 96.1918 14.0334C96.4865 13.7255 96.9734 13.4961 97.7637 13.4961V11.4961ZM93.6582 15.748V25.7822H95.6582V15.748H93.6582ZM93.6582 25.7822C93.6582 26.7442 93.4206 27.3306 93.1157 27.6684C92.8256 27.9897 92.3497 28.2246 91.5527 28.2246V30.2246C92.7626 30.2246 93.8394 29.8516 94.6004 29.0084C95.3465 28.1817 95.6582 27.0468 95.6582 25.7822H93.6582ZM91.5527 28.2246C90.7557 28.2246 90.2798 27.9897 89.9898 27.6684C89.6849 27.3306 89.4473 26.7442 89.4473 25.7822H87.4473C87.4473 27.0468 87.7589 28.1817 88.5051 29.0084C89.2661 29.8516 90.3429 30.2246 91.5527 30.2246V28.2246ZM89.4473 25.7822V15.748H87.4473V25.7822H89.4473ZM89.4473 15.748C89.4473 14.5337 89.1162 13.4423 88.3586 12.6507C87.5949 11.8526 86.5291 11.4961 85.3418 11.4961V13.4961C86.132 13.4961 86.6189 13.7255 86.9136 14.0334C87.2144 14.3477 87.4473 14.8823 87.4473 15.748H89.4473ZM85.3418 11.4961C84.1545 11.4961 83.0887 11.8526 82.325 12.6507C81.5674 13.4423 81.2363 14.5337 81.2363 15.748H83.2363C83.2363 14.8823 83.4692 14.3477 83.77 14.0334C84.0646 13.7255 84.5516 13.4961 85.3418 13.4961V11.4961ZM81.2363 15.748V26.4707H83.2363V15.748H81.2363ZM81.2363 26.4707C81.2363 29.1596 82.2887 31.4196 84.1582 32.9912C86.0103 34.5482 88.5858 35.3662 91.5527 35.3662V33.3662C88.9387 33.3662 86.8559 32.6462 85.4451 31.4602C84.0516 30.2888 83.2363 28.6011 83.2363 26.4707H81.2363ZM125.728 16.9932H124.728V17.4558L125.08 17.7553L125.728 16.9932ZM125.728 16.876V15.876H124.728V16.876H125.728ZM117.48 35.3662C120.98 35.3662 123.919 34.2402 125.983 32.1214C128.043 30.0056 129.13 27.0033 129.13 23.4385H127.13C127.13 26.5973 126.173 29.0589 124.55 30.726C122.929 32.3902 120.543 33.3662 117.48 33.3662V35.3662ZM129.13 23.4385C129.13 22.1051 128.844 20.666 128.378 19.4028C127.919 18.1604 127.242 16.968 126.375 16.231L125.08 17.7553C125.575 18.1756 126.099 19.0046 126.501 20.095C126.896 21.1646 127.13 22.3695 127.13 23.4385H129.13ZM126.728 16.9932V16.876H124.728V16.9932H126.728ZM125.728 17.876H126.665V15.876H125.728V17.876ZM126.665 17.876C127.952 17.876 129.1 17.526 129.917 16.682C130.73 15.8433 131.063 14.6749 131.063 13.3604H129.063C129.063 14.3602 128.811 14.9497 128.481 15.2902C128.156 15.6254 127.605 15.876 126.665 15.876V17.876ZM131.063 13.3604V10.9287H129.063V13.3604H131.063ZM131.063 10.9287C131.063 10.0138 130.812 9.15426 130.207 8.51911C129.594 7.8771 128.748 7.59961 127.837 7.59961V9.59961C128.346 9.59961 128.614 9.74692 128.759 9.89959C128.912 10.0591 129.063 10.3642 129.063 10.9287H131.063ZM127.837 7.59961C126.93 7.59961 126.087 7.87844 125.474 8.51737C124.868 9.15049 124.61 10.0091 124.61 10.9287H126.61C126.61 10.3688 126.763 10.0629 126.918 9.90133C127.067 9.74558 127.337 9.59961 127.837 9.59961V7.59961ZM124.61 10.9287V12.1152H126.61V10.9287H124.61ZM124.61 12.1152C124.61 12.1981 124.596 12.2358 124.592 12.2455C124.589 12.252 124.587 12.2561 124.576 12.2648C124.545 12.289 124.402 12.375 124.028 12.375V14.375C124.666 14.375 125.313 14.234 125.821 13.8297C126.363 13.3984 126.61 12.7759 126.61 12.1152H124.61ZM124.028 12.375C122.91 12.375 122.101 12.1819 121.131 11.9606C120.148 11.7364 119.045 11.4961 117.48 11.4961V13.4961C118.816 13.4961 119.742 13.6953 120.686 13.9105C121.642 14.1287 122.656 14.375 124.028 14.375V12.375ZM117.48 11.4961C113.988 11.4961 111.049 12.6224 108.984 14.7427C106.922 16.8601 105.831 19.866 105.831 23.4385H107.831C107.831 20.2727 108.791 17.8074 110.417 16.1381C112.04 14.4718 114.425 13.4961 117.48 13.4961V11.4961ZM105.831 23.4385C105.831 27.0101 106.918 30.0129 108.979 32.1272C111.043 34.2445 113.982 35.3662 117.48 35.3662V33.3662C114.417 33.3662 112.031 32.3932 110.411 30.7312C108.788 29.0662 107.831 26.6051 107.831 23.4385H105.831ZM117.48 28.415C116.505 28.415 115.72 27.9954 115.147 27.2028C114.552 26.3815 114.159 25.1128 114.159 23.4385H112.159C112.159 25.3969 112.616 27.1165 113.526 28.3753C114.458 29.6628 115.834 30.415 117.48 30.415V28.415ZM114.159 23.4385C114.159 21.7641 114.552 20.491 115.148 19.6654C115.722 18.8684 116.508 18.4473 117.48 18.4473V16.4473C115.831 16.4473 114.456 17.2053 113.525 18.4957C112.616 19.7575 112.159 21.48 112.159 23.4385H114.159ZM117.48 18.4473C118.453 18.4473 119.239 18.8684 119.813 19.6654C120.409 20.491 120.802 21.7641 120.802 23.4385H122.802C122.802 21.48 122.345 19.7575 121.436 18.4957C120.505 17.2053 119.13 16.4473 117.48 16.4473V18.4473ZM120.802 23.4385C120.802 25.1128 120.409 26.3815 119.814 27.2028C119.241 27.9954 118.456 28.415 117.48 28.415V30.415C119.127 30.415 120.503 29.6628 121.435 28.3753C122.345 27.1165 122.802 25.3969 122.802 23.4385H120.802ZM117.48 42.6465C119.509 42.6465 121.073 41.0158 121.073 39.0537H119.073C119.073 39.9334 118.382 40.6465 117.48 40.6465V42.6465ZM121.073 39.0537C121.073 37.0916 119.509 35.4609 117.48 35.4609V37.4609C118.382 37.4609 119.073 38.174 119.073 39.0537H121.073ZM117.48 35.4609C115.452 35.4609 113.888 37.0916 113.888 39.0537H115.888C115.888 38.174 116.579 37.4609 117.48 37.4609V35.4609ZM113.888 39.0537C113.888 41.0158 115.452 42.6465 117.48 42.6465V40.6465C116.579 40.6465 115.888 39.9334 115.888 39.0537H113.888ZM144.536 17.8135V16.8135H143.536V17.8135H144.536ZM138.325 17.8135H139.325V16.8135H138.325V17.8135ZM141.431 35.3662C142.618 35.3662 143.684 35.0097 144.447 34.2116C145.205 33.42 145.536 32.3286 145.536 31.1143H143.536C143.536 31.98 143.303 32.5146 143.002 32.8289C142.708 33.1368 142.221 33.3662 141.431 33.3662V35.3662ZM145.536 31.1143V17.8135H143.536V31.1143H145.536ZM144.536 18.8135H147.656V16.8135H144.536V18.8135ZM147.656 18.8135C148.65 18.8135 149.593 18.5423 150.301 17.9205C151.026 17.2837 151.396 16.3752 151.396 15.3379H149.396C149.396 15.8826 149.215 16.2119 148.981 16.4174C148.73 16.6379 148.303 16.8135 147.656 16.8135V18.8135ZM151.396 15.3379C151.396 14.3088 151.039 13.3987 150.315 12.7578C149.607 12.1317 148.661 11.8623 147.656 11.8623V13.8623C148.321 13.8623 148.745 14.0397 148.99 14.2558C149.217 14.4573 149.396 14.7849 149.396 15.3379H151.396ZM147.656 11.8623H135.205V13.8623H147.656V11.8623ZM135.205 11.8623C134.2 11.8623 133.254 12.1317 132.547 12.7578C131.822 13.3987 131.466 14.3088 131.466 15.3379H133.466C133.466 14.7849 133.644 14.4573 133.872 14.2558C134.116 14.0397 134.54 13.8623 135.205 13.8623V11.8623ZM131.466 15.3379C131.466 16.3752 131.835 17.2837 132.56 17.9205C133.269 18.5423 134.211 18.8135 135.205 18.8135V16.8135C134.558 16.8135 134.131 16.6379 133.88 16.4174C133.646 16.2119 133.466 15.8826 133.466 15.3379H131.466ZM135.205 18.8135H138.325V16.8135H135.205V18.8135ZM137.325 17.8135V31.1143H139.325V17.8135H137.325ZM137.325 31.1143C137.325 32.3286 137.656 33.42 138.414 34.2116C139.178 35.0097 140.243 35.3662 141.431 35.3662V33.3662C140.64 33.3662 140.154 33.1368 139.859 32.8289C139.558 32.5146 139.325 31.98 139.325 31.1143H137.325Z" fill="url(#paint0_linear_2650_2234)"/>
<defs>
<linearGradient id="paint0_linear_2650_2234" x1="20.4721" y1="-14.6363" x2="151.053" y2="-8.59116" gradientUnits="userSpaceOnUse">
<stop stop-color="#D3E7FF"/>
<stop offset="1" stop-color="white"/>
</linearGradient>
</defs>
</svg>
