<svg width="32" height="32" viewBox="0 0 32 32" fill="none" xmlns="http://www.w3.org/2000/svg">
<path d="M10.6667 17.3333V6C10.6667 5.46957 10.8775 4.96086 11.2525 4.58579C11.6276 4.21071 12.1363 4 12.6667 4C13.1972 4 13.7059 4.21071 14.081 4.58579C14.456 4.96086 14.6667 5.46957 14.6667 6V16" stroke="url(#paint0_linear_105_500)" stroke-width="2.66667" stroke-linecap="round" stroke-linejoin="round"/>
<path d="M14.6667 15.3333V12.6666C14.6667 12.1362 14.8775 11.6275 15.2525 11.2524C15.6276 10.8773 16.1363 10.6666 16.6667 10.6666C17.1972 10.6666 17.7059 10.8773 18.081 11.2524C18.456 11.6275 18.6667 12.1362 18.6667 12.6666V16" stroke="url(#paint1_linear_105_500)" stroke-width="2.66667" stroke-linecap="round" stroke-linejoin="round"/>
<path d="M18.6667 14C18.6667 13.4696 18.8775 12.9609 19.2525 12.5858C19.6276 12.2107 20.1363 12 20.6667 12C21.1972 12 21.7059 12.2107 22.081 12.5858C22.456 12.9609 22.6667 13.4696 22.6667 14V16" stroke="url(#paint2_linear_105_500)" stroke-width="2.66667" stroke-linecap="round" stroke-linejoin="round"/>
<path d="M22.6667 15.3333C22.6667 14.8028 22.8774 14.2941 23.2525 13.919C23.6275 13.544 24.1362 13.3333 24.6667 13.3333C25.1971 13.3333 25.7058 13.544 26.0809 13.919C26.456 14.2941 26.6667 14.8028 26.6667 15.3333V21.3333C26.6667 23.455 25.8238 25.4898 24.3235 26.9901C22.8232 28.4904 20.7884 29.3333 18.6667 29.3333H16H16.2773C14.9524 29.3335 13.6482 29.0046 12.4818 28.3763C11.3154 27.748 10.3234 26.8397 9.59467 25.7333L9.33333 25.3333C8.91733 24.6946 7.45733 22.1493 4.952 17.6959C4.6966 17.242 4.62838 16.7063 4.76184 16.2028C4.89531 15.6993 5.21993 15.2678 5.66667 14.9999C6.1425 14.7144 6.7001 14.5961 7.25088 14.6637C7.80166 14.7314 8.31405 14.9811 8.70667 15.3733L10.6667 17.3333" stroke="url(#paint3_linear_105_500)" stroke-width="2.66667" stroke-linecap="round" stroke-linejoin="round"/>
<path d="M6.66659 3.99996L5.33325 2.66663" stroke="url(#paint4_linear_105_500)" stroke-width="2.66667" stroke-linecap="round" stroke-linejoin="round"/>
<path d="M5.33333 9.33325H4" stroke="url(#paint5_linear_105_500)" stroke-width="2.66667" stroke-linecap="round" stroke-linejoin="round"/>
<path d="M18.6667 3.99996L20.0001 2.66663" stroke="url(#paint6_linear_105_500)" stroke-width="2.66667" stroke-linecap="round" stroke-linejoin="round"/>
<path d="M20 8H21.3333" stroke="url(#paint7_linear_105_500)" stroke-width="2.66667" stroke-linecap="round" stroke-linejoin="round"/>
<defs>
<linearGradient id="paint0_linear_105_500" x1="12.6014" y1="-2.01367" x2="5.50163" y2="0.116277" gradientUnits="userSpaceOnUse">
<stop stop-color="#F2994A"/>
<stop offset="1" stop-color="#F2994A"/>
</linearGradient>
<linearGradient id="paint1_linear_105_500" x1="16.6014" y1="8.26116" x2="11.6486" y2="11.9758" gradientUnits="userSpaceOnUse">
<stop stop-color="#F2994A"/>
<stop offset="1" stop-color="#F2994A"/>
</linearGradient>
<linearGradient id="paint2_linear_105_500" x1="20.6014" y1="10.1959" x2="16.732" y2="14.0653" gradientUnits="userSpaceOnUse">
<stop stop-color="#F2994A"/>
<stop offset="1" stop-color="#F2994A"/>
</linearGradient>
<linearGradient id="paint3_linear_105_500" x1="15.3222" y1="6.11685" x2="0.591695" y2="26.3451" gradientUnits="userSpaceOnUse">
<stop stop-color="#F2994A"/>
<stop offset="1" stop-color="#F2994A"/>
</linearGradient>
<linearGradient id="paint4_linear_105_500" x1="5.97815" y1="2.06526" x2="4.68835" y2="3.35506" gradientUnits="userSpaceOnUse">
<stop stop-color="#F2994A"/>
<stop offset="1" stop-color="#F2994A"/>
</linearGradient>
<linearGradient id="paint5_linear_105_500" x1="4.6449" y1="8.88223" x2="3.71624" y2="10.1204" gradientUnits="userSpaceOnUse">
<stop stop-color="#F2994A"/>
<stop offset="1" stop-color="#F2994A"/>
</linearGradient>
<linearGradient id="paint6_linear_105_500" x1="19.3116" y1="2.06526" x2="18.0218" y2="3.35506" gradientUnits="userSpaceOnUse">
<stop stop-color="#F2994A"/>
<stop offset="1" stop-color="#F2994A"/>
</linearGradient>
<linearGradient id="paint7_linear_105_500" x1="20.6449" y1="7.54897" x2="19.7162" y2="8.78718" gradientUnits="userSpaceOnUse">
<stop stop-color="#F2994A"/>
<stop offset="1" stop-color="#F2994A"/>
</linearGradient>
</defs>
</svg>
