<svg width="20" height="18" viewBox="0 0 20 18" fill="none" xmlns="http://www.w3.org/2000/svg">
<path d="M14.9998 13.1667H12.4998M14.9998 10.6667H12.4998M4.99984 16.5H14.9998C16.8408 16.5 18.3332 15.0076 18.3332 13.1667V4.83333C18.3332 2.99238 16.8408 1.5 14.9998 1.5H4.99984C3.15889 1.5 1.6665 2.99238 1.6665 4.83333V13.1667C1.6665 15.0076 3.15889 16.5 4.99984 16.5ZM6.6665 4.83333H8.33317C9.25365 4.83333 9.99984 5.57953 9.99984 6.5C9.99984 7.42047 9.25365 8.16667 8.33317 8.16667H6.6665C5.74603 8.16667 4.99984 7.42047 4.99984 6.5C4.99984 5.57953 5.74603 4.83333 6.6665 4.83333Z" stroke="#94A3B8" stroke-width="1.5" stroke-linecap="round" stroke-linejoin="round"/>
</svg>
