<svg width="21" height="20" viewBox="0 0 21 20" fill="none" xmlns="http://www.w3.org/2000/svg">
<path fill-rule="evenodd" clip-rule="evenodd" d="M0.75 15C0.75 17.6234 2.87665 19.75 5.5 19.75L15.5 19.75C18.1234 19.75 20.25 17.6234 20.25 15L20.25 11C20.25 8.37665 18.1234 6.25 15.5 6.25L15 6.25C14.5858 6.25 14.25 6.58579 14.25 7C14.25 7.41421 14.5858 7.75 15 7.75L15.5 7.75C17.2949 7.75 18.75 9.20507 18.75 11L18.75 15C18.75 16.7949 17.2949 18.25 15.5 18.25L5.5 18.25C3.70507 18.25 2.25 16.7949 2.25 15L2.25 11C2.25 9.20507 3.70507 7.75 5.5 7.75L6 7.75C6.41421 7.75 6.75 7.41421 6.75 7C6.75 6.58579 6.41421 6.25 6 6.25L5.5 6.25C2.87665 6.25 0.75 8.37665 0.75 11L0.75 15ZM6.96967 10.5303C6.67678 10.2374 6.67678 9.76256 6.96967 9.46967C7.26256 9.17678 7.73744 9.17678 8.03033 9.46967L9.75 11.1893L9.75 1C9.75 0.585786 10.0858 0.25 10.5 0.25C10.9142 0.25 11.25 0.585786 11.25 1L11.25 11.1893L12.9697 9.46967C13.2626 9.17678 13.7374 9.17678 14.0303 9.46967C14.3232 9.76256 14.3232 10.2374 14.0303 10.5303L11.0303 13.5303C10.7374 13.8232 10.2626 13.8232 9.96967 13.5303L6.96967 10.5303Z" fill="white"/>
</svg>
