<svg width="16" height="16" viewBox="0 0 16 16" fill="none" xmlns="http://www.w3.org/2000/svg">
<path d="M5.33333 6.66683H10.6667M5.33333 9.3335H10.6667M5.33333 12.0002H8M5.33333 2.66683C5.33333 3.40321 5.93029 4.00016 6.66667 4.00016H9.33333C10.0697 4.00016 10.6667 3.40321 10.6667 2.66683M5.33333 2.66683C5.33333 1.93045 5.93029 1.3335 6.66667 1.3335H9.33333C10.0697 1.3335 10.6667 1.93045 10.6667 2.66683M5.33333 2.66683H4.66667C3.19391 2.66683 2 3.86074 2 5.3335V12.0002C2 13.4729 3.19391 14.6668 4.66667 14.6668H11.3333C12.8061 14.6668 14 13.4729 14 12.0002V5.3335C14 3.86074 12.8061 2.66683 11.3333 2.66683H10.6667" stroke="#475569" stroke-width="1.09091" stroke-linecap="round"/>
</svg>
