<svg width="24" height="24" viewBox="0 0 24 24" fill="none" xmlns="http://www.w3.org/2000/svg">
<path opacity="0.4" d="M22 12C22 17.5228 17.5228 22 12 22C6.47715 22 2 17.5228 2 12C2 6.47715 6.47715 2 12 2C17.5228 2 22 6.47715 22 12Z" fill="#FF3F35"/>
<path fill-rule="evenodd" clip-rule="evenodd" d="M14.2979 15.3591C14.5908 15.652 15.0657 15.652 15.3586 15.3591C15.6515 15.0662 15.6515 14.5913 15.3586 14.2984L13.0605 12.0004L15.3586 9.70234C15.6515 9.40944 15.6515 8.93457 15.3586 8.64168C15.0657 8.34878 14.5908 8.34878 14.2979 8.64168L11.9999 10.9397L9.70173 8.64154C9.40884 8.34865 8.93396 8.34865 8.64107 8.64154C8.34818 8.93444 8.34818 9.40931 8.64107 9.70221L10.9392 12.0004L8.64106 14.2985C8.34816 14.5914 8.34816 15.0663 8.64106 15.3592C8.93395 15.6521 9.40882 15.6521 9.70172 15.3592L11.9999 13.061L14.2979 15.3591Z" fill="#FF3F35"/>
</svg>
