<svg width="33" height="33" viewBox="0 0 33 33" fill="none" xmlns="http://www.w3.org/2000/svg">
<path fill-rule="evenodd" clip-rule="evenodd" d="M20.0203 10.344C19.3565 9.98915 18.6393 9.75132 17.9 9.63834V2.88575C19.7459 3.02457 21.5465 3.54657 23.1854 4.42258C25.1191 5.4562 26.7682 6.95078 27.9863 8.77393C29.2045 10.5971 29.9543 12.6925 30.1692 14.8746C30.1793 14.9769 30.1882 15.0792 30.1959 15.1815H23.4433C23.2971 14.2252 22.9428 13.3109 22.4037 12.5041C21.799 11.599 20.9803 10.8571 20.0203 10.344ZM9.49245 5.09527C11.407 3.81603 13.6152 3.05758 15.9 2.88574V9.63834C14.9462 9.78412 14.0316 10.1374 13.2226 10.6779C12.1341 11.4052 11.2857 12.439 10.7847 13.6485C10.2838 14.858 10.1527 16.1889 10.4081 17.4729C10.5979 18.4271 10.9949 19.3237 11.5663 20.1012L6.79143 24.876C5.29727 23.1388 4.27213 21.0411 3.82291 18.7827C3.30844 16.1963 3.57249 13.5154 4.58166 11.0791C5.59083 8.64274 7.29979 6.56035 9.49245 5.09527ZM8.20566 26.2902C9.60903 27.4972 11.2513 28.4013 13.0296 28.9407C15.1279 29.5772 17.3507 29.6864 19.5013 29.2587C21.6318 28.8349 23.6262 27.897 25.3113 26.5271L19.3018 22.3496C18.9431 22.4893 18.5716 22.5979 18.1914 22.6735C17.1238 22.8859 16.0203 22.8317 14.9786 22.5157C14.2584 22.2972 13.5831 21.9582 12.9805 21.5154L8.20566 26.2902ZM23.0154 18.7146C23.2199 18.2208 23.3631 17.7059 23.4433 17.1815H30.1959C30.0901 18.5874 29.7617 19.9725 29.2185 21.284C28.6333 22.6968 27.8114 23.9937 26.7926 25.1211L21.1874 21.2246C21.9867 20.545 22.6135 19.6848 23.0154 18.7146Z" fill="#9604AE"/>
</svg>
