<svg width="32" height="33" viewBox="0 0 32 33" fill="none" xmlns="http://www.w3.org/2000/svg">
<path fill-rule="evenodd" clip-rule="evenodd" d="M2.66681 8.18149C2.66681 5.23597 5.05463 2.84814 8.00015 2.84814H24.0002C26.9457 2.84814 29.3335 5.23596 29.3335 8.18148V21.5148C29.3335 24.4603 26.9457 26.8482 24.0002 26.8482H17.0001V28.5148H18.6668C19.2191 28.5148 19.6668 28.9625 19.6668 29.5148C19.6668 30.067 19.2191 30.5148 18.6668 30.5148H16.0001H13.3335C12.7812 30.5148 12.3335 30.067 12.3335 29.5148C12.3335 28.9625 12.7812 28.5148 13.3335 28.5148H15.0001V26.8482H8.00015C5.05463 26.8482 2.66681 24.4603 2.66681 21.5148V8.18149ZM20.8174 8.72307C20.0952 8.00085 18.9243 8.00085 18.202 8.72307L17.0426 9.88251C17.0877 9.97354 17.1364 10.0693 17.1887 10.1686C17.5405 10.837 18.0344 11.6301 18.6263 12.222C19.2182 12.8139 20.0113 13.3077 20.6796 13.6595C20.7789 13.7118 20.8747 13.7606 20.9657 13.8056L22.1251 12.6462C22.8474 11.924 22.8474 10.753 22.1251 10.0308L20.8174 8.72307ZM20.0744 14.6969C19.3689 14.3222 18.4782 13.7709 17.7777 13.0705C17.0773 12.3701 16.5261 11.4793 16.1513 10.7738L11.5917 15.3334C11.3088 15.6163 11.1252 15.9834 11.0686 16.3795L10.6763 19.1257C10.5892 19.736 11.1122 20.2591 11.7225 20.1719L14.4687 19.7796C14.8648 19.723 15.2319 19.5394 15.5148 19.2565L20.0744 14.6969Z" fill="#9604AE"/>
</svg>
