<svg width="32" height="33" viewBox="0 0 32 33" fill="none" xmlns="http://www.w3.org/2000/svg">
<path fill-rule="evenodd" clip-rule="evenodd" d="M20.6284 30.2088H10.0382C7.11377 30.2088 4.74307 27.9465 4.74307 25.1558V18.9773C4.74307 18.0802 4.36963 17.2199 3.7049 16.5856C2.16478 15.1159 2.36499 12.6807 4.12647 11.4582L12.2189 5.84195C14.0756 4.55333 16.591 4.55333 18.4477 5.84195L26.5401 11.4582C28.3016 12.6807 28.5018 15.1159 26.9617 16.5856C26.297 17.2199 25.9235 18.0802 25.9235 18.9773V25.1558C25.9235 27.9465 23.5528 30.2088 20.6284 30.2088ZM19.7667 19.5689C19.7667 22.7169 15.3334 26.4089 15.3334 26.4089C15.3334 26.4089 10.9 22.7169 10.9 19.5689C10.9 16.4208 13.2347 15.0089 15.3334 15.0089C17.432 15.0089 19.7667 16.4208 19.7667 19.5689ZM17.2333 19.4422C17.2333 20.4915 16.3827 21.3422 15.3333 21.3422C14.284 21.3422 13.4333 20.4915 13.4333 19.4422C13.4333 18.3928 14.284 17.5422 15.3333 17.5422C16.3827 17.5422 17.2333 18.3928 17.2333 19.4422Z" fill="#4335E7"/>
</svg>
