<svg width="32" height="32" viewBox="0 0 32 32" fill="none" xmlns="http://www.w3.org/2000/svg">
<path fill-rule="evenodd" clip-rule="evenodd" d="M28.7833 23.55V10.9941C28.7833 10.7063 28.7596 10.4206 28.7131 10.1396H2.68693C2.64042 10.4205 2.6167 10.7063 2.6167 10.9941V23.55C2.6167 26.4403 4.95975 28.7833 7.85003 28.7833H23.55C26.4403 28.7833 28.7833 26.4403 28.7833 23.55ZM27.6366 7.72488C27.7529 7.87033 27.861 8.0213 27.9605 8.17708H3.43957C3.53907 8.0213 3.64713 7.87033 3.76349 7.72488L6.27875 4.58079C7.27189 3.33937 8.7755 2.6167 10.3653 2.6167H21.0347C22.6245 2.6167 24.1282 3.33937 25.1213 4.58079L27.6366 7.72488ZM17.3646 13.8149C18.0066 13.1729 19.0474 13.1729 19.6894 13.8149L20.8518 14.9773C21.4938 15.6193 21.4938 16.6601 20.8518 17.3021L19.8212 18.3327C19.7403 18.2927 19.6551 18.2494 19.5669 18.2029C18.9728 17.8901 18.2678 17.4512 17.7417 16.925C17.2156 16.3989 16.7766 15.6939 16.4639 15.0998C16.4174 15.0116 16.3741 14.9264 16.334 14.8455L17.3646 13.8149ZM16.9875 17.6793C17.61 18.3019 18.4018 18.7919 19.0289 19.125L14.976 23.1779C14.7245 23.4294 14.3982 23.5926 14.0461 23.6429L11.605 23.9916C11.0626 24.0691 10.5976 23.6041 10.6751 23.0617L11.0238 20.6207C11.0741 20.2685 11.2373 19.9422 11.4888 19.6907L15.5417 15.6378C15.8748 16.2649 16.3649 17.0567 16.9875 17.6793Z" fill="#9604AE"/>
</svg>
