<svg width="32" height="33" viewBox="0 0 32 33" fill="none" xmlns="http://www.w3.org/2000/svg">
<path fill-rule="evenodd" clip-rule="evenodd" d="M25.3335 2.54199C24.7813 2.54199 24.3335 2.98971 24.3335 3.54199C24.3335 4.09428 24.7813 4.54199 25.3335 4.54199H26.8169C21.8243 8.52354 18.0252 11.045 14.4131 12.7203C10.6832 14.4503 7.10504 15.3001 2.54011 15.8834C1.99228 15.9534 1.60492 16.4543 1.67492 17.0021C1.74492 17.5499 2.24578 17.9373 2.79361 17.8673C7.48484 17.2678 11.2791 16.3785 15.2546 14.5347C19.1417 12.7318 23.1562 10.0375 28.3335 5.89014V7.542C28.3335 8.09428 28.7813 8.542 29.3335 8.542C29.8858 8.542 30.3335 8.09428 30.3335 7.542V4.87533C30.3335 3.58666 29.2889 2.54199 28.0002 2.54199H25.3335ZM29.3336 14.2088C29.3336 12.7361 28.1397 11.5422 26.6669 11.5422C25.1942 11.5422 24.0003 12.7361 24.0003 14.2088L24.0003 27.5422C24.0003 29.0149 25.1942 30.2088 26.6669 30.2088C28.1397 30.2088 29.3336 29.0149 29.3336 27.5422V14.2088ZM8.00025 24.8755C8.00025 23.4027 6.80634 22.2088 5.33358 22.2088C3.86082 22.2088 2.66691 23.4027 2.66691 24.8755L2.66691 27.5422C2.66691 29.0149 3.86082 30.2088 5.33358 30.2088C6.80634 30.2088 8.00025 29.0149 8.00025 27.5422V24.8755ZM16.0003 16.8755C17.473 16.8755 18.6669 18.0694 18.6669 19.5422V27.5422C18.6669 29.0149 17.473 30.2088 16.0003 30.2088C14.5275 30.2088 13.3336 29.0149 13.3336 27.5422V19.5422C13.3336 18.0694 14.5275 16.8755 16.0003 16.8755Z" fill="#0540F2"/>
</svg>
