<svg width="24" height="24" viewBox="0 0 24 24" fill="none" xmlns="http://www.w3.org/2000/svg">
<path fill-rule="evenodd" clip-rule="evenodd" d="M14.6666 5.33333C14.6666 8.27885 12.2788 10.6667 9.33331 10.6667C6.38779 10.6667 3.99998 8.27885 3.99998 5.33333C3.99998 2.38781 6.38779 0 9.33331 0C12.2788 0 14.6666 2.38781 14.6666 5.33333ZM18.6667 18.6666C18.6667 21.6122 14.488 24 9.33333 24C4.17868 24 0 21.6122 0 18.6666C0 15.7211 4.17868 13.3333 9.33333 13.3333C14.488 13.3333 18.6667 15.7211 18.6667 18.6666ZM20 13C19.4477 13 19 12.5523 19 12V10.3333H17.3333C16.781 10.3333 16.3333 9.8856 16.3333 9.33332C16.3333 8.78103 16.781 8.33332 17.3333 8.33332H19V6.66665C19 6.11437 19.4477 5.66665 20 5.66665C20.5523 5.66665 21 6.11437 21 6.66665V8.33332H22.6667C23.2189 8.33332 23.6667 8.78103 23.6667 9.33332C23.6667 9.8856 23.2189 10.3333 22.6667 10.3333H21V12C21 12.5523 20.5523 13 20 13Z" fill="#08932B"/>
</svg>
