<svg width="33" height="33" viewBox="0 0 33 33" fill="none" xmlns="http://www.w3.org/2000/svg">
<path fill-rule="evenodd" clip-rule="evenodd" d="M30.2334 11.3506V24.2815C30.2334 27.1718 27.8903 29.5148 25 29.5148H8.80004C5.90975 29.5148 3.56671 27.1718 3.56671 24.2815V11.3506C3.56671 11.0627 3.59044 10.7769 3.63695 10.4959H30.1631C30.2097 10.7769 30.2334 11.0627 30.2334 11.3506ZM29.4105 8.53345C29.311 8.3777 29.2029 8.22675 29.0866 8.08133L26.4713 4.81224C25.4782 3.57081 23.9746 2.84814 22.3848 2.84814H11.4153C9.82551 2.84814 8.32191 3.57081 7.32877 4.81224L4.7135 8.08133C4.59716 8.22675 4.48912 8.3777 4.38963 8.53345H29.4105ZM7.56669 12.5335C7.02476 12.5335 6.58544 12.9728 6.58544 13.5148C6.58544 14.0567 7.02476 14.496 7.56669 14.496H11.5667C12.1086 14.496 12.5479 14.0567 12.5479 13.5148C12.5479 12.9728 12.1086 12.5335 11.5667 12.5335H7.56669ZM6.58544 17.5148C6.58544 16.9729 7.02476 16.5336 7.56669 16.5336H11.5667C12.1086 16.5336 12.5479 16.9729 12.5479 17.5148C12.5479 18.0567 12.1086 18.4961 11.5667 18.4961H7.56669C7.02476 18.4961 6.58544 18.0567 6.58544 17.5148Z" fill="#9604AE"/>
</svg>
