<svg width="28" height="28" viewBox="0 0 28 28" fill="none" xmlns="http://www.w3.org/2000/svg">
<path fill-rule="evenodd" clip-rule="evenodd" d="M17.975 0.666672H4.49165C2.32393 0.666672 0.56665 2.42395 0.56665 4.59167V23.4083C0.56665 25.5761 2.32393 27.3333 4.49165 27.3333H24.5667C23.0939 27.3333 21.9 26.1394 21.9 24.6667V8.66667V4.59167C21.9 2.42395 20.1427 0.666672 17.975 0.666672ZM4.89998 7.33334C4.89998 6.78105 5.3477 6.33334 5.89998 6.33334H16.5666C17.1189 6.33334 17.5666 6.78105 17.5666 7.33334C17.5666 7.88562 17.1189 8.33334 16.5666 8.33334H5.89998C5.3477 8.33334 4.89998 7.88562 4.89998 7.33334ZM5.89998 13C5.3477 13 4.89998 13.4477 4.89998 14C4.89998 14.5523 5.3477 15 5.89998 15H16.5666C17.1189 15 17.5666 14.5523 17.5666 14C17.5666 13.4477 17.1189 13 16.5666 13H5.89998ZM4.89998 20.6667C4.89998 20.1144 5.3477 19.6667 5.89998 19.6667H11.2333C11.7856 19.6667 12.2333 20.1144 12.2333 20.6667C12.2333 21.219 11.7856 21.6667 11.2333 21.6667H5.89998C5.3477 21.6667 4.89998 21.219 4.89998 20.6667ZM27.2333 23.6667V11.3333C27.2333 9.86058 26.0394 8.66667 24.5667 8.66667H23.9V23.6667C23.9 24.5871 24.6462 25.3333 25.5667 25.3333C26.4871 25.3333 27.2333 24.5871 27.2333 23.6667Z" fill="#159BD7"/>
</svg>
