<svg width="33" height="33" viewBox="0 0 33 33" fill="none" xmlns="http://www.w3.org/2000/svg">
<path fill-rule="evenodd" clip-rule="evenodd" d="M12.1084 6.0632L10.2334 8.87573H8.90004C5.95453 8.87573 3.56671 11.2635 3.56671 14.2091V23.5424C3.56671 26.4879 5.95453 28.8757 8.90004 28.8757H24.9C27.8456 28.8757 30.2334 26.4879 30.2334 23.5424V14.2091C30.2334 11.2635 27.8456 8.87573 24.9 8.87573H23.5667L21.6917 6.0632C21.1971 5.32134 20.3645 4.87573 19.4729 4.87573H14.3272C13.4356 4.87573 12.603 5.32134 12.1084 6.0632ZM20.9001 18.8757C20.9001 21.0849 19.1092 22.8757 16.9001 22.8757C14.6909 22.8757 12.9001 21.0849 12.9001 18.8757C12.9001 16.6666 14.6909 14.8757 16.9001 14.8757C19.1092 14.8757 20.9001 16.6666 20.9001 18.8757ZM16.9001 10.2089C17.6364 10.2089 18.2334 9.61194 18.2334 8.87556C18.2334 8.13918 17.6364 7.54223 16.9001 7.54223C16.1637 7.54223 15.5667 8.13918 15.5667 8.87556C15.5667 9.61194 16.1637 10.2089 16.9001 10.2089Z" fill="#4335E7"/>
</svg>
