<svg width="24" height="28" viewBox="0 0 24 28" fill="none" xmlns="http://www.w3.org/2000/svg">
<path fill-rule="evenodd" clip-rule="evenodd" d="M2.66679 0.666672H21.3335C22.8062 0.666672 24.0001 1.86058 24.0001 3.33334V23.5392C24.0001 25.3861 22.168 26.6738 20.4302 26.0482L18.3479 25.2985C17.6972 25.0643 16.981 25.092 16.3503 25.3758L13.0944 26.8409C12.3985 27.1541 11.6018 27.1541 10.9058 26.8409L7.64996 25.3758C7.01931 25.092 6.30308 25.0643 5.6524 25.2985L3.57004 26.0482C1.83228 26.6738 0.00012207 25.3861 0.00012207 23.5392V3.33334C0.00012207 1.86058 1.19403 0.666672 2.66679 0.666672ZM16.9545 6.50155C16.2857 5.83283 15.2015 5.83283 14.5328 6.50155L13.4592 7.57511C13.501 7.6594 13.5461 7.74808 13.5945 7.84003C13.9203 8.45886 14.3775 9.19321 14.9256 9.74127C15.4737 10.2893 16.208 10.7466 16.8268 11.0724C16.9188 11.1208 17.0074 11.1659 17.0917 11.2076L18.1653 10.1341C18.834 9.46533 18.834 8.38111 18.1653 7.71239L16.9545 6.50155ZM16.2664 12.0329C15.6132 11.6859 14.7885 11.1755 14.1399 10.5269C13.4914 9.8784 12.981 9.0536 12.6339 8.4004L8.41213 12.6222C8.15014 12.8842 7.9802 13.2241 7.9278 13.5909L7.56455 16.1336C7.48382 16.6987 7.96816 17.183 8.53321 17.1023L11.076 16.739C11.4428 16.6866 11.7826 16.5167 12.0446 16.2547L16.2664 12.0329ZM5.33346 18.7778C5.33346 18.471 5.58219 18.2222 5.88902 18.2222H18.1112C18.4181 18.2222 18.6668 18.471 18.6668 18.7778C18.6668 19.0846 18.4181 19.3334 18.1112 19.3334H5.88902C5.58219 19.3334 5.33346 19.0846 5.33346 18.7778Z" fill="#159BD7"/>
</svg>
