<svg width="25" height="28" viewBox="0 0 25 28" fill="none" xmlns="http://www.w3.org/2000/svg">
<path fill-rule="evenodd" clip-rule="evenodd" d="M18.7091 1C18.7091 0.447716 18.2614 0 17.7091 0C17.1568 0 16.7091 0.447716 16.7091 1V3H8.0424V1C8.0424 0.447716 7.59469 0 7.0424 0C6.49012 0 6.0424 0.447716 6.0424 1V3H5.70907C2.76355 3 0.375732 5.38782 0.375732 8.33334V22.3334C0.375732 25.2789 2.76355 27.6667 5.70907 27.6667H19.0424C21.9879 27.6667 24.3757 25.2789 24.3757 22.3334V8.33334C24.3757 5.38782 21.9879 3 19.0424 3H18.7091V1ZM14.7335 15.2563C14.7335 15.9085 14.3317 16.4669 13.7622 16.6975V18.3647C13.7622 18.6865 13.5012 18.9475 13.1793 18.9475C12.8575 18.9475 12.5965 18.6865 12.5965 18.3647V16.6975C12.2069 16.5398 11.8958 16.2287 11.7381 15.8391H8.51675C8.19487 15.8391 7.93393 15.5782 7.93393 15.2563C7.93393 14.9344 8.19487 14.6734 8.51675 14.6734H11.7381C11.9687 14.1039 12.5271 13.7021 13.1793 13.7021C14.0377 13.7021 14.7335 14.3979 14.7335 15.2563ZM6.60396 15.4293C6.65685 14.5918 6.883 13.7697 7.27328 13.0166C7.85535 11.8936 8.77346 10.9803 9.89952 10.4041C11.0256 9.82792 12.3034 9.61761 13.5547 9.80252C14.8061 9.98744 15.9684 10.5584 16.8797 11.4356C17.791 12.3129 18.4057 13.4527 18.6381 14.6961C18.8704 15.9395 18.7089 17.2244 18.1759 18.3715C17.643 19.5187 16.7653 20.4709 15.6652 21.0952C14.9275 21.5139 14.1146 21.7711 13.2797 21.8558C13.1694 21.867 13.0587 21.8752 12.9477 21.8803C12.8766 21.8836 12.8065 21.8936 12.7385 21.9097C12.3267 22.0073 11.99 22.3302 11.9455 22.759C11.8936 23.2586 12.2574 23.7112 12.7596 23.7053C12.8505 23.7042 12.9412 23.7016 13.0319 23.6974C13.1981 23.6897 13.3639 23.6767 13.5289 23.6586C14.5908 23.5419 15.6239 23.2102 16.563 22.6772C17.9925 21.8659 19.1331 20.6286 19.8256 19.1379C20.5181 17.6473 20.7281 15.9776 20.4261 14.3619C20.1242 12.7462 19.3254 11.2651 18.1412 10.1251C16.9571 8.98522 15.4467 8.24335 13.8206 8.00307C12.1946 7.76279 10.5342 8.03607 9.07094 8.78478C7.6077 9.5335 6.41468 10.7203 5.65832 12.1796C5.1614 13.1384 4.86924 14.1833 4.79302 15.2488C4.78117 15.4145 4.77453 15.5806 4.77316 15.747C4.77241 15.8377 4.77323 15.9285 4.77561 16.0193C4.78881 16.5215 5.2549 16.8677 5.75219 16.7969C6.17897 16.7361 6.4888 16.3874 6.57068 15.9722C6.5842 15.9036 6.59151 15.8332 6.5921 15.762C6.59301 15.6509 6.59697 15.54 6.60396 15.4293ZM9.72397 21.1263C9.62683 21.0725 9.53122 21.0161 9.43722 20.9571C9.06067 20.7208 8.71014 20.4431 8.39245 20.1286C8.07475 19.814 7.79367 19.4662 7.55361 19.092C7.49369 18.9986 7.43632 18.9036 7.38158 18.807C7.34647 18.745 7.30588 18.6871 7.26074 18.6337C6.98745 18.3106 6.54721 18.1563 6.14465 18.3105C5.67559 18.4902 5.43645 19.0193 5.66888 19.4646C5.7109 19.5451 5.75429 19.6249 5.79904 19.7038C5.88102 19.8485 5.96754 19.9905 6.05844 20.1296C6.3624 20.5948 6.71549 21.0279 7.1126 21.4211C7.5097 21.8143 7.94628 22.1631 8.41447 22.4625C8.5545 22.552 8.69735 22.6371 8.84282 22.7177C8.92221 22.7616 9.00238 22.8042 9.0833 22.8454C9.53086 23.0735 10.0576 22.8291 10.2326 22.3583C10.3829 21.9542 10.2242 21.5155 9.89845 21.2454C9.84464 21.2008 9.78626 21.1608 9.72397 21.1263Z" fill="#6D64CF"/>
</svg>
