<svg width="32" height="33" viewBox="0 0 32 33" fill="none" xmlns="http://www.w3.org/2000/svg">
<path fill-rule="evenodd" clip-rule="evenodd" d="M23.1192 2.20898H8.88086C6.92164 2.20898 5.33337 3.79724 5.33337 5.75647V18.6913C6.31727 17.5784 7.76028 16.8759 9.36846 16.8759H26.6667L26.6667 19.5425H8.88086C6.92164 19.5425 5.33337 21.1308 5.33337 23.09V23.995C5.33337 25.9543 6.92164 27.5425 8.88086 27.5425H14V23.5423C14 22.4377 14.8954 21.5423 16 21.5423H21.3333C22.4379 21.5423 23.3333 22.4377 23.3333 23.5423V27.5362C25.1929 27.4255 26.6667 25.8824 26.6667 23.995V21.3282V19.5425V5.75647C26.6667 3.79725 25.0784 2.20898 23.1192 2.20898ZM16.0001 5.32227C14.0375 5.32227 12.4465 6.91325 12.4465 8.87581V11.5425V14.2091C12.4465 14.6989 12.8436 15.096 13.3334 15.096C13.8232 15.096 14.2203 14.6989 14.2203 14.2091V12.4294H17.7799V14.2091C17.7799 14.6989 18.1769 15.096 18.6667 15.096C19.1565 15.096 19.5536 14.6989 19.5536 14.2091V11.5425V8.87581C19.5536 6.91325 17.9626 5.32227 16.0001 5.32227ZM17.7799 8.87581V10.6556H14.2203V8.87581C14.2203 7.89286 15.0171 7.09601 16.0001 7.09601C16.983 7.09601 17.7799 7.89286 17.7799 8.87581ZM16.0001 23.5424H21.3334V31.5424L18.6667 28.8757L16.0001 31.5424V23.5424Z" fill="#F2B33D"/>
</svg>
