<svg width="32" height="33" viewBox="0 0 32 33" fill="none" xmlns="http://www.w3.org/2000/svg">
<path fill-rule="evenodd" clip-rule="evenodd" d="M2.66663 6.42347V22.2093V23.2093C2.66663 25.6025 4.64032 27.5426 7.03355 27.5426C9.38997 27.5426 11.3333 25.6324 11.3333 23.276C11.3333 22.6869 11.8109 22.2093 12.4 22.2093H24V6.42346C24 4.46424 22.4117 2.87598 20.4525 2.87598H6.21411C4.25489 2.87598 2.66663 4.46424 2.66663 6.42347ZM13.4815 12.2833C14.7906 12.2833 15.8518 11.2221 15.8518 9.91294C15.8518 8.60382 14.7906 7.54257 13.4815 7.54257C12.1724 7.54257 11.1111 8.60382 11.1111 9.91294C11.1111 11.2221 12.1724 12.2833 13.4815 12.2833ZM13.4815 18.2094C15.7724 18.2094 17.6296 17.1481 17.6296 15.839C17.6296 14.5299 15.7724 13.4686 13.4815 13.4686C11.1905 13.4686 9.33332 14.5299 9.33332 15.839C9.33332 17.1481 11.1905 18.2094 13.4815 18.2094ZM29.1687 26.1958C28.5814 28.503 26.49 30.2093 24 30.2093H7.99998C10.49 30.2093 12.5814 28.503 13.1687 26.1958C13.3504 25.4822 13.9303 24.876 14.6666 24.876H28C28.7364 24.876 29.3504 25.4822 29.1687 26.1958Z" fill="#6CAC03"/>
</svg>
