<svg width="25" height="28" viewBox="0 0 25 28" fill="none" xmlns="http://www.w3.org/2000/svg">
<path fill-rule="evenodd" clip-rule="evenodd" d="M18.6088 1C18.6088 0.447715 18.1611 0 17.6088 0C17.0565 0 16.6088 0.447715 16.6088 1V2.99997H7.94217V1C7.94217 0.447715 7.49445 0 6.94217 0C6.38988 0 5.94217 0.447715 5.94217 1V2.99997H5.50872C2.61843 2.99997 0.275391 5.343 0.275391 8.23329V22.4333C0.275391 25.3236 2.61843 27.6666 5.50872 27.6666H19.0421C21.9324 27.6666 24.2754 25.3236 24.2754 22.4333V8.23329C24.2754 5.34301 21.9324 2.99997 19.0421 2.99997H18.6088V1ZM17.028 13.6585C17.3917 13.2429 17.3496 12.6111 16.934 12.2475C16.5183 11.8838 15.8866 11.9259 15.5229 12.3415L11.6963 16.7147C11.5789 16.849 11.3765 16.8669 11.2372 16.7555L8.90015 14.8858C8.46889 14.5408 7.83959 14.6107 7.49458 15.042C7.14957 15.4733 7.2195 16.1026 7.65076 16.4476L9.98785 18.3172C10.9629 19.0973 12.3792 18.9715 13.2015 18.0317L17.028 13.6585Z" fill="#6D64CF"/>
</svg>
