<svg width="32" height="33" viewBox="0 0 32 33" fill="none" xmlns="http://www.w3.org/2000/svg">
<path fill-rule="evenodd" clip-rule="evenodd" d="M22.6668 2.20898H9.3335C7.12436 2.20898 5.3335 3.99985 5.3335 6.20899V18.6912C6.31739 17.5783 7.76042 16.8757 9.36861 16.8757H26.6668V6.20899C26.6668 3.99985 24.876 2.20898 22.6668 2.20898ZM10.6669 6.20907C10.1146 6.20907 9.66686 6.65679 9.66686 7.20907C9.66686 7.76136 10.1146 8.20907 10.6669 8.20907H21.3335C21.8858 8.20907 22.3335 7.76136 22.3335 7.20907C22.3335 6.65679 21.8858 6.20907 21.3335 6.20907H10.6669ZM9.66675 11.8756C9.66675 11.3233 10.1145 10.8756 10.6668 10.8756H16.0001C16.5524 10.8756 17.0001 11.3233 17.0001 11.8756C17.0001 12.4279 16.5524 12.8756 16.0001 12.8756H10.6668C10.1145 12.8756 9.66675 12.4279 9.66675 11.8756ZM9.33352 19.5424H26.6669V23.5424C26.6669 25.5244 25.2254 27.1697 23.3336 27.4871V23.5423C23.3336 22.4378 22.4381 21.5423 21.3336 21.5423H16.0002C14.8956 21.5423 14.0002 22.4378 14.0002 23.5423V27.5424H9.33352C7.12438 27.5424 5.33352 25.7516 5.33352 23.5424C5.33352 21.3333 7.12438 19.5424 9.33352 19.5424ZM16.0002 23.5424H21.3335V31.5424L18.6669 28.8758L16.0002 31.5424V23.5424Z" fill="#F2B33D"/>
</svg>
