<svg width="24" height="28" viewBox="0 0 24 28" fill="none" xmlns="http://www.w3.org/2000/svg">
<path fill-rule="evenodd" clip-rule="evenodd" d="M2.66667 0.666672H21.3333C22.8061 0.666672 24 1.86058 24 3.33334V23.5391C24 25.3861 22.1678 26.6738 20.4301 26.0482L18.3477 25.2985C17.6971 25.0643 16.9808 25.092 16.3502 25.3758L13.0943 26.8409C12.3984 27.1541 11.6016 27.1541 10.9057 26.8409L7.64983 25.3758C7.01919 25.092 6.30295 25.0643 5.65227 25.2985L3.56992 26.0482C1.83216 26.6738 0 25.3861 0 23.5391V3.33334C0 1.86058 1.19391 0.666672 2.66667 0.666672ZM18.6667 8.33334C19.219 8.33334 19.6667 7.88562 19.6667 7.33334C19.6667 6.78105 19.219 6.33334 18.6667 6.33334L5.33333 6.33334C4.78105 6.33334 4.33333 6.78105 4.33333 7.33334C4.33333 7.88562 4.78105 8.33334 5.33333 8.33334L18.6667 8.33334ZM19.6667 12.6667C19.6667 13.219 19.219 13.6667 18.6667 13.6667L5.33333 13.6667C4.78105 13.6667 4.33333 13.219 4.33333 12.6667C4.33333 12.1144 4.78105 11.6667 5.33333 11.6667L18.6667 11.6667C19.219 11.6667 19.6667 12.1144 19.6667 12.6667ZM12 19C12.5523 19 13 18.5523 13 18C13 17.4477 12.5523 17 12 17L5.33333 17C4.78105 17 4.33333 17.4477 4.33333 18C4.33333 18.5523 4.78105 19 5.33333 19L12 19Z" fill="#159BD7"/>
</svg>
