<svg width="25" height="28" viewBox="0 0 25 28" fill="none" xmlns="http://www.w3.org/2000/svg">
<path fill-rule="evenodd" clip-rule="evenodd" d="M17.7091 0C18.2613 0 18.7091 0.447715 18.7091 1V3.00005H19.0424C21.9879 3.00005 24.3757 5.38786 24.3757 8.33338V22.3334C24.3757 25.2789 21.9879 27.6667 19.0424 27.6667H5.70907C2.76355 27.6667 0.375732 25.2789 0.375732 22.3334V8.33338C0.375732 5.38786 2.76355 3.00005 5.70907 3.00005H6.04242V1C6.04242 0.447715 6.49014 0 7.04242 0C7.5947 0 8.04242 0.447715 8.04242 1V3.00005H16.7091V1C16.7091 0.447715 17.1568 0 17.7091 0ZM20.0424 15.6667C20.0424 16.219 19.5947 16.6667 19.0424 16.6667H11.0424C10.4901 16.6667 10.0424 16.219 10.0424 15.6667C10.0424 15.1144 10.4901 14.6667 11.0424 14.6667H19.0424C19.5947 14.6667 20.0424 15.1144 20.0424 15.6667ZM19.0424 11.3334C19.5947 11.3334 20.0424 10.8857 20.0424 10.3334C20.0424 9.78108 19.5947 9.33337 19.0424 9.33337H11.0424C10.4901 9.33337 10.0424 9.78108 10.0424 10.3334C10.0424 10.8857 10.4901 11.3334 11.0424 11.3334H19.0424ZM20.0424 21C20.0424 21.5523 19.5947 22 19.0424 22H11.0424C10.4901 22 10.0424 21.5523 10.0424 21C10.0424 20.4477 10.4901 20 11.0424 20H19.0424C19.5947 20 20.0424 20.4477 20.0424 21ZM7.70908 10.3333C7.70908 11.0697 7.11213 11.6667 6.37575 11.6667C5.63937 11.6667 5.04242 11.0697 5.04242 10.3333C5.04242 9.59695 5.63937 9 6.37575 9C7.11213 9 7.70908 9.59695 7.70908 10.3333ZM6.37575 17C7.11213 17 7.70908 16.4031 7.70908 15.6667C7.70908 14.9303 7.11213 14.3334 6.37575 14.3334C5.63937 14.3334 5.04242 14.9303 5.04242 15.6667C5.04242 16.4031 5.63937 17 6.37575 17ZM7.70908 21C7.70908 21.7364 7.11213 22.3334 6.37575 22.3334C5.63937 22.3334 5.04242 21.7364 5.04242 21C5.04242 20.2637 5.63937 19.6667 6.37575 19.6667C7.11213 19.6667 7.70908 20.2637 7.70908 21Z" fill="#6D64CF"/>
</svg>
