<svg width="32" height="33" viewBox="0 0 32 33" fill="none" xmlns="http://www.w3.org/2000/svg">
<path fill-rule="evenodd" clip-rule="evenodd" d="M4.00012 22.8758V7.54248C4.00012 5.33334 5.79098 3.54248 8.00012 3.54248H21.3335C23.5426 3.54248 25.3335 5.33334 25.3335 7.54248V22.8758H13.7335C13.1444 22.8758 12.6668 23.3534 12.6668 23.9425C12.6668 26.2989 10.7235 28.2092 8.36705 28.2092C5.97381 28.2092 4.00012 26.2691 4.00012 23.8758V22.8758ZM9.33346 9.20907C8.78118 9.20907 8.33346 9.65679 8.33346 10.2091C8.33346 10.7614 8.78118 11.2091 9.33346 11.2091H20.0001C20.5524 11.2091 21.0001 10.7614 21.0001 10.2091C21.0001 9.65679 20.5524 9.20907 20.0001 9.20907H9.33346ZM8.33346 16.8757C8.33346 16.3235 8.78118 15.8757 9.33346 15.8757H14.6668C15.2191 15.8757 15.6668 16.3235 15.6668 16.8757C15.6668 17.428 15.2191 17.8757 14.6668 17.8757H9.33346C8.78118 17.8757 8.33346 17.428 8.33346 16.8757ZM30.5022 26.1956C29.9149 28.5027 27.8235 30.2091 25.3335 30.2091H9.33346C11.8234 30.2091 13.9149 28.5027 14.5022 26.1956C14.6839 25.482 15.2638 24.8757 16.0001 24.8757H29.3335C30.0699 24.8757 30.6839 25.482 30.5022 26.1956Z" fill="#6CAC03"/>
</svg>
