<svg width="22" height="28" viewBox="0 0 22 28" fill="none" xmlns="http://www.w3.org/2000/svg">
<path fill-rule="evenodd" clip-rule="evenodd" d="M4.33325 0.542236H17.6666C19.8757 0.542236 21.6666 2.3331 21.6666 4.54224V17.209H4.33334C2.79659 17.209 1.39478 17.7867 0.333252 18.7368V4.54224C0.333252 2.3331 2.12411 0.542236 4.33325 0.542236ZM14.9637 4.94352C14.4287 4.40854 13.5613 4.40854 13.0263 4.94352L12.1675 5.80236C12.2009 5.86979 12.237 5.94074 12.2757 6.0143C12.5363 6.50936 12.9021 7.09684 13.3406 7.53529C13.779 7.97373 14.3665 8.33953 14.8616 8.60017C14.9351 8.63889 15.0061 8.67499 15.0735 8.70837L15.9323 7.84952C16.4673 7.31454 16.4673 6.44717 15.9323 5.91218L14.9637 4.94352ZM14.4132 9.36861C13.8907 9.09099 13.2309 8.68265 12.712 8.16383C12.1932 7.64499 11.7849 6.98515 11.5072 6.4626L8.12981 9.84004C7.92021 10.0496 7.78426 10.3215 7.74234 10.615L7.45174 12.6492C7.38716 13.1012 7.77463 13.4887 8.22667 13.4241L10.2609 13.1335C10.5543 13.0916 10.8262 12.9556 11.0358 12.746L14.4132 9.36861ZM4.33334 19.209C2.1242 19.209 0.333337 20.9998 0.333337 23.209C0.333337 25.4181 2.1242 27.209 4.33333 27.209H17.6667C19.8758 27.209 21.6667 25.4181 21.6667 23.209V19.209H4.33334Z" fill="#397DFF"/>
</svg>
