<svg width="32" height="33" viewBox="0 0 32 33" fill="none" xmlns="http://www.w3.org/2000/svg">
<path fill-rule="evenodd" clip-rule="evenodd" d="M2.66663 7.57812C2.66663 4.96583 4.78431 2.84814 7.39661 2.84814H24.6033C27.2156 2.84814 29.3333 4.96583 29.3333 7.57812V22.1182C29.3333 24.7305 27.2156 26.8481 24.6033 26.8481H16.9999V28.515H18.6666C19.2188 28.515 19.6665 28.9627 19.6665 29.515C19.6665 30.0672 19.2188 30.515 18.6666 30.515H13.3332C12.7809 30.515 12.3332 30.0672 12.3332 29.515C12.3332 28.9627 12.7809 28.515 13.3332 28.515H14.9999V26.8481H7.3966C4.78431 26.8481 2.66663 24.7305 2.66663 22.1182V7.57812ZM13.9999 10.5149C13.4477 10.5149 12.9999 10.9627 12.9999 11.5149V12.1816C12.9999 14.2067 11.3583 15.8483 9.33327 15.8483H7.99994C7.44765 15.8483 6.99994 15.4006 6.99994 14.8483C6.99994 14.296 7.44765 13.8483 7.99994 13.8483H9.33327C10.2537 13.8483 10.9999 13.1021 10.9999 12.1816V11.5149C10.9999 9.85809 12.3431 8.51494 13.9999 8.51494C15.6568 8.51494 16.9999 9.85809 16.9999 11.5149V18.1816C16.9999 18.7339 17.4477 19.1816 17.9999 19.1816C18.5522 19.1816 18.9999 18.7339 18.9999 18.1816V17.5149C18.9999 15.4899 20.6416 13.8483 22.6666 13.8483H23.9999C24.5522 13.8483 24.9999 14.296 24.9999 14.8483C24.9999 15.4006 24.5522 15.8483 23.9999 15.8483H22.6666C21.7461 15.8483 20.9999 16.5945 20.9999 17.5149V18.1816C20.9999 19.8385 19.6568 21.1816 17.9999 21.1816C16.3431 21.1816 14.9999 19.8385 14.9999 18.1816V11.5149C14.9999 10.9627 14.5522 10.5149 13.9999 10.5149Z" fill="#9604AE"/>
</svg>
