<svg width="28" height="27" viewBox="0 0 28 27" fill="none" xmlns="http://www.w3.org/2000/svg">
<path fill-rule="evenodd" clip-rule="evenodd" d="M6.5245 0.666779C3.28935 0.666779 0.666626 3.2895 0.666626 6.52465V18.9295C0.666626 20.9097 1.6492 22.6605 3.15341 23.7209C3.18526 23.7431 3.21712 23.7651 3.24943 23.7869C4.18422 24.4186 5.31128 24.7874 6.52449 24.7874H16.4013C16.1523 24.3569 15.9518 23.895 15.807 23.4091H7.2333C5.95502 23.4091 4.78488 22.947 3.88058 22.1804C5.69256 18.9923 8.97636 16.8621 12.7271 16.8621C14.1728 16.8621 15.5491 17.1786 16.7986 17.7502C17.9703 16.1662 19.8518 15.1392 21.9734 15.1392C22.9824 15.1392 23.9374 15.3716 24.7875 15.7857V6.52455C24.7875 3.2894 22.1647 0.666687 18.9296 0.666687L6.5245 0.666779ZM12.727 15.4837C15.2018 15.4837 17.2065 13.4791 17.2065 11.0042C17.2065 8.5293 15.2018 6.52465 12.727 6.52465C10.2521 6.52465 8.2474 8.5293 8.2474 11.0042C8.2474 13.4791 10.2521 15.4837 12.727 15.4837Z" fill="#EB9A3A"/>
<path fill-rule="evenodd" clip-rule="evenodd" d="M16.6133 21.5714C16.6133 18.6126 19.0146 16.2113 21.9734 16.2113C24.9322 16.2113 27.3334 18.6126 27.3334 21.5714C27.3334 24.5302 24.9322 26.9314 21.9734 26.9314C19.0146 26.9314 16.6133 24.5302 16.6133 21.5714ZM22.5091 22.1073H24.6533V21.0354H22.5091V18.8912H21.4372V21.0354H19.293V22.1073H21.4372V24.2515H22.5091V22.1073Z" fill="#EB9A3A"/>
</svg>
