<svg width="33" height="33" viewBox="0 0 33 33" fill="none" xmlns="http://www.w3.org/2000/svg">
<path fill-rule="evenodd" clip-rule="evenodd" d="M3.56671 9.43395C3.56671 6.18018 6.20441 3.54248 9.45818 3.54248H24.3419C27.5957 3.54248 30.2334 6.18018 30.2334 9.43395V24.3177C30.2334 27.5714 27.5957 30.2092 24.3419 30.2092H9.45818C6.20441 30.2092 3.56671 27.5714 3.56671 24.3177V9.43395ZM9.45818 5.40295C7.23192 5.40295 5.42718 7.20769 5.42718 9.43395V19.9766L8.55465 22.0616C10.5224 23.3734 13.1425 23.114 14.8148 21.4417L18.9853 17.2712C20.6576 15.5989 23.2777 15.3395 25.2454 16.6513L28.1985 18.62C28.2588 18.6602 28.3169 18.7028 28.3729 18.7476V9.43395C28.3729 7.20769 26.5682 5.40295 24.3419 5.40295H9.45818ZM12.559 15.6354C14.2715 15.6354 15.6598 14.2471 15.6598 12.5346C15.6598 10.8221 14.2715 9.43381 12.559 9.43381C10.8465 9.43381 9.4582 10.8221 9.4582 12.5346C9.4582 14.2471 10.8465 15.6354 12.559 15.6354Z" fill="#4335E7"/>
</svg>
