<svg width="32" height="33" viewBox="0 0 32 33" fill="none" xmlns="http://www.w3.org/2000/svg">
<path fill-rule="evenodd" clip-rule="evenodd" d="M13.7091 2.87573C12.2364 2.87573 11.0425 4.06964 11.0425 5.5424C11.0425 7.01516 12.2364 8.20907 13.7091 8.20907H19.0425C20.5152 8.20907 21.7091 7.01516 21.7091 5.5424C21.7091 4.06964 20.5152 2.87573 19.0425 2.87573H13.7091ZM9.04264 5.58374C6.41168 5.91173 4.37579 8.15604 4.37579 10.8758V24.2092C4.37579 27.1547 6.76361 29.5425 9.70913 29.5425H23.0425C25.988 29.5425 28.3758 27.1547 28.3758 24.2092V10.8758C28.3758 8.15603 26.3399 5.91173 23.709 5.58374C23.6868 8.14209 21.606 10.2092 19.0425 10.2092H13.7091C11.1456 10.2092 9.06479 8.14209 9.04264 5.58374ZM21.6832 22.4823C21.6832 23.8042 20.5603 24.8759 19.175 24.8759H14.1586C12.7734 24.8759 11.6504 23.8042 11.6504 22.4823V19.5557C11.6504 19.1307 11.4735 18.7232 11.1586 18.4227C10.4291 17.7265 10.5239 16.5731 11.3583 15.994L15.1916 13.3336C16.0711 12.7232 17.2626 12.7232 18.1421 13.3336L21.9753 15.994C22.8097 16.5731 22.9045 17.7265 22.175 18.4227C21.8601 18.7232 21.6832 19.1307 21.6832 19.5557V22.4823ZM16.6668 22.4758C17.3296 22.4758 17.8668 21.9386 17.8668 21.2758C17.8668 20.6131 17.3296 20.0758 16.6668 20.0758C16.0041 20.0758 15.4668 20.6131 15.4668 21.2758C15.4668 21.9386 16.0041 22.4758 16.6668 22.4758Z" fill="#4335E7"/>
</svg>
