<svg width="25" height="27" viewBox="0 0 25 27" fill="none" xmlns="http://www.w3.org/2000/svg">
<path fill-rule="evenodd" clip-rule="evenodd" d="M9.60899 0C8.13623 0 6.94232 1.19391 6.94232 2.66667C6.94232 4.13943 8.13623 5.33333 9.60899 5.33333H14.9423C16.4151 5.33333 17.609 4.13943 17.609 2.66667C17.609 1.19391 16.4151 0 14.9423 0H9.60899ZM0.275635 7.90004C0.275635 5.20118 2.31859 2.97947 4.94242 2.69702C4.95873 5.26039 7.04177 7.33336 9.60899 7.33336H14.9423C17.5095 7.33336 19.5926 5.2604 19.6089 2.69703C22.2327 2.97949 24.2756 5.20119 24.2756 7.90004V21.4334C24.2756 24.3237 21.9326 26.6667 19.0423 26.6667H5.50897C2.61868 26.6667 0.275635 24.3237 0.275635 21.4334V7.90004ZM11.2756 10.6666C11.2756 10.1143 11.7233 9.6666 12.2756 9.6666H17.6089C18.1612 9.6666 18.6089 10.1143 18.6089 10.6666C18.6089 11.2189 18.1612 11.6666 17.6089 11.6666H12.2756C11.7233 11.6666 11.2756 11.2189 11.2756 10.6666ZM12.2756 15C11.7233 15 11.2756 15.4477 11.2756 16C11.2756 16.5523 11.7233 17 12.2756 17H17.6089C18.1612 17 18.6089 16.5523 18.6089 16C18.6089 15.4477 18.1612 15 17.6089 15H12.2756ZM11.2756 21.3333C11.2756 20.781 11.7233 20.3333 12.2756 20.3333H17.6089C18.1612 20.3333 18.6089 20.781 18.6089 21.3333C18.6089 21.8856 18.1612 22.3333 17.6089 22.3333H12.2756C11.7233 22.3333 11.2756 21.8856 11.2756 21.3333ZM8.94229 10.6666C8.94229 11.403 8.34533 12 7.60895 12C6.87257 12 6.27562 11.403 6.27562 10.6666C6.27562 9.93024 6.87257 9.33329 7.60895 9.33329C8.34533 9.33329 8.94229 9.93024 8.94229 10.6666ZM7.60895 17.3333C8.34533 17.3333 8.94229 16.7364 8.94229 16C8.94229 15.2636 8.34533 14.6667 7.60895 14.6667C6.87257 14.6667 6.27562 15.2636 6.27562 16C6.27562 16.7364 6.87257 17.3333 7.60895 17.3333ZM8.94229 21.3333C8.94229 22.0697 8.34533 22.6667 7.60895 22.6667C6.87257 22.6667 6.27562 22.0697 6.27562 21.3333C6.27562 20.5969 6.87257 20 7.60895 20C8.34533 20 8.94229 20.5969 8.94229 21.3333Z" fill="#EB9A3A"/>
</svg>
