<svg width="25" height="28" viewBox="0 0 25 28" fill="none" xmlns="http://www.w3.org/2000/svg">
<path fill-rule="evenodd" clip-rule="evenodd" d="M7.04242 0C7.5947 0 8.04242 0.447715 8.04242 1V3.00005H16.7091V1C16.7091 0.447715 17.1568 0 17.7091 0C18.2613 0 18.7091 0.447715 18.7091 1V3.00005H19.6458C22.2581 3.00005 24.3757 5.11773 24.3757 7.73003V9.84358C24.3757 10.1572 24.2512 10.458 24.0294 10.6797L7.38874 27.3204C7.16698 27.5421 6.86621 27.6667 6.55259 27.6667H5.10571C2.49342 27.6667 0.375732 25.549 0.375732 22.9367V7.73002C0.375732 5.11773 2.49342 3.00005 5.10571 3.00005H6.04242V1C6.04242 0.447715 6.49014 0 7.04242 0ZM16.3758 11.3334C16.928 11.3334 17.3758 10.8857 17.3758 10.3334C17.3758 9.78108 16.928 9.33337 16.3758 9.33337H7.04242C6.49013 9.33337 6.04242 9.78108 6.04242 10.3334C6.04242 10.8857 6.49013 11.3334 7.04242 11.3334H16.3758ZM12.3758 16.6667C12.928 16.6667 13.3758 16.219 13.3758 15.6667C13.3758 15.1144 12.928 14.6667 12.3758 14.6667H7.04242C6.49014 14.6667 6.04242 15.1144 6.04242 15.6667C6.04242 16.219 6.49014 16.6667 7.04242 16.6667H12.3758ZM9.37575 21C9.37575 21.5523 8.92804 22 8.37575 22H7.04242C6.49014 22 6.04242 21.5523 6.04242 21C6.04242 20.4478 6.49014 20 7.04242 20H8.37575C8.92804 20 9.37575 20.4478 9.37575 21ZM23.7221 16.3203C22.8506 15.4488 21.4375 15.4488 20.566 16.3203L13.8796 23.0067C13.7187 23.1676 13.6015 23.3669 13.5392 23.5857L12.6671 26.6446C12.54 27.0904 12.952 27.5024 13.3978 27.3753L16.4568 26.5033C16.6756 26.4409 16.8748 26.3237 17.0357 26.1628L23.7221 19.4764C24.5936 18.6049 24.5936 17.1919 23.7221 16.3203Z" fill="#6D64CF"/>
</svg>
