<svg width="24" height="24" viewBox="0 0 24 24" fill="none" xmlns="http://www.w3.org/2000/svg">
<path fill-rule="evenodd" clip-rule="evenodd" d="M2.25 12C2.25 10.7412 3.09575 9.67998 4.25 9.35352L4.25 3C4.25 2.58579 4.58579 2.25 5 2.25C5.41421 2.25 5.75 2.58579 5.75 3L5.75 9.35352C6.90425 9.67998 7.75 10.7412 7.75 12C7.75 13.2588 6.90425 14.32 5.75 14.6465L5.75 21C5.75 21.4142 5.41421 21.75 5 21.75C4.58579 21.75 4.25 21.4142 4.25 21L4.25 14.6465C3.09575 14.32 2.25 13.2588 2.25 12ZM12.7502 4.35352L12.7502 3C12.7502 2.58579 12.4144 2.25 12.0002 2.25C11.586 2.25 11.2502 2.58579 11.2502 3V4.35352C10.0959 4.67998 9.2502 5.74122 9.2502 7C9.2502 8.51878 10.4814 9.75 12.0002 9.75C13.519 9.75 14.7502 8.51878 14.7502 7C14.7502 5.74122 13.9044 4.67998 12.7502 4.35352ZM12.0002 21.75C11.586 21.75 11.2502 21.4142 11.2502 21V12C11.2502 11.5858 11.586 11.25 12.0002 11.25C12.4144 11.25 12.7502 11.5858 12.7502 12L12.7502 21C12.7502 21.4142 12.4144 21.75 12.0002 21.75ZM18.9998 12.75C18.5856 12.75 18.2498 12.4142 18.2498 12V3C18.2498 2.58579 18.5856 2.25 18.9998 2.25C19.414 2.25 19.7498 2.58579 19.7498 3V12C19.7498 12.4142 19.414 12.75 18.9998 12.75ZM18.9998 21.75C18.5856 21.75 18.2498 21.4142 18.2498 21V19.6465C17.0956 19.32 16.2498 18.2588 16.2498 17C16.2498 15.4812 17.481 14.25 18.9998 14.25C20.5186 14.25 21.7498 15.4812 21.7498 17C21.7498 18.2588 20.9041 19.32 19.7498 19.6465V21C19.7498 21.4142 19.414 21.75 18.9998 21.75Z" fill="#159BD7"/>
</svg>
