<svg width="22" height="28" viewBox="0 0 22 28" fill="none" xmlns="http://www.w3.org/2000/svg">
<path fill-rule="evenodd" clip-rule="evenodd" d="M3.88074 0.542236H18.1191C20.0783 0.542236 21.6666 2.1305 21.6666 4.08972V17.2089H4.33317C2.7965 17.2089 1.39476 17.7866 0.333252 18.7366V4.08972C0.333252 2.1305 1.92152 0.542236 3.88074 0.542236ZM10.9998 4.87555C11.552 4.87555 11.9998 5.32327 11.9998 5.87555V8.87555H14.9998C15.552 8.87555 15.9998 9.32327 15.9998 9.87555C15.9998 10.4278 15.552 10.8756 14.9998 10.8756H11.9998V13.8756C11.9998 14.4278 11.552 14.8756 10.9998 14.8756C10.4475 14.8756 9.99976 14.4278 9.99976 13.8756V10.8756H6.99976C6.44747 10.8756 5.99976 10.4278 5.99976 9.87555C5.99976 9.32327 6.44747 8.87555 6.99976 8.87555H9.99976V5.87555C9.99976 5.32327 10.4475 4.87555 10.9998 4.87555ZM3.88074 19.2088C1.92152 19.2088 0.333252 20.7971 0.333252 22.7563V23.6613C0.333252 25.6206 1.92152 27.2088 3.88074 27.2088H18.1191C20.0783 27.2088 21.6666 25.6206 21.6666 23.6613V19.2088H3.88074Z" fill="#397DFF"/>
</svg>
