<svg width="32" height="33" viewBox="0 0 32 33" fill="none" xmlns="http://www.w3.org/2000/svg">
<path fill-rule="evenodd" clip-rule="evenodd" d="M11.6668 5.87549C11.6668 4.21864 13.0099 2.87549 14.6668 2.87549H17.3334C18.9903 2.87549 20.3334 4.21864 20.3334 5.87549V7.20883H11.6668V5.87549ZM9.66675 7.20883V5.87549C9.66675 3.11407 11.9053 0.875488 14.6668 0.875488H17.3334C20.0949 0.875488 22.3334 3.11407 22.3334 5.87549V7.20883H24.0001C26.9456 7.20883 29.3334 9.59664 29.3334 12.5422V14.106C28.4083 14.5517 27.2473 15.0851 25.9605 15.6181C23.5648 16.6105 20.8184 17.5643 18.3697 17.9846C17.9262 17.1277 17.0315 16.5422 16.0001 16.5422C14.9687 16.5422 14.074 17.1277 13.6304 17.9846C11.1817 17.5643 8.43536 16.6105 6.0396 15.6181C4.75287 15.0852 3.59188 14.5517 2.66675 14.106V12.5422C2.66675 9.59664 5.05456 7.20883 8.00009 7.20883H9.66675ZM26.7259 17.4659C27.6763 17.0722 28.5592 16.6788 29.3334 16.3187V23.2088C29.3334 26.1544 26.9456 28.5422 24.0001 28.5422H8.00008C5.05456 28.5422 2.66675 26.1544 2.66675 23.2088V16.3187C3.44099 16.6788 4.32382 17.0722 5.27423 17.4659C7.71764 18.478 10.6955 19.5297 13.4469 19.981C13.778 21.0772 14.7958 21.8755 16.0001 21.8755C17.2044 21.8755 18.2222 21.0772 18.5533 19.9809C21.3046 19.5297 24.2825 18.478 26.7259 17.4659Z" fill="#0540F2"/>
</svg>
