<svg width="28" height="28" viewBox="0 0 28 28" fill="none" xmlns="http://www.w3.org/2000/svg">
<path fill-rule="evenodd" clip-rule="evenodd" d="M4.66675 0.542236C2.45761 0.542236 0.666748 2.3331 0.666748 4.54224V23.2089C0.666748 25.4181 2.45761 27.2089 4.66675 27.2089H12.6668V4.54224C12.6668 2.3331 10.8759 0.542236 8.66675 0.542236H4.66675ZM4.66667 4.87562C4.11439 4.87562 3.66667 5.32333 3.66667 5.87562C3.66667 6.4279 4.11439 6.87562 4.66667 6.87562H8.66667C9.21896 6.87562 9.66668 6.4279 9.66668 5.87562C9.66668 5.32333 9.21896 4.87562 8.66667 4.87562H4.66667ZM3.66667 9.87562C3.66667 9.32333 4.11439 8.87562 4.66667 8.87562H8.66667C9.21896 8.87562 9.66668 9.32333 9.66668 9.87562C9.66668 10.4279 9.21896 10.8756 8.66667 10.8756H4.66667C4.11439 10.8756 3.66667 10.4279 3.66667 9.87562ZM23.3333 8.54228H15.3333V27.209H23.3334C25.5425 27.209 27.3334 25.4181 27.3334 23.209V12.5423C27.3334 10.3331 25.5425 8.54228 23.3333 8.54228ZM19.3334 12.8757C18.7812 12.8757 18.3334 13.3234 18.3334 13.8757C18.3334 14.428 18.7812 14.8757 19.3334 14.8757H23.3334C23.8857 14.8757 24.3334 14.428 24.3334 13.8757C24.3334 13.3234 23.8857 12.8757 23.3334 12.8757H19.3334ZM18.3334 17.8757C18.3334 17.3234 18.7812 16.8757 19.3334 16.8757H23.3334C23.8857 16.8757 24.3334 17.3234 24.3334 17.8757C24.3334 18.428 23.8857 18.8757 23.3334 18.8757H19.3334C18.7812 18.8757 18.3334 18.428 18.3334 17.8757Z" fill="#397DFF"/>
</svg>
