<svg width="32" height="32" viewBox="0 0 32 32" fill="none" xmlns="http://www.w3.org/2000/svg">
<path fill-rule="evenodd" clip-rule="evenodd" d="M11.6668 6.66699C11.6668 5.01014 13.0099 3.66699 14.6668 3.66699H17.3334C18.9903 3.66699 20.3334 5.01014 20.3334 6.66699V8.00029H11.6668V6.66699ZM9.66676 8.00029V6.66699C9.66676 3.90557 11.9053 1.66699 14.6668 1.66699H17.3334C20.0949 1.66699 22.3334 3.90557 22.3334 6.66699V8.00029H24.0997C26.99 8.00029 29.333 10.3433 29.333 13.2336V24.1003C29.333 26.9906 26.99 29.3336 24.0997 29.3336H7.89971C5.00942 29.3336 2.66638 26.9906 2.66638 24.1003V13.2336C2.66638 10.3433 5.00942 8.00029 7.89971 8.00029H9.66676ZM8.33348 13.3335C8.33348 12.7812 8.7812 12.3335 9.33348 12.3335H22.6668C23.2191 12.3335 23.6668 12.7812 23.6668 13.3335C23.6668 13.8858 23.2191 14.3335 22.6668 14.3335H9.33348C8.7812 14.3335 8.33348 13.8858 8.33348 13.3335ZM9.33348 17.6671C8.7812 17.6671 8.33348 18.1148 8.33348 18.6671C8.33348 19.2194 8.7812 19.6671 9.33348 19.6671H22.6668C23.2191 19.6671 23.6668 19.2194 23.6668 18.6671C23.6668 18.1148 23.2191 17.6671 22.6668 17.6671H9.33348ZM8.33348 24.0001C8.33348 23.4478 8.7812 23.0001 9.33348 23.0001H22.6668C23.2191 23.0001 23.6668 23.4478 23.6668 24.0001C23.6668 24.5524 23.2191 25.0001 22.6668 25.0001H9.33348C8.7812 25.0001 8.33348 24.5524 8.33348 24.0001Z" fill="#0540F2"/>
</svg>
