<svg width="33" height="32" viewBox="0 0 33 32" fill="none" xmlns="http://www.w3.org/2000/svg">
<path fill-rule="evenodd" clip-rule="evenodd" d="M29.6833 23.55V10.9941C29.6833 10.7063 29.6596 10.4206 29.6131 10.1396H3.58689C3.54039 10.4205 3.51666 10.7063 3.51666 10.9941V23.55C3.51666 26.4403 5.85971 28.7833 8.75 28.7833H24.45C27.3403 28.7833 29.6833 26.4403 29.6833 23.55ZM28.5365 7.72488C28.6529 7.87033 28.7609 8.0213 28.8604 8.17708H4.33954C4.43903 8.0213 4.54709 7.87033 4.66345 7.72488L7.17872 4.58079C8.17186 3.33937 9.67546 2.6167 11.2653 2.6167H21.9347C23.5245 2.6167 25.0281 3.33937 26.0213 4.58079L28.5365 7.72488ZM11.3667 18.3166C11.3667 15.6931 13.2971 13.5205 15.815 13.1418V19.625C15.815 20.0585 16.1665 20.41 16.6 20.41H21.3979C20.5903 22.2583 18.746 23.55 16.6 23.55C13.7097 23.55 11.3667 21.2069 11.3667 18.3166ZM21.8333 18.3166C21.8333 18.4932 21.8246 18.6678 21.8075 18.84H17.385V13.1418C19.9029 13.5205 21.8333 15.6931 21.8333 18.3166Z" fill="#9604AE"/>
</svg>
