<svg width="28" height="28" viewBox="0 0 28 28" fill="none" xmlns="http://www.w3.org/2000/svg">
<path fill-rule="evenodd" clip-rule="evenodd" d="M5.89998 0.666687H21.9C24.8455 0.666687 27.2333 3.0545 27.2333 6.00002V22C27.2333 24.4857 25.5329 26.5742 23.2318 27.1657C22.8061 27.2752 22.3599 27.3334 21.9 27.3334H5.89998C5.44012 27.3334 4.99384 27.2752 4.56813 27.1657C2.26707 26.5742 0.56665 24.4857 0.56665 22V6.00002C0.56665 3.0545 2.95447 0.666687 5.89998 0.666687ZM8.78836 5.96897C7.2592 5.96897 6.01956 7.23229 6.01956 8.79067V10.5271C6.01956 10.8867 5.73349 11.1783 5.38061 11.1783C5.02773 11.1783 4.74166 10.8867 4.74166 10.5271V8.79067C4.74166 6.51303 6.55343 4.66664 8.78836 4.66664H10.4922C10.8451 4.66664 11.1312 4.95818 11.1312 5.31781C11.1312 5.67743 10.8451 5.96897 10.4922 5.96897H8.78836ZM16.6688 5.31781C16.6688 4.95818 16.9549 4.66664 17.3077 4.66664H19.0116C21.2465 4.66664 23.0583 6.51303 23.0583 8.79067V10.5271C23.0583 10.8867 22.7722 11.1783 22.4194 11.1783C22.0665 11.1783 21.7804 10.8867 21.7804 10.5271V8.79067C21.7804 7.23229 20.5408 5.96897 19.0116 5.96897H17.3077C16.9549 5.96897 16.6688 5.67743 16.6688 5.31781ZM5.38061 16.7734C5.73349 16.7734 6.01956 17.065 6.01956 17.4246V19.2093C6.01956 20.7677 7.2592 22.031 8.78836 22.031H10.4922C10.8451 22.031 11.1312 22.3225 11.1312 22.6821C11.1312 23.0418 10.8451 23.3333 10.4922 23.3333H8.78836C6.55343 23.3333 4.74166 21.4869 4.74166 19.2093V17.4246C4.74166 17.065 5.02773 16.7734 5.38061 16.7734ZM22.4194 16.7734C22.7722 16.7734 23.0583 17.065 23.0583 17.4246V19.2093C23.0583 21.4869 21.2465 23.3333 19.0116 23.3333H17.3077C16.9549 23.3333 16.6688 23.0418 16.6688 22.6821C16.6688 22.3225 16.9549 22.031 17.3077 22.031H19.0116C20.5408 22.031 21.7804 20.7677 21.7804 19.2093V17.4246C21.7804 17.065 22.0665 16.7734 22.4194 16.7734ZM9.00134 13.9999C9.00134 13.6403 9.28741 13.3487 9.6403 13.3487H18.1597C18.5126 13.3487 18.7986 13.6403 18.7986 13.9999C18.7986 14.3595 18.5126 14.651 18.1597 14.651H9.6403C9.28741 14.651 9.00134 14.3595 9.00134 13.9999ZM17.9467 10.093C17.9467 9.73338 17.6606 9.44185 17.3077 9.44185C16.9548 9.44185 16.6688 9.73338 16.6688 10.093V11.8294C16.6688 12.1891 16.9548 12.4806 17.3077 12.4806C17.6606 12.4806 17.9467 12.1891 17.9467 11.8294V10.093ZM13.9 9.44185C14.2529 9.44185 14.5389 9.73338 14.5389 10.093V11.8294C14.5389 12.1891 14.2529 12.4806 13.9 12.4806C13.5471 12.4806 13.261 12.1891 13.261 11.8294V10.093C13.261 9.73338 13.5471 9.44185 13.9 9.44185ZM11.1312 10.093C11.1312 9.73338 10.8451 9.44185 10.4922 9.44185C10.1394 9.44185 9.85329 9.73338 9.85329 10.093V11.8294C9.85329 12.1891 10.1394 12.4806 10.4922 12.4806C10.8451 12.4806 11.1312 12.1891 11.1312 11.8294V10.093ZM13.9 15.5192C14.2529 15.5192 14.5389 15.8108 14.5389 16.1704V17.9068C14.5389 18.2665 14.2529 18.558 13.9 18.558C13.5471 18.558 13.261 18.2665 13.261 17.9068V16.1704C13.261 15.8108 13.5471 15.5192 13.9 15.5192ZM17.9467 16.1704C17.9467 15.8108 17.6606 15.5192 17.3077 15.5192C16.9548 15.5192 16.6688 15.8108 16.6688 16.1704V17.9068C16.6688 18.2665 16.9548 18.558 17.3077 18.558C17.6606 18.558 17.9467 18.2665 17.9467 17.9068V16.1704ZM10.4922 15.5192C10.8451 15.5192 11.1312 15.8108 11.1312 16.1704V17.9068C11.1312 18.2665 10.8451 18.558 10.4922 18.558C10.1394 18.558 9.85329 18.2665 9.85329 17.9068V16.1704C9.85329 15.8108 10.1394 15.5192 10.4922 15.5192Z" fill="#08932B"/>
</svg>
