<svg width="25" height="28" viewBox="0 0 25 28" fill="none" xmlns="http://www.w3.org/2000/svg">
<path d="M20.4659 16.3203C21.3374 15.4488 22.7505 15.4488 23.622 16.3203C24.4935 17.1919 24.4935 18.6049 23.622 19.4764L16.9356 26.1628C16.7747 26.3237 16.5754 26.4409 16.3566 26.5033L13.4065 27.3443C12.9132 27.4849 12.4574 27.0291 12.598 26.5359L13.4391 23.5857C13.5014 23.3669 13.6186 23.1676 13.7795 23.0067L20.4659 16.3203Z" fill="#6D64CF"/>
<path fill-rule="evenodd" clip-rule="evenodd" d="M7.94233 1C7.94233 0.447715 7.49462 0 6.94233 0C6.39005 0 5.94233 0.447715 5.94233 1V2.99997H5.50896C2.61868 2.99997 0.275635 5.343 0.275635 8.23329V22.4333C0.275635 25.3236 2.61868 27.6666 5.50896 27.6666H6.40037C6.74736 27.6666 7.08014 27.5288 7.3255 27.2834L23.8924 10.7165C24.1378 10.4711 24.2756 10.1384 24.2756 9.79137V8.2333C24.2756 5.34301 21.9326 2.99997 19.0423 2.99997H18.609V1C18.609 0.447715 18.1613 0 17.609 0C17.0567 0 16.609 0.447715 16.609 1V2.99997H7.94233V1ZM12.2756 9.33328C12.8279 9.33328 13.2756 9.78099 13.2756 10.3333V12H14.9423C15.4946 12 15.9423 12.4477 15.9423 13C15.9423 13.5523 15.4946 14 14.9423 14H13.2756V15.6666C13.2756 16.2189 12.8279 16.6666 12.2756 16.6666C11.7233 16.6666 11.2756 16.2189 11.2756 15.6666V14H9.60897C9.05668 14 8.60897 13.5523 8.60897 13C8.60897 12.4477 9.05668 12 9.60897 12H11.2756V10.3333C11.2756 9.78099 11.7233 9.33328 12.2756 9.33328Z" fill="#6D64CF"/>
</svg>
