<svg width="28" height="27" viewBox="0 0 28 27" fill="none" xmlns="http://www.w3.org/2000/svg">
<path fill-rule="evenodd" clip-rule="evenodd" d="M6.42452 0.666779C3.18937 0.666779 0.56665 3.2895 0.56665 6.52465V18.9295C0.56665 20.9097 1.54922 22.6605 3.05343 23.7209C3.08529 23.7431 3.11715 23.7651 3.14945 23.7869C4.08424 24.4186 5.21131 24.7874 6.42452 24.7874H16.3014C16.0523 24.3569 15.8518 23.895 15.7071 23.4091H7.13332C5.85504 23.4091 4.6849 22.947 3.78061 22.1804C5.59259 18.9923 8.87638 16.8621 12.6271 16.8621C14.0728 16.8621 15.4491 17.1786 16.6987 17.7502C17.8703 16.1662 19.7519 15.1392 21.8734 15.1392C22.8824 15.1392 23.8375 15.3716 24.6875 15.7857V6.52455C24.6875 3.2894 22.0648 0.666687 18.8296 0.666687L6.42452 0.666779ZM12.627 15.4837C15.1019 15.4837 17.1065 13.4791 17.1065 11.0042C17.1065 8.5293 15.1019 6.52465 12.627 6.52465C10.1521 6.52465 8.14743 8.5293 8.14743 11.0042C8.14743 13.4791 10.1521 15.4837 12.627 15.4837Z" fill="#0D5C9D"/>
<path fill-rule="evenodd" clip-rule="evenodd" d="M16.5133 21.5714C16.5133 18.6126 18.9146 16.2113 21.8734 16.2113C24.8322 16.2113 27.2334 18.6126 27.2334 21.5714C27.2334 24.5302 24.8322 26.9314 21.8734 26.9314C18.9146 26.9314 16.5133 24.5302 16.5133 21.5714ZM22.4091 22.1073H24.5533V21.0354H22.4091V18.8912H21.3372V21.0354H19.193V22.1073H21.3372V24.2515H22.4091V22.1073Z" fill="#0D5C9D"/>
</svg>
