<svg width="25" height="27" viewBox="0 0 25 27" fill="none" xmlns="http://www.w3.org/2000/svg">
<path fill-rule="evenodd" clip-rule="evenodd" d="M9.70907 0C8.23631 0 7.0424 1.19391 7.0424 2.66667C7.0424 4.13943 8.23631 5.33334 9.70907 5.33334H15.0424C16.5152 5.33334 17.7091 4.13943 17.7091 2.66667C17.7091 1.19391 16.5152 0 15.0424 0H9.70907ZM5.04258 2.70801C2.41161 3.036 0.375732 5.2803 0.375732 8.00011V21.3335C0.375732 24.279 2.76355 26.6668 5.70907 26.6668H19.0424C21.9879 26.6668 24.3757 24.279 24.3757 21.3334V8.00011C24.3757 5.2803 22.3399 3.036 19.7089 2.70801C19.6868 5.26635 17.606 7.33344 15.0424 7.33344H9.70907C7.1455 7.33344 5.06472 5.26635 5.04258 2.70801ZM11.1852 15.926C12.8216 15.926 14.1481 14.5994 14.1481 12.963C14.1481 11.3266 12.8216 10 11.1852 10C9.54878 10 8.22221 11.3266 8.22221 12.963C8.22221 14.5994 9.54878 15.926 11.1852 15.926ZM11.1853 23.3334C14.049 23.3334 16.3705 22.0068 16.3705 20.3704C16.3705 18.734 14.049 17.4074 11.1853 17.4074C8.32157 17.4074 6.00008 18.734 6.00008 20.3704C6.00008 22.0068 8.32157 23.3334 11.1853 23.3334ZM14.1198 15.7893C14.8255 15.0567 15.2594 14.0606 15.2594 12.9631C15.2594 12.4411 15.1613 11.9421 14.9825 11.4835C16.1664 11.5325 17.1112 12.5078 17.1112 13.7038C17.1112 14.9311 16.1163 15.926 14.889 15.926C14.6186 15.926 14.3595 15.8777 14.1198 15.7893ZM17.4815 20.3704C17.4815 20.7695 17.3928 21.1552 17.2275 21.5197C18.4915 21.1279 19.3334 20.4279 19.3334 19.6296C19.3334 18.5139 17.689 17.5903 15.5458 17.4315C16.7389 18.1729 17.4815 19.2155 17.4815 20.3704Z" fill="#08932B"/>
</svg>
