<svg width="32" height="33" viewBox="0 0 32 33" fill="none" xmlns="http://www.w3.org/2000/svg">
<path fill-rule="evenodd" clip-rule="evenodd" d="M17.6502 16.6394L30.0405 4.2491C30.4311 3.85858 30.4311 3.22541 30.0405 2.83489C29.65 2.44436 29.0168 2.44436 28.6263 2.83489L24.6947 6.76652C22.3603 4.75685 19.3221 3.54199 16.0001 3.54199C8.63629 3.54199 2.66675 9.51153 2.66675 16.8753C2.66675 24.2391 8.63629 30.2087 16.0001 30.2087C23.3639 30.2087 29.3334 24.2391 29.3334 16.8753C29.3334 14.2379 28.5677 11.7794 27.2464 9.70992L24.07 12.8863C24.6654 14.0885 25.0001 15.4428 25.0001 16.8753C25.0001 21.8459 20.9707 25.8753 16.0001 25.8753C11.0295 25.8753 7.00008 21.8459 7.00008 16.8753C7.00008 11.9048 11.0295 7.87533 16.0001 7.87533C18.1251 7.87533 20.0781 8.6118 21.6178 9.84343L20.1923 11.2689C19.0237 10.3937 17.5724 9.87533 16.0001 9.87533C12.1341 9.87533 9.00009 13.0093 9.00009 16.8753C9.00009 20.7413 12.1341 23.8753 16.0001 23.8753C19.8661 23.8753 23.0001 20.7413 23.0001 16.8753C23.0001 16.0056 22.8415 15.173 22.5516 14.4047L19.6406 17.3157C19.423 19.1331 17.8761 20.542 16.0001 20.542C13.975 20.542 12.3334 18.9004 12.3334 16.8753C12.3334 14.8503 13.975 13.2087 16.0001 13.2087C16.6492 13.2087 17.259 13.3774 17.7879 13.6733L16.236 15.2252C16.1589 15.2143 16.0802 15.2087 16.0001 15.2087C15.0796 15.2087 14.3334 15.9549 14.3334 16.8753C14.3334 17.7958 15.0796 18.542 16.0001 18.542C16.9206 18.542 17.6668 17.7958 17.6668 16.8753C17.6668 16.7953 17.6611 16.7165 17.6502 16.6394Z" fill="#0540F2"/>
</svg>
