<svg width="80" height="80" viewBox="0 0 80 80" fill="none" xmlns="http://www.w3.org/2000/svg">
<circle cx="40" cy="40" r="40" fill="#F1F9F2"/>
<g clip-path="url(#clip0_1455_15511)">
<path d="M40.592 63.8857C40.592 64.6127 40.5732 65.3397 40.592 66.0667C40.6004 66.4287 40.5501 66.7487 40.2719 67.0019H39.7489C39.2771 66.5385 38.6945 66.2268 38.1579 65.8512C36.6767 64.8199 35.1808 63.8083 33.6934 62.7853C33.093 62.3732 33.0919 61.9966 33.6934 61.5834C35.6244 60.2584 37.5574 58.9335 39.4926 57.6085C39.729 57.4464 39.9686 57.2947 40.2604 57.4464C40.5742 57.6054 40.5899 57.8993 40.5878 58.2079C40.5878 58.9725 40.593 59.7361 40.5972 60.5008C40.7031 60.6588 40.7562 60.8463 40.7489 61.0363C40.7562 61.8073 40.7573 62.5792 40.7489 63.3502C40.7594 63.5414 40.704 63.7304 40.592 63.8857Z" fill="#28DB54"/>
<path d="M39.7362 20.1552C39.2132 19.9052 38.6671 20.1091 38.1514 20.1625C33.8334 20.6133 30.0049 22.2472 26.7099 25.0883C23.5823 27.7829 21.3961 31.1072 20.3584 35.1041C18.6847 41.5529 19.9211 47.4567 23.9201 52.781C25.1132 54.3469 26.542 55.7181 28.1555 56.8459C28.7497 57.2643 29.097 57.8292 28.9631 58.5854C28.8271 59.3239 28.3637 59.7821 27.6336 59.961C27.1022 60.0907 26.6451 59.917 26.2162 59.6106C22.5887 57.0415 19.7637 53.4969 18.0686 49.3877C16.7117 46.1903 16.1034 42.7251 16.2904 39.2568C16.5968 33.5612 18.6962 28.5977 22.5739 24.4031C24.7187 22.0793 27.3012 20.2019 30.1733 18.8786C33.0453 17.5553 36.1505 16.8121 39.3104 16.6917C39.4485 16.6865 39.5866 16.6698 39.7289 16.6572C39.8868 16.7754 39.9067 16.9522 39.9109 17.1259C39.9307 17.9763 39.9287 18.8277 39.9109 19.6792C39.9067 19.8518 39.8868 20.0286 39.7362 20.1552Z" fill="#8CEAA3"/>
<path d="M40.592 63.8854C40.592 62.7578 40.592 61.6305 40.592 60.5036C44.6371 60.3917 48.3589 59.2306 51.6873 56.9345C56.1685 53.8435 59.1236 49.6552 60.2083 44.2932C61.4489 38.1561 60.0839 32.5776 56.2491 27.6152C55.0714 26.1061 53.6765 24.78 52.1099 23.68C51.5022 23.247 51.2114 22.6633 51.3484 21.9216C51.4729 21.2438 51.9216 20.8296 52.567 20.6235C53.1319 20.4436 53.6215 20.6235 54.0828 20.9488C56.3716 22.5702 58.3505 24.5898 59.9249 26.9112C62.3904 30.5661 63.7858 34.5902 63.9751 39.0044C64.2952 46.4909 61.5881 52.7347 56.0974 57.7567C52.5587 60.9931 48.3453 62.9116 43.5994 63.6323C42.6034 63.781 41.5989 63.8655 40.592 63.8854Z" fill="#8CEAA3"/>
<path opacity="0.5" d="M36.1923 42.6565C38.0752 41.0896 39.9556 39.5205 41.8336 37.9494C43.5826 36.4964 45.343 35.055 47.0899 33.5989C48.3546 32.5445 49.9142 32.6219 50.9916 33.8081C51.9864 34.9096 51.8954 36.5707 50.6914 37.6188C48.9759 39.1115 47.2071 40.5477 45.4612 41.9975C43.8859 43.3072 42.3081 44.614 40.7279 45.9181C40.646 45.9805 40.5608 46.0384 40.4727 46.0917C39.7928 45.8909 39.2352 45.4641 38.6599 45.0823C37.8305 44.5063 37.0702 43.8366 36.3942 43.0865C36.2802 42.9766 36.1055 42.871 36.1923 42.6565Z" fill="#28DB54"/>
<path d="M36.1923 42.6565C37.2654 43.945 38.5761 45.0153 40.0532 45.8092C40.2017 45.8908 40.3827 45.9295 40.4716 46.1C39.5898 46.8322 38.7268 47.5906 37.822 48.2967C36.4245 49.3825 34.3251 49.1272 33.2435 47.7266C31.8732 45.9525 30.5266 44.1603 29.2037 42.35C28.2989 41.1125 28.5646 39.4577 29.7487 38.5968C30.9851 37.6993 32.6012 37.9462 33.5458 39.1815C34.4293 40.3377 35.3115 41.4961 36.1923 42.6565Z" fill="#28DB54"/>
<path d="M39.7362 20.1551L39.7268 16.6603C39.7268 15.879 39.7268 15.0976 39.7268 14.3162C39.7268 14.0484 39.7425 13.7932 40.0155 13.6415C40.2885 13.4898 40.5113 13.5976 40.7373 13.7513C42.6996 15.0944 44.6662 16.4292 46.6233 17.7786C47.2216 18.1907 47.208 18.5631 46.5982 18.9815C44.6672 20.3065 42.7345 21.6315 40.8 22.9564C40.5636 23.1196 40.3283 23.2566 40.0312 23.1123C39.7341 22.9679 39.7268 22.6803 39.7279 22.3968C39.7313 21.6478 39.7341 20.9006 39.7362 20.1551Z" fill="#28DB54"/>
</g>
<defs>
<clipPath id="clip0_1455_15511">
<rect width="47.74" height="53.4367" fill="white" transform="translate(16.26 13.5649)"/>
</clipPath>
</defs>
</svg>
