<svg width="24" height="25" viewBox="0 0 24 25" fill="none" xmlns="http://www.w3.org/2000/svg">
<path fill-rule="evenodd" clip-rule="evenodd" d="M21 10.6796V18.4961C21 20.7236 19.2091 22.5293 17 22.5293H7C4.79086 22.5293 3 20.7236 3 18.4961V10.6796C3 9.46867 3.53964 8.32179 4.46986 7.55582L9.46986 3.43864C10.9423 2.22618 13.0577 2.22618 14.5301 3.43864L19.5301 7.55582C20.4604 8.32179 21 9.46867 21 10.6796ZM15.5 13.1293C15.5 15.6146 12 18.5293 12 18.5293C12 18.5293 8.5 15.6146 8.5 13.1293C8.5 10.644 10.3431 9.5293 12 9.5293C13.6569 9.5293 15.5 10.644 15.5 13.1293ZM13.5 13.0293C13.5 13.8577 12.8284 14.5293 12 14.5293C11.1716 14.5293 10.5 13.8577 10.5 13.0293C10.5 12.2009 11.1716 11.5293 12 11.5293C12.8284 11.5293 13.5 12.2009 13.5 13.0293Z" fill="#159BD7"/>
</svg>
