<svg width="33" height="32" viewBox="0 0 33 32" fill="none" xmlns="http://www.w3.org/2000/svg">
<path d="M29.8332 18.6665L25.9145 15.8451C23.8782 14.379 21.0954 14.5305 19.2304 16.209L13.7693 21.124C11.9043 22.8025 9.12143 22.9541 7.08518 21.4879L3.1665 18.6665M8.49984 29.3332H24.4998C27.4454 29.3332 29.8332 26.9454 29.8332 23.9998V7.99984C29.8332 5.05432 27.4454 2.6665 24.4998 2.6665H8.49984C5.55432 2.6665 3.1665 5.05432 3.1665 7.99984V23.9998C3.1665 26.9454 5.55432 29.3332 8.49984 29.3332ZM15.1665 11.3332C15.1665 13.1741 13.6741 14.6665 11.8332 14.6665C9.99222 14.6665 8.49984 13.1741 8.49984 11.3332C8.49984 9.49222 9.99222 7.99984 11.8332 7.99984C13.6741 7.99984 15.1665 9.49222 15.1665 11.3332Z" stroke="#94A3B8" stroke-width="1.71429" stroke-linecap="round"/>
</svg>
