<svg width="16" height="16" viewBox="0 0 16 16" fill="none" xmlns="http://www.w3.org/2000/svg">
<path d="M16 11.9668C16.0022 13.2067 15.1444 13.9274 14.2801 13.9144L1.7515 13.923C0.733514 13.9187 0.00545135 13.0498 0.0021816 12.1734L1.02074e-06 7.18643C-0.0010889 6.27971 0.870846 5.3957 1.70463 5.39462L11.6316 5.39138L11.6207 7.52294L2.88502 7.5251C2.50463 7.5251 2.25068 7.78154 2.25068 8.14726L2.25831 11.1899C2.25831 11.5545 2.59074 11.8045 2.97984 11.8034L13.1662 11.8001C13.5684 11.799 13.8114 11.4928 13.7984 11.1271V4.07132C13.7984 3.58225 13.4768 3.28795 12.9493 3.28254L0.00108872 3.29228L0.00435873 1.20508L14.1842 1.20832C15.2578 1.20508 15.9967 2.1237 15.9989 3.08778V11.9689L16 11.9668Z" fill="#475569"/>
</svg>
