<svg width="16" height="16" viewBox="0 0 18 18" fill="none" xmlns="http://www.w3.org/2000/svg">
<path fill-rule="evenodd" clip-rule="evenodd" d="M15.1362 2.86379C13.5882 1.31573 11.0783 1.31573 9.53019 2.86379L7.86351 4.53047C7.57062 4.82336 7.09575 4.82336 6.80285 4.53047C6.50996 4.23758 6.50996 3.7627 6.80285 3.46981L8.46953 1.80313C10.6034 -0.330719 14.063 -0.330721 16.1969 1.80313C18.3308 3.93699 18.3308 7.39665 16.1969 9.5305L14.5302 11.1972C14.2373 11.4901 13.7625 11.4901 13.4696 11.1972C13.1767 10.9043 13.1767 10.4294 13.4696 10.1365L15.1362 8.46984C16.6843 6.92177 16.6843 4.41186 15.1362 2.86379ZM11.6516 6.34844C11.9445 6.64133 11.9445 7.11621 11.6516 7.4091L7.40899 11.6517C7.1161 11.9446 6.64122 11.9446 6.34833 11.6517C6.05544 11.3588 6.05544 10.884 6.34833 10.5911L10.591 6.34844C10.8839 6.05555 11.3587 6.05555 11.6516 6.34844ZM8.46949 15.1364C6.92142 16.6845 4.41151 16.6845 2.86344 15.1364C1.31538 13.5884 1.31538 11.0785 2.86344 9.5304L4.53012 7.86372C4.82301 7.57083 4.82301 7.09595 4.53012 6.80306C4.23723 6.51017 3.76235 6.51017 3.46946 6.80306L1.80278 8.46974C-0.331071 10.6036 -0.331071 14.0632 1.80278 16.1971C3.93664 18.331 7.3963 18.331 9.53015 16.1971L11.1968 14.5304C11.4897 14.2375 11.4897 13.7627 11.1968 13.4698C10.9039 13.1769 10.4291 13.1769 10.1362 13.4698L8.46949 15.1364Z" fill="#159BD7"/>
</svg>
