<svg width="46" height="46" viewBox="0 0 46 46" fill="none" xmlns="http://www.w3.org/2000/svg">
<path d="M12.9219 25.332C12.9219 19.787 17.4518 15.249 23.0018 15.249C28.5518 15.249 33.0818 19.787 33.0818 25.332C33.0818 30.878 28.5518 35.416 23.0018 35.416C17.4518 35.416 12.9219 30.878 12.9219 25.332ZM23.9219 12.545V10.666H25.7518C26.2518 10.666 26.6719 10.253 26.6719 9.74904C26.6719 9.24504 26.2518 8.83203 25.7518 8.83203H20.2518C19.7518 8.83203 19.3318 9.24504 19.3318 9.74904C19.3318 10.253 19.7518 10.666 20.2518 10.666H22.0818V12.545C15.4418 13.003 10.1719 18.549 10.1719 25.332C10.1719 28.816 11.5418 31.978 13.8318 34.316L12.0918 37.753C11.8618 38.211 12.0518 38.762 12.5018 38.991C12.6418 39.037 12.7819 39.082 12.9219 39.082C13.2419 39.082 13.5618 38.899 13.7418 38.578L15.2518 35.553C17.4118 37.203 20.0718 38.166 23.0018 38.166C25.9318 38.166 28.5918 37.203 30.7518 35.553L32.2618 38.578C32.4418 38.899 32.7618 39.082 33.0818 39.082C33.2218 39.082 33.3618 39.037 33.5018 38.991C33.9518 38.762 34.1419 38.211 33.9119 37.753L32.1719 34.316C34.4119 32.024 35.8318 28.816 35.8318 25.332C35.8318 18.549 30.5619 13.003 23.9219 12.545Z" fill="#BF9000"/>
<path d="M22.0818 24.417H15.6719V26.25H23.0018C23.5018 26.25 23.9219 25.837 23.9219 25.333V18H22.0818V24.417Z" fill="#BF9000"/>
<path d="M37.761 12.5928L33.9509 8.78878C33.2209 8.05478 32.0709 8.05478 31.3409 8.78878L28.9609 11.1258L35.381 17.5428L37.761 15.1588C38.451 14.4718 38.451 13.2798 37.761 12.5928Z" fill="#BF9000"/>
<path d="M17.0409 11.1249L14.6609 8.74191C13.9309 8.00791 12.7809 8.00791 12.0509 8.74191L8.24086 12.5459C7.51086 13.2789 7.51086 14.4249 8.24086 15.1579L10.6209 17.5419L17.0409 11.1249Z" fill="#BF9000"/>
</svg>
