<svg width="42" height="44" viewBox="0 0 42 44" fill="none" xmlns="http://www.w3.org/2000/svg">
<path d="M39.6904 17.0029L37.4705 16.1919V11.5359L39.6904 10.5969L24.6605 5.04492L6.38049 11.4509C4.63049 12.3049 4.59045 14.6539 4.59045 16.5759C4.59045 17.2169 4.67054 17.8569 4.80054 18.4549C3.35054 19.3949 3.31055 21.5729 3.31055 23.4089C3.31055 24.9039 3.65045 26.2709 4.59045 27.1249C4.37045 27.8509 4.50049 28.7479 4.50049 29.8159C4.50049 31.7379 5.01046 33.4889 6.72046 34.0859L18.6005 38.9979L39.6105 30.2849L37.3905 29.4739V24.7759L39.6105 23.8359L36.1904 22.5549V18.4549L39.6904 17.0029ZM6.8905 14.4409L18.7705 19.0959L35.8105 12.2199V15.8929L18.7705 22.9819L6.8905 18.2839V14.4409ZM35.7205 29.1749L18.6805 36.2219L6.77051 31.5239V28.1929L17.4005 32.5489L35.7605 25.2889L35.7205 29.1749ZM34.5305 22.7689L17.4905 29.8159L5.61047 25.1179V21.2739L17.8304 26.1429L34.5704 19.1389V22.7689H34.5305Z" fill="#BF9000"/>
</svg>
