<svg width="34" height="35" viewBox="0 0 34 35" fill="none" xmlns="http://www.w3.org/2000/svg">
<path d="M10.0398 18.6878C9.81976 18.6868 9.61971 18.5878 9.48971 18.4188C9.25971 18.1188 9.31971 17.6868 9.61971 17.4548V17.4528C10.9397 16.4238 12.4897 15.7388 14.1497 15.4598C14.5197 15.3998 14.8797 15.6588 14.9397 16.0388C14.9997 16.4188 14.7397 16.7748 14.3597 16.8348C12.9397 17.0748 11.5997 17.6658 10.4597 18.5528C10.3397 18.6428 10.1898 18.6898 10.0398 18.6878Z" fill="#548235"/>
<path d="M6.4286 25.0977H6.39857C6.01857 25.0797 5.72853 24.7587 5.73853 24.3797C5.80853 23.1047 6.16857 21.8617 6.77857 20.7397C6.95857 20.4047 7.3685 20.2787 7.7085 20.4597C8.0385 20.6397 8.16853 21.0577 7.98853 21.3927C7.46853 22.3317 7.16852 23.3747 7.09852 24.4447C7.07852 24.8047 6.7886 25.0897 6.4286 25.0977Z" fill="#548235"/>
<path d="M2.78907 16.3157C2.56907 16.3157 2.36902 16.2138 2.23902 16.0408C2.00902 15.7378 2.06903 15.3068 2.37903 15.0778C4.12903 13.7648 6.81904 13.0158 9.75904 13.0158C10.969 13.0108 12.169 13.1458 13.339 13.4178C13.709 13.4658 13.9791 13.8098 13.9291 14.1868C13.8791 14.5638 13.5391 14.8298 13.1591 14.7818C13.1191 14.7758 13.0691 14.7658 13.0291 14.7518C11.9591 14.5058 10.869 14.3828 9.76905 14.3868C7.15905 14.3868 4.70899 15.0568 3.20899 16.1818C3.08899 16.2698 2.93907 16.3167 2.78907 16.3157Z" fill="#548235"/>
<path d="M16.0197 13.9291C15.7697 13.9261 15.5397 13.7971 15.3997 13.5851C14.6197 12.4361 13.6497 11.4292 12.5297 10.6082C10.6697 9.23315 8.56968 8.39112 6.91968 8.38812C6.50968 8.38812 6.17969 8.05717 6.17969 7.64917C6.17969 7.24117 6.50968 6.91016 6.91968 6.91016C8.89968 6.91016 11.2697 7.82712 13.4097 9.42212C14.6697 10.3461 15.7596 11.4812 16.6396 12.7772C16.8596 13.1222 16.7597 13.5821 16.4197 13.8041C16.2997 13.8801 16.1597 13.9211 16.0197 13.9221V13.9291Z" fill="#548235"/>
<path d="M28.9194 22.0171C28.6394 22.0171 28.3793 21.8411 28.2793 21.5741C27.6693 19.9581 26.1393 18.4251 24.1593 17.4731C23.3893 17.0981 22.5793 16.8251 21.7493 16.6621C21.3793 16.5911 21.1293 16.2301 21.1993 15.8571C21.2693 15.4841 21.6293 15.2401 22.0093 15.3111C22.9593 15.4981 23.8793 15.8091 24.7593 16.2361C27.0793 17.3561 28.8193 19.1231 29.5693 21.0931C29.6993 21.4481 29.5194 21.8451 29.1694 21.9801C29.0894 22.0071 29.0094 22.0201 28.9194 22.0171Z" fill="#548235"/>
<path d="M22.56 22.8109C22.18 22.8109 21.8699 22.5039 21.8699 22.1239C21.8199 21.0449 21.3799 20.0209 20.6199 19.2499C20.3099 18.9019 19.95 18.5969 19.56 18.3429C19.24 18.1499 19.1299 17.7289 19.3199 17.4019C19.5099 17.0739 19.9299 16.9649 20.2599 17.1579C20.2699 17.1659 20.29 17.1749 20.3 17.1839C20.79 17.4999 21.2399 17.8789 21.6199 18.3119C22.6299 19.3389 23.1999 20.7069 23.2299 22.1409C23.2199 22.5099 22.93 22.8059 22.56 22.8109Z" fill="#548235"/>
<path d="M19.8501 14.8566C19.4701 14.8586 19.1702 14.5516 19.1602 14.1726C19.1602 13.9156 19.3002 13.6806 19.5302 13.5606C20.4202 13.0956 21.3701 12.7496 22.3501 12.5296C22.7201 12.4436 23.0902 12.6756 23.1702 13.0466C23.2602 13.4176 23.0302 13.7886 22.6602 13.8736C21.8002 14.0646 20.9602 14.3666 20.1802 14.7706C20.0802 14.8256 19.9701 14.8556 19.8501 14.8566Z" fill="#548235"/>
<path d="M32.0384 15.0981C31.8984 15.0981 31.7683 15.0561 31.6483 14.9771C30.5883 14.2451 28.7883 13.7231 26.8383 13.5781C26.4583 13.5501 26.1783 13.2191 26.1983 12.8391C26.2283 12.4601 26.5583 12.1751 26.9383 12.2031C29.1583 12.3681 31.1583 12.9631 32.4383 13.8401C32.7583 14.0541 32.8383 14.4821 32.6183 14.7951C32.4883 14.9821 32.2784 15.0941 32.0484 15.0941L32.0384 15.0981Z" fill="#548235"/>
<path d="M18.5784 13.0708C18.1984 13.0708 17.8984 12.7628 17.8984 12.3828C17.8984 12.2818 17.9184 12.1818 17.9584 12.0908C18.4784 10.9988 19.1384 9.9858 19.9384 9.0828C21.6384 7.1438 23.7284 5.83078 25.6484 5.47678C26.0284 5.42678 26.3785 5.69081 26.4285 6.06681C26.4685 6.41781 26.2484 6.74779 25.8984 6.82779C24.2884 7.12379 22.4584 8.30582 20.9784 9.99082C20.2684 10.7978 19.6784 11.6998 19.2184 12.6718C19.0984 12.9188 18.8584 13.0748 18.5784 13.0708Z" fill="#548235"/>
<path d="M14.9885 30.4703C14.6485 30.4743 14.3485 30.2213 14.2985 29.8793C14.0885 28.0703 14.0884 26.2413 14.3284 24.4343C14.5284 22.4863 14.9984 20.5763 15.7284 18.7593C15.8884 18.4103 16.2885 18.2513 16.6385 18.4033C16.9885 18.5553 17.1485 18.9603 16.9885 19.3093C16.3185 21.0023 15.8784 22.7813 15.6984 24.5963C15.4684 26.2853 15.4685 27.9953 15.6685 29.6873C15.7185 30.0603 15.4684 30.4073 15.0884 30.4633C15.0584 30.4703 15.0285 30.4723 14.9885 30.4703Z" fill="#548235"/>
<path d="M12.2694 22.2575C12.2194 22.2645 12.1794 22.2645 12.1294 22.2575C11.7594 22.1795 11.5194 21.8146 11.5994 21.4436C11.5994 21.4406 11.5994 21.4385 11.5994 21.4365C11.8194 20.5015 12.2294 19.6206 12.7994 18.8476C13.0194 18.5596 13.2494 18.2846 13.4894 18.0266C13.7494 17.7486 14.1894 17.7346 14.4594 17.9956C14.7394 18.2556 14.7594 18.6906 14.4994 18.9676C14.2894 19.1856 14.1095 19.4155 13.9295 19.6555C13.4695 20.2715 13.1394 20.9726 12.9594 21.7176C12.8894 22.0376 12.5994 22.2635 12.2694 22.2575Z" fill="#548235"/>
<path d="M16.3788 8.90724C16.0488 8.91224 15.7587 8.67421 15.6987 8.34321C15.5587 7.52321 15.3187 6.72421 14.9787 5.96821C14.8087 5.63021 14.9388 5.21423 15.2788 5.04023C15.6088 4.86523 16.0287 4.99721 16.1987 5.33521C16.6087 6.20921 16.8988 7.13421 17.0588 8.08521C17.1288 8.45821 16.8788 8.81724 16.5088 8.88624C16.4688 8.89824 16.4288 8.90524 16.3788 8.90724Z" fill="#548235"/>
<path d="M20.5499 27.6237C20.1999 27.6267 19.9098 27.3677 19.8598 27.0217C19.5998 24.7277 19.0898 22.4687 18.3398 20.2847C18.2098 19.9257 18.3998 19.5327 18.7598 19.4067C19.1198 19.2797 19.5098 19.4687 19.6398 19.8277C20.4198 22.1057 20.9498 24.4617 21.2298 26.8537C21.2798 27.2307 21.0098 27.5747 20.6398 27.6237H20.5499Z" fill="#548235"/>
<path d="M4.78015 18.3442C4.78015 18.7232 4.47009 19.0312 4.09009 19.0312C3.71009 19.0312 3.41016 18.7232 3.41016 18.3442C3.41016 17.9642 3.71009 17.6562 4.09009 17.6562C4.47009 17.6562 4.78015 17.9642 4.78015 18.3442Z" fill="#548235"/>
<path d="M11.9991 24.188C11.9991 24.567 11.6892 24.875 11.3092 24.875C10.9292 24.875 10.6191 24.567 10.6191 24.188C10.6191 23.808 10.9292 23.5 11.3092 23.5C11.6892 23.5 11.9991 23.808 11.9991 24.188Z" fill="#548235"/>
<path d="M26.0887 22.4692C26.0887 22.8482 25.7888 23.1562 25.4088 23.1562C25.0288 23.1562 24.7188 22.8482 24.7188 22.4692C24.7188 22.0892 25.0288 21.7812 25.4088 21.7812C25.7888 21.7812 26.0887 22.0892 26.0887 22.4692Z" fill="#548235"/>
<path d="M21.62 30.3745C21.62 30.7545 21.3199 31.0615 20.9399 31.0615C20.5599 31.0615 20.25 30.7545 20.25 30.3745C20.25 29.9945 20.5599 29.6875 20.9399 29.6875C21.3199 29.6875 21.62 29.9945 21.62 30.3745Z" fill="#548235"/>
<path d="M20.2489 6.65576C20.2489 7.03576 19.939 7.34375 19.559 7.34375C19.179 7.34375 18.8789 7.03576 18.8789 6.65576C18.8789 6.27676 19.179 5.96875 19.559 5.96875C19.939 5.96875 20.2489 6.27676 20.2489 6.65576Z" fill="#548235"/>
<path d="M12.3387 5.62451C12.3387 6.00451 12.0388 6.31152 11.6588 6.31152C11.2788 6.31152 10.9688 6.00451 10.9688 5.62451C10.9688 5.24451 11.2788 4.9375 11.6588 4.9375C12.0388 4.9375 12.3387 5.24451 12.3387 5.62451Z" fill="#548235"/>
<path d="M25.4093 12.8442C25.4093 13.2232 25.0992 13.5312 24.7192 13.5312C24.3392 13.5312 24.0293 13.2232 24.0293 12.8442C24.0293 12.4642 24.3392 12.1562 24.7192 12.1562C25.0992 12.1562 25.4093 12.4642 25.4093 12.8442Z" fill="#548235"/>
<path d="M9.2489 19.3745C9.2489 19.7545 8.93896 20.0615 8.55896 20.0615C8.17896 20.0615 7.87891 19.7545 7.87891 19.3745C7.87891 18.9945 8.17896 18.6875 8.55896 18.6875C8.93896 18.6875 9.2489 18.9945 9.2489 19.3745Z" fill="#548235"/>
<path d="M17.4991 10.4243C17.4991 10.8033 17.1892 11.1113 16.8092 11.1113C16.4292 11.1113 16.1191 10.8033 16.1191 10.4243C16.1191 10.0443 16.4292 9.73633 16.8092 9.73633C17.1892 9.73633 17.4991 10.0443 17.4991 10.4243Z" fill="#548235"/>
<path d="M7.78916 28.4635C7.85916 28.3975 7.88911 28.2985 7.85911 28.2055C7.82911 28.1145 7.74915 28.0525 7.64915 28.0475H6.85911C6.75911 28.0465 6.67914 27.9825 6.63914 27.8895L6.38914 27.1125C6.34914 27.0135 6.25916 26.9445 6.15916 26.9375C6.05916 26.9435 5.96917 27.0045 5.92917 27.0955L5.66917 27.8685C5.63917 27.9665 5.54907 28.0335 5.44907 28.0265H4.65916C4.55916 28.0245 4.47907 28.0895 4.44907 28.1845C4.41907 28.2775 4.44914 28.3785 4.51914 28.4425L4.78916 28.6865L5.11912 28.9995C5.15912 29.0335 5.17906 29.0735 5.18906 29.1165C5.20906 29.1575 5.20906 29.2025 5.18906 29.2435L4.94907 30.0615C4.91907 30.1575 4.94916 30.2635 5.03916 30.3195C5.11916 30.3775 5.22918 30.3775 5.30918 30.3195L5.99912 29.8315C6.07912 29.7765 6.18914 29.7765 6.26914 29.8315L6.95908 30.3195C7.03908 30.3775 7.1491 30.3775 7.2291 30.3195C7.3091 30.2625 7.34907 30.1575 7.31907 30.0615L7.06907 29.2435C7.04907 29.1555 7.06915 29.0585 7.14915 28.9995L7.77915 28.4565L7.78916 28.4635Z" fill="#548235"/>
<path d="M5.03916 9.901C5.10916 9.836 5.13911 9.73601 5.10911 9.64301C5.07911 9.55301 4.99915 9.49099 4.89915 9.48499H4.10911C4.00911 9.48399 3.92914 9.42103 3.88914 9.32703L3.63914 8.54999C3.59914 8.45099 3.50916 8.383 3.40916 8.375C3.30916 8.382 3.21917 8.44202 3.17917 8.53302L2.91917 9.30701C2.88917 9.40501 2.79907 9.47103 2.69907 9.46503H1.90916C1.80916 9.46203 1.72907 9.52699 1.69907 9.62299C1.66907 9.71599 1.69914 9.81598 1.76914 9.88098L2.02915 10.128L2.37913 10.438C2.40913 10.471 2.42906 10.511 2.43906 10.554C2.45906 10.595 2.45906 10.641 2.43906 10.682L2.19907 11.5C2.16907 11.596 2.19916 11.702 2.28916 11.758C2.36916 11.815 2.47918 11.815 2.55918 11.758L3.24912 11.269C3.32912 11.215 3.43914 11.215 3.51914 11.269L4.20908 11.758C4.28908 11.815 4.3991 11.815 4.4791 11.758C4.5591 11.7 4.59907 11.595 4.56907 11.5L4.31907 10.682C4.29907 10.59 4.32916 10.493 4.40916 10.438L5.03916 9.89398V9.901Z" fill="#548235"/>
<path d="M28.7598 25.6783C28.8298 25.6133 28.8597 25.5133 28.8297 25.4213C28.7997 25.3303 28.7097 25.2683 28.6197 25.2623H27.8297C27.7297 25.2623 27.6397 25.1982 27.6097 25.1042L27.3597 24.3273C27.3197 24.2303 27.2297 24.1633 27.1197 24.1562C27.0297 24.1623 26.9398 24.2233 26.8898 24.3143L26.6398 25.0912C26.6098 25.1862 26.5198 25.2512 26.4198 25.2452H25.6298C25.5298 25.2432 25.4398 25.3083 25.4198 25.4033C25.3898 25.4963 25.4197 25.5973 25.4897 25.6613L25.7498 25.9053L26.0897 26.2213C26.1197 26.2553 26.1498 26.2953 26.1598 26.3383C26.1798 26.3793 26.1798 26.4252 26.1598 26.4662L25.9298 27.2803C25.8998 27.3773 25.9398 27.4823 26.0198 27.5383C26.0998 27.5963 26.2098 27.5963 26.2898 27.5383L26.9797 27.0503C27.0597 26.9953 27.1698 26.9953 27.2598 27.0503L27.9397 27.5383C28.0197 27.5963 28.1297 27.5963 28.2097 27.5383C28.2997 27.4813 28.3298 27.3763 28.2998 27.2803L28.0598 26.4623C28.0298 26.3743 28.0598 26.2773 28.1298 26.2183L28.7598 25.6753V25.6783Z" fill="#548235"/>
<path d="M30.8183 8.86975C30.8883 8.80375 30.9184 8.70476 30.8984 8.61176C30.8584 8.52176 30.7784 8.45974 30.6784 8.45374H29.8884C29.7884 8.45274 29.7084 8.38978 29.6784 8.29578L29.4184 7.51874C29.3784 7.41974 29.2883 7.35075 29.1883 7.34375C29.0883 7.35075 28.9983 7.41077 28.9583 7.50177L28.6983 8.27875C28.6683 8.37475 28.5784 8.43874 28.4784 8.43274H27.6983C27.5983 8.43074 27.5084 8.49574 27.4784 8.59174C27.4484 8.68374 27.4784 8.78475 27.5484 8.84875L27.8183 9.09277L28.1584 9.40576C28.1884 9.43976 28.2084 9.47977 28.2184 9.52277C28.2384 9.56377 28.2384 9.60978 28.2184 9.64978L27.9784 10.4678C27.9484 10.5648 27.9883 10.6708 28.0683 10.7258C28.1483 10.7838 28.2584 10.7838 28.3384 10.7258L29.0284 10.2377C29.1084 10.1827 29.2184 10.1827 29.2984 10.2377L29.9884 10.7258C30.0684 10.7838 30.1784 10.7838 30.2584 10.7258C30.3484 10.6688 30.3784 10.5638 30.3484 10.4678L30.1084 9.64978C30.0784 9.56178 30.1084 9.46476 30.1784 9.40576L30.8084 8.86273L30.8183 8.86975Z" fill="#548235"/>
<path d="M33.3096 19.3745C33.3096 19.7545 32.9995 20.0615 32.6195 20.0615C32.2495 20.0615 31.9395 19.7545 31.9395 19.3745C31.9395 18.9945 32.2495 18.6875 32.6195 18.6875C32.9995 18.6875 33.3096 18.9945 33.3096 19.3745Z" fill="#548235"/>
</svg>
