<svg width="42" height="42" viewBox="0 0 42 42" fill="none" xmlns="http://www.w3.org/2000/svg">
<path d="M21.4988 7.11938C22.2288 7.11938 22.7788 6.56438 22.7788 5.83838C22.7788 5.11138 22.2288 3.27539 21.4988 3.27539C20.7688 3.27539 21.6688 4.1294 20.6488 4.9834C20.5988 5.0264 20.5988 5.0264 20.5588 5.0694C20.3888 5.2824 20.2188 5.49638 20.2188 5.83838C20.2188 6.56438 20.7688 7.11938 21.4988 7.11938Z" fill="#548235"/>
<path d="M17.2292 9.25415C17.9592 9.25415 18.5093 8.69914 18.5093 7.97314C18.5093 7.24714 17.9592 5.41016 17.2292 5.41016C16.4992 5.41016 17.3993 6.26514 16.3793 7.11914C16.3293 7.16214 16.3293 7.16213 16.2893 7.20413C16.1193 7.41813 15.9492 7.63114 15.9492 7.97314C15.9492 8.69914 16.4992 9.25415 17.2292 9.25415Z" fill="#548235"/>
<path d="M25.7703 9.25415C26.5003 9.25415 27.0503 8.69914 27.0503 7.97314C27.0503 7.24714 26.5003 5.41016 25.7703 5.41016C25.0403 5.41016 25.9403 6.26514 24.9203 7.11914C24.8703 7.16214 24.8702 7.16213 24.8302 7.20413C24.6602 7.41813 24.4902 7.63114 24.4902 7.97314C24.4902 8.69914 25.0403 9.25415 25.7703 9.25415Z" fill="#548235"/>
<path d="M13.8101 25.1851C15.1401 23.8611 17.7399 23.8611 19.0699 25.1851C19.4099 25.5271 20.3499 25.5271 20.6899 25.1851C22.0099 23.8611 24.6199 23.8611 25.9399 25.1851C26.2799 25.5271 27.2201 25.5271 27.5601 25.1851C28.8901 23.8611 31.4899 23.8611 32.8199 25.1851C32.9499 25.3141 33.16 25.3991 33.42 25.4421V18.6511C33.42 17.4981 30.81 16.5161 27.01 16.0031V11.3911C27.01 11.1341 26.45 10.9641 25.73 10.9641C25 10.9641 24.45 11.1341 24.45 11.3911V15.7471C23.89 15.7041 23.34 15.7041 22.74 15.6611V9.25513C22.74 8.99913 22.18 8.82812 21.46 8.82812C20.73 8.82812 20.1801 8.99913 20.1801 9.25513V15.6611C19.5801 15.6611 19.02 15.7041 18.47 15.7471V11.3911C18.47 11.1341 17.9099 10.9641 17.1899 10.9641C16.4599 10.9641 15.91 11.1341 15.91 11.3911V16.0031C12.1 16.5161 9.5 17.4981 9.5 18.6511V24.2031C10.48 24.2031 11.46 24.5451 12.15 25.1851C12.53 25.5271 13.4701 25.5271 13.8101 25.1851Z" fill="#548235"/>
<path d="M33.4589 28.0041C32.5589 27.9611 31.6588 27.6201 31.0688 27.0221C30.7188 26.6801 29.7888 26.6801 29.4388 27.0221C28.1188 28.3461 25.5088 28.3461 24.1888 27.0221C23.8488 26.6801 22.9088 26.6801 22.5688 27.0221C21.2388 28.3461 18.639 28.3461 17.309 27.0221C16.969 26.6801 16.0288 26.6801 15.6888 27.0221C14.3688 28.3461 11.7588 28.3461 10.4388 27.0221C10.2688 26.8511 9.92891 26.7661 9.62891 26.7661V34.4531H33.5389V28.0041H33.4589Z" fill="#548235"/>
<path d="M33.4597 36.1602H9.53979C8.81979 36.1602 8.25977 36.7161 8.25977 37.4421C8.25977 38.1681 8.81979 38.7231 9.53979 38.7231H33.4597C34.1797 38.7231 34.7397 38.1681 34.7397 37.4421C34.7397 36.7161 34.1797 36.1602 33.4597 36.1602Z" fill="#548235"/>
</svg>
