<svg width="31" height="32" viewBox="0 0 31 32" fill="none" xmlns="http://www.w3.org/2000/svg">
<path fill-rule="evenodd" clip-rule="evenodd" d="M11.8532 16C11.8532 16.9818 11.1274 17.7778 10.2322 17.7778C9.33704 17.7778 8.61133 16.9818 8.61133 16C8.61133 15.0182 9.33704 14.2222 10.2322 14.2222C11.1274 14.2222 11.8532 15.0182 11.8532 16ZM17.1211 16C17.1211 16.9818 16.3954 17.7778 15.5002 17.7778C14.605 17.7778 13.8793 16.9818 13.8793 16C13.8793 15.0182 14.605 14.2222 15.5002 14.2222C16.3954 14.2222 17.1211 15.0182 17.1211 16ZM20.7682 17.7778C21.6634 17.7778 22.3891 16.9818 22.3891 16C22.3891 15.0182 21.6634 14.2222 20.7682 14.2222C19.873 14.2222 19.1473 15.0182 19.1473 16C19.1473 16.9818 19.873 17.7778 20.7682 17.7778Z" fill="white"/>
<path d="M30 16C30 24.3144 23.4784 31 15.5 31C7.52156 31 1 24.3144 1 16C1 7.68556 7.52156 1 15.5 1C23.4784 1 30 7.68556 30 16Z" stroke="white" stroke-width="2"/>
</svg>
