<svg width="46" height="46" viewBox="0 0 46 46" fill="none" xmlns="http://www.w3.org/2000/svg">
<path d="M37.03 9.29492H8.96996C8.11996 9.30392 7.43003 9.99592 7.42003 10.8529V29.7879C7.41003 30.6409 8.09994 31.3389 8.94994 31.3459C8.95994 31.3459 8.96996 31.3459 8.96996 31.3459H26.12L32.35 37.7169V31.3919H37.03C37.88 31.3829 38.5699 30.6909 38.5799 29.8339V10.8999C38.5899 10.0269 37.9 9.30992 37.03 9.29492ZM19.66 23.7419C19.66 24.0989 19.37 24.3889 19.01 24.3899H16.5799V17.5829H19.01C19.37 17.5839 19.66 17.8729 19.66 18.2299V23.7419ZM29.22 20.6629C29.22 21.1149 28.8999 21.5049 28.4599 21.6029C28.6399 21.7839 28.74 22.0289 28.73 22.2829C28.73 22.8189 28.3 23.2539 27.76 23.2549H27.66C27.83 23.4279 27.93 23.6619 27.92 23.9039C27.92 24.4399 27.4899 24.8739 26.9499 24.8759H24.04C21.87 24.8759 21.78 23.5789 20.63 23.5789V18.3939C20.68 18.3609 23.55 16.9669 23.55 14.5039C23.55 13.9669 23.99 13.5319 24.52 13.5319C25.06 13.5319 25.49 13.9669 25.49 14.5039C25.53 15.5579 25.36 16.6079 25.01 17.5989C25.02 17.8599 25.23 18.0649 25.49 18.0699H28.5699C29.1099 18.0709 29.54 18.5059 29.55 19.0419C29.55 19.4479 29.3 19.8129 28.91 19.9489C29.11 20.1339 29.22 20.3919 29.22 20.6629Z" fill="#BF9000"/>
</svg>
