<svg width="48" height="49" viewBox="0 0 48 49" fill="none" xmlns="http://www.w3.org/2000/svg">
<rect y="0.5" width="48" height="48" rx="12" fill="#F7FCFF"/>
<path d="M35.0989 12.5H8.00011V16.6645H33.7461V16.6682C34.4914 16.6682 35.0865 17.2659 35.0865 18.0079V31.9924L35.0831 32.0042C35.0785 32.7429 34.4775 33.3366 33.7401 33.3366H13.5073C12.7665 33.3366 12.1603 32.7381 12.1603 31.9923V26.3428C12.1603 25.6007 12.7665 24.9984 13.5073 24.9984H30.9144V20.8395H12.1524C9.85907 20.8395 8 22.6952 8 24.9869V33.3484C8 35.6416 9.85907 37.5 12.1524 37.5H35.0988C37.3941 37.5 39.2505 35.6416 39.2505 33.3484V16.653C39.2505 14.36 37.3941 12.5001 35.0988 12.5001" fill="#159BD7"/>
</svg>
