<svg width="33" height="35" viewBox="0 0 33 35" fill="none" xmlns="http://www.w3.org/2000/svg">
<path d="M24.0605 2.1875H8.94043C8.18043 2.1895 7.56055 2.80352 7.56055 3.56152V32.4375C7.56055 33.1955 8.18043 33.8095 8.94043 33.8115H24.0605C24.8205 33.8095 25.4404 33.1955 25.4404 32.4375V3.56152C25.4404 2.80352 24.8205 2.1895 24.0605 2.1875ZM15.3005 3.56152H17.7004C17.9904 3.56152 18.2205 3.79251 18.2205 4.07751C18.2205 4.36251 17.9904 4.59351 17.7004 4.59351H15.3005C15.0105 4.59351 14.7805 4.36251 14.7805 4.07751C14.7805 3.79251 15.0105 3.56152 15.3005 3.56152ZM24.0605 30.0305H8.94043V5.96851H24.0605V30.0305Z" fill="#548235"/>
<path d="M13.9901 14.9972H12.4001V13.9821H13.9901V14.9972ZM16.1702 13.9821V14.9972H14.5701V13.9821H16.1702ZM18.3401 13.9821V14.9972H16.7501V13.9821H18.3401ZM20.5201 13.9821V14.9972H18.9202V13.9821H20.5201ZM20.5201 16.5941H18.9202V15.5771H20.5201V16.5941ZM20.5201 17.8271L18.9202 17.9721V17.1732H20.5201V17.8271ZM13.9901 17.1742V18.4062L12.4001 18.5511V17.1732L13.9901 17.1742ZM13.9901 16.5941H12.4001V15.5771H13.9901V16.5941ZM16.1702 16.5941H14.5701V15.5771H16.1702V16.5941ZM16.7501 16.5941V15.5771H18.3401V16.5931L16.7501 16.5941ZM16.1702 18.2181L14.5701 18.3632V17.1732H16.1702V18.2181ZM16.7501 17.1742H18.3401V18.0152L16.7501 18.1602V17.1742ZM21.3901 18.6241V13.1122H12.4001V12.9662C12.4001 12.2482 11.8201 11.6642 11.1001 11.6602H11.0901C10.8501 11.6602 10.6602 11.8552 10.6602 12.0952C10.6602 12.3362 10.8501 12.5312 11.0901 12.5312C11.3301 12.5262 11.5202 12.7142 11.5302 12.9502C11.5302 12.9552 11.5302 12.9602 11.5302 12.9662V20.2191C11.5202 20.9371 12.1001 21.5221 12.8201 21.5251H12.8301H20.9501C21.2001 21.5321 21.4001 21.3431 21.4001 21.1021C21.4101 20.8621 21.2201 20.6622 20.9801 20.6552C20.9701 20.6552 20.9601 20.6552 20.9501 20.6552H12.8301C12.6001 20.6592 12.4001 20.4711 12.4001 20.2361C12.4001 20.2301 12.4001 20.2252 12.4001 20.2202V19.4211L21.3901 18.6241Z" fill="#548235"/>
<path d="M14.1404 22.3944C14.1404 22.8744 13.7504 23.2645 13.2704 23.2645C12.7904 23.2645 12.4004 22.8744 12.4004 22.3944C12.4004 21.9134 12.7904 21.5234 13.2704 21.5234C13.7504 21.5234 14.1404 21.9134 14.1404 22.3944Z" fill="#548235"/>
<path d="M20.5212 22.3944C20.5212 22.8744 20.1312 23.2645 19.6512 23.2645C19.1712 23.2645 18.7812 22.8744 18.7812 22.3944C18.7812 21.9134 19.1712 21.5234 19.6512 21.5234C20.1312 21.5234 20.5212 21.9134 20.5212 22.3944Z" fill="#548235"/>
</svg>
