<svg width="42" height="43" viewBox="0 0 42 43" fill="none" xmlns="http://www.w3.org/2000/svg">
<path d="M10.0625 7.47852H31.9375V36.5201H10.0625V7.47852ZM7.4375 39.0826H34.5625V4.91602H7.4375V39.0826Z" fill="#C00000"/>
<path d="M21.875 11.3223H29.3125V13.0305H21.875V11.3223Z" fill="#C00000"/>
<path d="M21.875 18.1562H29.3125V19.8646H21.875V18.1562Z" fill="#C00000"/>
<path d="M21.875 31.8223H29.3125V33.5306H21.875V31.8223Z" fill="#C00000"/>
<path d="M21.875 24.9883H29.3125V26.6966H21.875V24.9883Z" fill="#C00000"/>
<path d="M19.1625 10.3833L17.9375 9.1875L15.0501 12.0063L13.9126 10.8958L12.6875 12.0917L15.0501 14.3979L19.1625 10.3833Z" fill="#C00000"/>
<path d="M19.1625 17.2154L17.9375 16.0195L15.0501 18.8383L13.9126 17.7279L12.6875 18.9237L15.0501 21.23L19.1625 17.2154Z" fill="#C00000"/>
<path d="M19.1625 24.0493L17.9375 22.8535L15.0501 25.6722L13.9126 24.5618L12.6875 25.7576L15.0501 28.0639L19.1625 24.0493Z" fill="#C00000"/>
<path d="M19.1625 30.7974L17.9375 29.6016L15.0501 32.4203L13.9126 31.3099L12.6875 32.5058L15.0501 34.812L19.1625 30.7974Z" fill="#C00000"/>
</svg>
