<svg width="16" height="17" viewBox="0 0 16 17" fill="none" xmlns="http://www.w3.org/2000/svg">
<path fill-rule="evenodd" clip-rule="evenodd" d="M14.6673 6.10273V12.5007C14.6673 13.9734 13.4734 15.1673 12.0007 15.1673H4.00065C2.52789 15.1673 1.33398 13.9734 1.33398 12.5007V6.10273C1.33398 5.95608 1.34607 5.81048 1.36977 5.66732H14.6315C14.6552 5.81048 14.6673 5.95608 14.6673 6.10273ZM14.248 4.66732C14.1973 4.58794 14.1423 4.511 14.083 4.43688L12.8013 2.8348C12.2952 2.20222 11.5291 1.83398 10.719 1.83398H5.28232C4.47223 1.83398 3.70606 2.20222 3.2 2.8348L1.91833 4.43688C1.85904 4.511 1.80397 4.58794 1.75327 4.66732H14.248ZM6.23287 10.8947C6.03761 11.0899 6.03761 11.4065 6.23287 11.6018C6.42813 11.797 6.74471 11.797 6.93998 11.6018L8.00065 10.5411L9.0613 11.6017C9.25656 11.797 9.57314 11.797 9.7684 11.6017C9.96367 11.4065 9.96367 11.0899 9.7684 10.8946L8.70776 9.83398L9.7684 8.77334C9.96367 8.57807 9.96367 8.26149 9.7684 8.06623C9.57314 7.87097 9.25656 7.87097 9.0613 8.06623L8.00065 9.12688L6.93998 8.06621C6.74471 7.87094 6.42813 7.87094 6.23287 8.06621C6.03761 8.26147 6.03761 8.57805 6.23287 8.77331L7.29354 9.83398L6.23287 10.8947Z" fill="#FF3F35"/>
</svg>
