<svg width="16" height="17" viewBox="0 0 16 17" fill="none" xmlns="http://www.w3.org/2000/svg">
<path fill-rule="evenodd" clip-rule="evenodd" d="M14.6673 12.5417V6.14375C14.6673 5.9971 14.6552 5.8515 14.6315 5.70833H1.36977C1.34607 5.8515 1.33398 5.9971 1.33398 6.14375V12.5417C1.33398 14.0144 2.52789 15.2083 4.00065 15.2083H12.0007C13.4734 15.2083 14.6673 14.0144 14.6673 12.5417ZM14.083 4.4779C14.1423 4.55202 14.1973 4.62895 14.248 4.70833H1.75327C1.80397 4.62895 1.85904 4.55202 1.91833 4.4779L3.2 2.87581C3.70606 2.24324 4.47223 1.875 5.28232 1.875H10.719C11.5291 1.875 12.2952 2.24324 12.8013 2.87581L14.083 4.4779ZM10.3769 8.87092C10.5588 8.6631 10.5377 8.34722 10.3299 8.16538C10.1221 7.98354 9.8062 8.0046 9.62436 8.21241L7.71109 10.399C7.65236 10.4661 7.55119 10.4751 7.48155 10.4194L6.313 9.48457C6.09737 9.31206 5.78272 9.34702 5.61022 9.56265C5.43771 9.77828 5.47267 10.0929 5.6883 10.2654L6.85685 11.2003C7.34438 11.5903 8.05254 11.5274 8.46367 11.0575L10.3769 8.87092Z" fill="#1B9B3E"/>
</svg>
