<svg width="32" height="48" viewBox="0 0 32 48" fill="none" xmlns="http://www.w3.org/2000/svg">
<path d="M3.53845 20.8849C3.81383 20.8849 4.07808 20.7755 4.27279 20.5808C4.4675 20.3861 4.57691 20.1218 4.57691 19.8464V16.7311C4.57691 15.9047 4.90513 15.1125 5.48926 14.5281C6.07363 13.9439 6.8659 13.6157 7.69227 13.6157H10.8076C11.1787 13.6157 11.5216 13.4178 11.707 13.0965C11.8924 12.7752 11.8924 12.3793 11.707 12.058C11.5216 11.7368 11.1787 11.5388 10.8076 11.5388H7.69227C6.31563 11.5404 4.99597 12.0879 4.02267 13.0615C3.04913 14.0348 2.5016 15.3545 2.5 16.7311V19.8464C2.5 20.1218 2.60941 20.3861 2.80412 20.5808C2.99883 20.7755 3.26308 20.8849 3.53845 20.8849Z" fill="#159BD7"/>
<path d="M7.69227 36.4613H10.8076C11.1787 36.4613 11.5216 36.2633 11.707 35.9421C11.8924 35.6208 11.8924 35.2249 11.707 34.9036C11.5216 34.5824 11.1787 34.3844 10.8076 34.3844H7.69227C6.8659 34.3844 6.07364 34.0562 5.48926 33.472C4.90513 32.8877 4.57691 32.0954 4.57691 31.269V28.1537C4.57691 27.7826 4.37895 27.4398 4.05768 27.2543C3.73641 27.0689 3.34049 27.0689 3.01923 27.2543C2.69796 27.4398 2.5 27.7826 2.5 28.1537V31.269C2.50162 32.6457 3.04913 33.9653 4.02267 34.9386C4.99597 35.9122 6.31563 36.4597 7.69227 36.4613Z" fill="#159BD7"/>
<path d="M24.3076 11.5388H21.1922C20.8211 11.5388 20.4783 11.7368 20.2929 12.058C20.1074 12.3793 20.1074 12.7752 20.2929 13.0965C20.4783 13.4178 20.8212 13.6157 21.1922 13.6157H24.3076C25.134 13.6157 25.9262 13.9439 26.5106 14.5281C27.0947 15.1124 27.423 15.9047 27.423 16.7311V19.8464C27.423 20.2176 27.6209 20.5604 27.9422 20.7458C28.2635 20.9312 28.6594 20.9312 28.9806 20.7458C29.3019 20.5604 29.4999 20.2175 29.4999 19.8464V16.7311C29.4983 15.3545 28.9507 14.0348 27.9772 13.0615C27.0039 12.088 25.6842 11.5404 24.3076 11.5388Z" fill="#159BD7"/>
<path d="M28.4614 27.1152C28.186 27.1152 27.9218 27.2246 27.7271 27.4194C27.5324 27.6141 27.423 27.8783 27.423 28.1537V31.269C27.423 32.0954 27.0947 32.8877 26.5106 33.4721C25.9262 34.0562 25.134 34.3844 24.3076 34.3844H21.1922C20.8211 34.3844 20.4783 34.5824 20.2929 34.9036C20.1074 35.2249 20.1074 35.6208 20.2929 35.9421C20.4783 36.2634 20.8212 36.4613 21.1922 36.4613H24.3076C25.6842 36.4597 27.0039 35.9122 27.9772 34.9386C28.9507 33.9653 29.4983 32.6457 29.4999 31.269V28.1537C29.4999 27.8783 29.3905 27.6141 29.1958 27.4194C29.001 27.2246 28.7368 27.1152 28.4614 27.1152Z" fill="#159BD7"/>
<path d="M14.0964 16.8696C13.8211 16.8696 13.5568 16.979 13.3621 17.1737C13.1674 17.3685 13.058 17.6327 13.058 17.9081V23.1004H9.94262V17.9081C9.94262 17.537 9.74467 17.1942 9.42339 17.0087C9.10212 16.8233 8.70621 16.8233 8.38494 17.0087C8.06367 17.1942 7.86571 17.537 7.86571 17.9081V23.1004H6.82726C6.45615 23.1004 6.11334 23.2983 5.9279 23.6196C5.74246 23.9409 5.74246 24.3368 5.9279 24.658C6.11334 24.9793 6.45616 25.1773 6.82726 25.1773H7.86571V29.3999C7.86571 29.7711 8.06366 30.1139 8.38494 30.2993C8.70621 30.4847 9.10212 30.4847 9.42339 30.2993C9.74466 30.1139 9.94262 29.771 9.94262 29.3999V25.1773H13.058V29.3999C13.058 29.7711 13.2559 30.1139 13.5772 30.2993C13.8985 30.4847 14.2944 30.4847 14.6157 30.2993C14.9369 30.1139 15.1349 29.771 15.1349 29.3999V25.1773H18.2848V29.3999C18.2848 29.7711 18.4827 30.1139 18.804 30.2993C19.1253 30.4847 19.5212 30.4847 19.8424 30.2993C20.1637 30.1139 20.3617 29.771 20.3617 29.3999V25.1773H22.7847V29.3999C22.7847 29.7711 22.9826 30.1139 23.3039 30.2993C23.6252 30.4847 24.0211 30.4847 24.3424 30.2993C24.6636 30.1139 24.8616 29.771 24.8616 29.3999V25.1773H25.9C26.2711 25.1773 26.614 24.9793 26.7994 24.658C26.9848 24.3368 26.9848 23.9408 26.7994 23.6196C26.614 23.2983 26.2711 23.1004 25.9 23.1004H24.8616V17.9081C24.8616 17.537 24.6636 17.1942 24.3424 17.0087C24.0211 16.8233 23.6252 16.8233 23.3039 17.0087C22.9826 17.1942 22.7847 17.537 22.7847 17.9081V23.1004H20.3617V17.9081C20.3617 17.537 20.1637 17.1942 19.8424 17.0087C19.5212 16.8233 19.1253 16.8233 18.804 17.0087C18.4827 17.1942 18.2848 17.537 18.2848 17.9081V23.1004H15.1349V17.9081C15.1349 17.6327 15.0255 17.3685 14.8308 17.1737C14.6361 16.979 14.3718 16.8696 14.0964 16.8696Z" fill="#159BD7"/>
</svg>
