<svg width="24" height="24" viewBox="0 0 24 24" fill="none" xmlns="http://www.w3.org/2000/svg">
<path d="M4.55805 10.8372H8.2791C8.95733 10.8367 9.6078 10.567 10.0874 10.0874C10.5669 9.6078 10.8367 8.95729 10.8372 8.2791V4.55805C10.8367 3.87982 10.567 3.22935 10.0874 2.74971C9.6078 2.27022 8.95729 2.00048 8.2791 2H4.55805C3.87982 2.00047 3.22935 2.27019 2.74971 2.74971C2.27022 3.22935 2.00048 3.87986 2 4.55805V8.2791C2.00047 8.95733 2.27019 9.6078 2.74971 10.0874C3.22935 10.5669 3.87986 10.8367 4.55805 10.8372ZM3.39536 4.55805C3.39582 4.24985 3.51854 3.95442 3.73641 3.73642C3.95444 3.51855 4.24986 3.39583 4.55804 3.39537H8.27909C8.58729 3.39584 8.88272 3.51855 9.10072 3.73642C9.31858 3.95445 9.4413 4.24987 9.44177 4.55805V8.2791C9.4413 8.5873 9.31859 8.88273 9.10072 9.10073C8.88269 9.3186 8.58727 9.44132 8.27909 9.44178H4.55804C4.24984 9.44131 3.9544 9.3186 3.73641 9.10073C3.51854 8.8827 3.39582 8.58728 3.39536 8.2791V4.55805Z" fill="#28303F"/>
<path d="M19.4421 2H15.7211C15.0428 2.00047 14.3924 2.27019 13.9127 2.74971C13.4332 3.22935 13.1635 3.87986 13.163 4.55805V8.2791C13.1635 8.95733 13.4332 9.6078 13.9127 10.0874C14.3924 10.5669 15.0429 10.8367 15.7211 10.8372H19.4421C20.1204 10.8367 20.7708 10.567 21.2505 10.0874C21.73 9.6078 21.9997 8.95729 22.0002 8.2791V4.55805C21.9997 3.87982 21.73 3.22935 21.2505 2.74971C20.7708 2.27022 20.1203 2.00048 19.4421 2ZM20.6048 8.2791C20.6044 8.5873 20.4816 8.88273 20.2638 9.10073C20.0457 9.3186 19.7503 9.44132 19.4421 9.44178H15.7211C15.4129 9.44131 15.1175 9.3186 14.8995 9.10073C14.6816 8.8827 14.5589 8.58728 14.5584 8.2791V4.55805C14.5589 4.24985 14.6816 3.95442 14.8995 3.73642C15.1175 3.51855 15.4129 3.39583 15.7211 3.39537H19.4421C19.7503 3.39584 20.0458 3.51855 20.2638 3.73642C20.4816 3.95445 20.6044 4.24987 20.6048 4.55805V8.2791Z" fill="#28303F"/>
<path d="M4.55805 22H8.2791C8.95733 21.9995 9.6078 21.7298 10.0874 21.2503C10.5669 20.7706 10.8367 20.1201 10.8372 19.4419V15.7209C10.8367 15.0427 10.567 14.3922 10.0874 13.9125C9.6078 13.4331 8.95729 13.1633 8.2791 13.1628H4.55805C3.87982 13.1633 3.22935 13.433 2.74971 13.9125C2.27022 14.3922 2.00048 15.0427 2 15.7209V19.4419C2.00047 20.1202 2.27019 20.7706 2.74971 21.2503C3.22935 21.7298 3.87986 21.9995 4.55805 22ZM3.39536 15.7209C3.39582 15.4127 3.51854 15.1173 3.73641 14.8993C3.95444 14.6814 4.24986 14.5587 4.55804 14.5582H8.27909C8.58729 14.5587 8.88272 14.6814 9.10072 14.8993C9.31858 15.1173 9.4413 15.4127 9.44177 15.7209V19.4419C9.4413 19.7501 9.31859 20.0456 9.10072 20.2636C8.88269 20.4814 8.58727 20.6042 8.27909 20.6046H4.55804C4.24984 20.6042 3.9544 20.4814 3.73641 20.2636C3.51854 20.0455 3.39582 19.7501 3.39536 19.4419V15.7209Z" fill="#28303F"/>
<path d="M6.41863 8.0465C6.85032 8.0465 7.26442 7.87504 7.5698 7.5698C7.87504 7.26441 8.0465 6.85032 8.0465 6.41863C8.0465 5.98695 7.87504 5.57285 7.5698 5.26747C7.26441 4.96223 6.85032 4.79077 6.41863 4.79077C5.98695 4.79077 5.57285 4.96223 5.26747 5.26747C4.96223 5.57286 4.79077 5.98695 4.79077 6.41863C4.79124 6.85016 4.96286 7.26394 5.2681 7.56916C5.57335 7.87439 5.98711 8.04602 6.41863 8.0465ZM6.41863 6.18597V6.18612C6.4803 6.18612 6.53948 6.21057 6.58309 6.25418C6.62669 6.29778 6.65114 6.35696 6.65114 6.41863C6.65114 6.6745 6.18597 6.6745 6.18597 6.41863H6.18612C6.18612 6.29015 6.29015 6.18612 6.41863 6.18612L6.41863 6.18597Z" fill="#28303F"/>
<path d="M17.5815 4.79102C17.1498 4.79102 16.7357 4.96248 16.4303 5.26771C16.1251 5.5731 15.9536 5.98719 15.9536 6.41888C15.9536 6.85056 16.1251 7.26466 16.4303 7.57005C16.7357 7.87528 17.1498 8.04674 17.5815 8.04674C18.0132 8.04674 18.4273 7.87528 18.7326 7.57005C19.0379 7.26466 19.2093 6.85056 19.2093 6.41888C19.2089 5.98735 19.0373 5.57357 18.732 5.26835C18.4268 4.96312 18.013 4.79149 17.5815 4.79102ZM17.349 6.41888C17.349 6.2904 17.453 6.18637 17.5815 6.18637C17.71 6.18637 17.814 6.2904 17.814 6.41888C17.814 6.67475 17.349 6.67475 17.349 6.41888Z" fill="#28303F"/>
<path d="M6.41863 19.2093C6.85032 19.2093 7.26442 19.0379 7.5698 18.7326C7.87504 18.4273 8.0465 18.0132 8.0465 17.5815C8.0465 17.1498 7.87504 16.7357 7.5698 16.4303C7.26441 16.1251 6.85032 15.9536 6.41863 15.9536C5.98695 15.9536 5.57285 16.1251 5.26747 16.4303C4.96223 16.7357 4.79077 17.1498 4.79077 17.5815C4.79124 18.013 4.96286 18.4268 5.2681 18.732C5.57335 19.0372 5.98711 19.2089 6.41863 19.2093ZM6.41863 17.3488V17.349C6.4803 17.349 6.53948 17.3734 6.58309 17.417C6.62669 17.4606 6.65114 17.5198 6.65114 17.5815C6.65114 17.8373 6.18597 17.8373 6.18597 17.5815H6.18612C6.18612 17.453 6.29015 17.349 6.41863 17.349L6.41863 17.3488Z" fill="#28303F"/>
<path d="M15.4885 20.3724V14.7909C15.4885 14.5416 15.3555 14.3113 15.1397 14.1867C14.9238 14.0621 14.6578 14.0621 14.442 14.1867C14.2261 14.3113 14.0931 14.5416 14.0931 14.7909V20.3724C14.0931 20.6217 14.2261 20.852 14.442 20.9766C14.6578 21.1012 14.9238 21.1012 15.1397 20.9766C15.3555 20.852 15.4885 20.6217 15.4885 20.3724Z" fill="#28303F"/>
<path d="M18.2791 20.3724V14.7909C18.2791 14.5416 18.1462 14.3113 17.9303 14.1867C17.7145 14.0621 17.4485 14.0621 17.2326 14.1867C17.0168 14.3113 16.8838 14.5416 16.8838 14.7909V20.3724C16.8838 20.6217 17.0168 20.852 17.2326 20.9766C17.4485 21.1012 17.7145 21.1012 17.9303 20.9766C18.1461 20.852 18.2791 20.6217 18.2791 20.3724Z" fill="#28303F"/>
<path d="M21.0699 20.3724V14.7909C21.0699 14.5416 20.9369 14.3113 20.721 14.1867C20.5052 14.0621 20.2392 14.0621 20.0233 14.1867C19.8075 14.3113 19.6745 14.5416 19.6745 14.7909V20.3724C19.6745 20.6217 19.8075 20.852 20.0233 20.9766C20.2392 21.1012 20.5052 21.1012 20.721 20.9766C20.9369 20.852 21.0699 20.6217 21.0699 20.3724Z" fill="#28303F"/>
</svg>
