<svg width="16" height="16" viewBox="0 0 16 16" fill="none" xmlns="http://www.w3.org/2000/svg">
<path d="M11.2465 8.10789L13.3335 7.07515L8.63784 2.42778C8.06155 1.85741 7.12718 1.85741 6.55089 2.42778L1.85524 7.07515C1.56709 7.36033 1.42301 7.73411 1.42301 8.10789M11.2465 8.10789L7.07263 12.2389C6.49633 12.8093 5.56197 12.8093 4.98567 12.2389L1.85524 9.14064C1.56709 8.85546 1.42301 8.48168 1.42301 8.10789M11.2465 8.10789L1.42301 8.10789M1.42301 8.10789L1.3335 8.10789M14.657 12.4902C14.657 13.5948 13.9904 13.9902 13.3237 13.9902C12.657 13.9902 11.9904 13.5948 11.9904 12.4902C11.9904 11.3856 13.3237 9.9902 13.3237 9.9902C13.3237 9.9902 14.657 11.3856 14.657 12.4902Z" stroke="#475569" stroke-width="1.09091" stroke-linejoin="round"/>
</svg>
