<svg width="29" height="26" viewBox="0 0 29 26" fill="none" xmlns="http://www.w3.org/2000/svg">
<path d="M7.83268 5V5.85714C8.11927 5.85714 8.3869 5.71391 8.54587 5.47546L7.83268 5ZM9.7077 2.18747L8.99452 1.71201V1.71201L9.7077 2.18747ZM19.291 2.18747L20.0042 1.71201L19.291 2.18747ZM21.166 5L20.4528 5.47546C20.6118 5.71391 20.8794 5.85714 21.166 5.85714V5ZM17.6422 15C17.6422 16.7358 16.2351 18.1429 14.4993 18.1429V19.8571C17.1819 19.8571 19.3565 17.6825 19.3565 15H17.6422ZM14.4993 18.1429C12.7636 18.1429 11.3565 16.7358 11.3565 15H9.64221C9.64221 17.6825 11.8168 19.8571 14.4993 19.8571V18.1429ZM11.3565 15C11.3565 13.2642 12.7636 11.8571 14.4993 11.8571V10.1429C11.8168 10.1429 9.64221 12.3175 9.64221 15H11.3565ZM14.4993 11.8571C16.2351 11.8571 17.6422 13.2642 17.6422 15H19.3565C19.3565 12.3175 17.1819 10.1429 14.4993 10.1429V11.8571ZM8.54587 5.47546L10.4209 2.66292L8.99452 1.71201L7.1195 4.52454L8.54587 5.47546ZM11.9265 1.85714H17.0722V0.142857H11.9265V1.85714ZM18.5778 2.66292L20.4528 5.47546L21.8792 4.52454L20.0042 1.71201L18.5778 2.66292ZM17.0722 1.85714C17.6772 1.85714 18.2422 2.15952 18.5778 2.66292L20.0042 1.71201C19.3506 0.73169 18.2504 0.142857 17.0722 0.142857V1.85714ZM10.4209 2.66292C10.7565 2.15952 11.3215 1.85714 11.9265 1.85714V0.142857C10.7483 0.142857 9.64806 0.731689 8.99452 1.71201L10.4209 2.66292ZM26.9755 10.3333V19.6667H28.6898V10.3333H26.9755ZM22.4993 24.1429H6.49935V25.8571H22.4993V24.1429ZM2.02316 19.6667V10.3333H0.308873V19.6667H2.02316ZM6.49935 24.1429C4.02722 24.1429 2.02316 22.1388 2.02316 19.6667H0.308873C0.308873 23.0856 3.08044 25.8571 6.49935 25.8571V24.1429ZM26.9755 19.6667C26.9755 22.1388 24.9715 24.1429 22.4993 24.1429V25.8571C25.9183 25.8571 28.6898 23.0856 28.6898 19.6667H26.9755ZM22.4993 5.85714C24.9715 5.85714 26.9755 7.8612 26.9755 10.3333H28.6898C28.6898 6.91443 25.9183 4.14286 22.4993 4.14286V5.85714ZM6.49935 4.14286C3.08044 4.14286 0.308873 6.91443 0.308873 10.3333H2.02316C2.02316 7.8612 4.02722 5.85714 6.49935 5.85714V4.14286ZM6.49935 5.85714H7.83268V4.14286H6.49935V5.85714ZM22.4993 4.14286H21.166V5.85714H22.4993V4.14286Z" fill="#94A3B8"/>
</svg>
