<svg width="24" height="24" viewBox="0 0 24 24" fill="none" xmlns="http://www.w3.org/2000/svg">
<path fill-rule="evenodd" clip-rule="evenodd" d="M9.40675 2.89048C9.77769 2.33408 10.4021 1.99988 11.0709 1.99988H12.9301C13.5988 1.99988 14.2233 2.33408 14.5942 2.89048L15.5005 4.24988H19.2505C19.6647 4.24988 20.0005 4.58566 20.0005 4.99988C20.0005 5.41409 19.6647 5.74988 19.2505 5.74988H4.75049C4.33627 5.74988 4.00049 5.41409 4.00049 4.99988C4.00049 4.58566 4.33627 4.24988 4.75049 4.24988H8.50049L9.40675 2.89048ZM15.0001 22H9.0001C6.79096 22 5.0001 20.2091 5.0001 18V6.99998H19.0001V18C19.0001 20.2091 17.2092 22 15.0001 22ZM10.0001 10.25C10.4143 10.25 10.7501 10.5858 10.7501 11V18C10.7501 18.4142 10.4143 18.75 10.0001 18.75C9.58588 18.75 9.2501 18.4142 9.2501 18L9.2501 11C9.2501 10.5858 9.58588 10.25 10.0001 10.25ZM14.0001 10.25C14.4143 10.25 14.7501 10.5858 14.7501 11V18C14.7501 18.4142 14.4143 18.75 14.0001 18.75C13.5859 18.75 13.2501 18.4142 13.2501 18V11C13.2501 10.5858 13.5859 10.25 14.0001 10.25Z" fill="white"/>
</svg>
