<svg width="24" height="24" viewBox="0 0 24 24" fill="none" xmlns="http://www.w3.org/2000/svg">
<path d="M8.6453 21.9829C7.34058 21.9829 6.03071 22.0245 4.72496 21.978C3.18095 21.9186 2 20.6761 2 19.1941C2 14.4119 2.00928 9.62871 2 4.84155C2 3.20428 3.3336 2.06265 4.86832 2.0211C6.47421 1.97955 8.08525 2.01219 9.6963 2.01219C9.72518 2.01219 9.76334 1.99834 9.77778 2.04385C9.76849 2.12596 9.68186 2.13585 9.62926 2.16751C8.68346 2.70074 7.81812 3.33784 7.09098 4.12729C5.89147 5.42919 5.05913 6.924 4.77756 8.66217C4.28042 11.73 5.27985 14.3347 7.54067 16.5082C7.94189 16.898 7.99449 17.2007 7.67476 17.723C7.28798 18.3512 6.69905 18.7776 6.07299 19.1674C6.00595 19.204 5.54794 19.4098 5.4809 19.4513C5.38086 19.5334 5.78592 19.4147 5.87153 19.4513C5.89112 19.4929 5.96263 19.5295 5.99151 19.5661C6.54125 20.034 7.0621 20.5336 7.60256 21.0104C7.85628 21.235 8.10897 21.4695 8.35342 21.7029C8.45346 21.79 8.62158 21.8177 8.6453 21.9829Z" fill="#28303F"/>
<path d="M8.12571 21.9961C8.11112 22 7.78965 21.6599 7.69596 21.5661C7.47035 21.3329 7.23518 21.1085 7.00001 20.8889C6.49908 20.4226 6.01632 19.9341 5.50679 19.4766C5.48002 19.4408 5.45803 19.405 5.43987 19.3643C6.56983 19.5888 7.56647 19.5739 8.65245 19.2382C9.0205 19.126 9.38759 19.0138 9.76042 18.9199C10.0128 18.8522 10.2786 18.8658 10.5223 18.9557C13.3319 19.9328 16.1052 19.8438 18.8345 18.6326C19.9463 18.1354 20.9615 17.435 21.8209 16.5615C21.8649 16.517 21.8965 16.4493 21.9758 16.4445C22.016 16.5073 21.994 16.5741 21.994 16.6418V19.2653C22.0026 20.7628 20.8153 21.9826 19.3354 21.9961H19.3134C17.7179 22.0048 16.1234 21.9961 14.5278 21.9961H8.12571C8.21461 21.9961 8.0368 21.9855 8.12571 21.9961Z" fill="#0B0E12"/>
<path d="M8.5502 11.6716C9.23879 11.6716 9.88607 11.6666 10.5294 11.6716C10.8894 11.6765 11.0852 11.827 11.1226 12.1142C11.1639 12.4743 10.9544 12.7162 10.5619 12.7202C9.82311 12.729 9.08927 12.7251 8.35051 12.7251C8.13607 12.7251 7.92654 12.734 7.71209 12.7202C7.44748 12.7064 7.18778 12.6513 7.0599 12.3779C6.93202 12.1044 7.0235 11.8585 7.19663 11.6342C7.89899 10.741 8.60529 9.84188 9.31257 8.94868C9.35389 8.89359 9.39422 8.83949 9.43553 8.78932C9.39028 8.71161 9.32634 8.74801 9.27125 8.74407C8.77842 8.73915 8.28165 8.74407 7.7898 8.73915C7.6757 8.73915 7.56159 8.72538 7.4524 8.70276C7.1927 8.64373 7.03334 8.38404 7.09236 8.12828C7.13368 7.95515 7.27041 7.81349 7.44354 7.77218C7.55273 7.74463 7.66684 7.73086 7.78095 7.73086C8.5925 7.72594 9.40897 7.72594 10.2205 7.73086C10.3661 7.72594 10.5078 7.74463 10.6494 7.78103C10.9593 7.88629 11.0921 8.17353 10.9681 8.47454C10.8589 8.73423 10.6858 8.95753 10.5117 9.18083C9.91459 9.94222 9.31749 10.6987 8.7194 11.4512C8.66825 11.5122 8.623 11.5712 8.5502 11.6716Z" fill="#28303F"/>
<path d="M13.8392 9.27333C13.9484 9.13167 14.0625 8.99986 14.2494 8.96346C14.6094 8.89067 14.9469 9.12282 14.9518 9.48777C14.9655 10.3997 14.9606 11.3116 14.9518 12.2234C14.9518 12.4605 14.7963 12.67 14.573 12.7389C14.3448 12.8255 14.0851 12.7576 13.9346 12.5608C13.8569 12.4654 13.8254 12.4467 13.7162 12.5333C13.3011 12.8707 12.8319 12.9297 12.3253 12.7655C11.5137 12.5008 11.1813 11.8673 11.0898 11.0971C10.9944 10.2629 11.2718 9.55171 12.0203 9.11397C12.6401 8.74508 13.2687 8.77656 13.8392 9.27333ZM12.225 10.9377C12.2338 11.1384 12.2978 11.3302 12.4168 11.4896C12.6627 11.8182 13.1329 11.886 13.4654 11.6401C13.5205 11.5988 13.5707 11.5486 13.6159 11.4896C13.8717 11.1433 13.8717 10.5728 13.6159 10.2265C13.488 10.0485 13.2874 9.94421 13.0729 9.93929C12.5712 9.90781 12.22 10.2954 12.225 10.9377ZM16.9988 10.9653C16.9625 9.7937 17.7327 8.91821 18.8275 8.88575C19.9903 8.84935 20.8382 9.62943 20.8746 10.7685C20.911 11.9224 20.2047 12.7379 19.1148 12.8481C17.9245 12.9671 16.9802 12.1054 16.9988 10.9653ZM18.1429 10.8561C18.134 11.0843 18.2019 11.3076 18.3386 11.4945C18.5895 11.8231 19.0587 11.887 19.3873 11.6313C19.4374 11.5949 19.4788 11.5496 19.5191 11.5034C19.7837 11.1571 19.7837 10.5728 19.524 10.2265C19.3961 10.0534 19.1954 9.94421 18.981 9.93929C18.4901 9.91175 18.1429 10.2856 18.1429 10.8561ZM16.5975 10.0583C16.5975 10.7646 16.6024 11.4719 16.5975 12.1782C16.6024 12.5018 16.3467 12.7714 16.023 12.7802C15.9679 12.7802 15.9089 12.7753 15.8538 12.7615C15.6256 12.7025 15.4525 12.4605 15.4525 12.1733V8.54834C15.4525 8.33389 15.4476 8.12437 15.4525 7.90992C15.4574 7.55874 15.6807 7.33052 16.0181 7.33052C16.3644 7.3256 16.5975 7.55382 16.5975 7.91877C16.6024 8.63097 16.5975 9.3471 16.5975 10.0583Z" fill="#28303F"/>
<path d="M4.8379 2H19.1621C20.7294 2 22 3.3443 22 5.00249V18.9975C22 20.6557 20.7294 22 19.1621 22H4.8379C3.2706 22 2 20.6557 2 18.9975V5.00249C2 3.3443 3.2706 2 4.8379 2Z" stroke="#28303F" stroke-width="0.5" stroke-miterlimit="54.3289"/>
</svg>
